<?xml version="1.0" encoding="utf-8"?>
<!-- Generator: Adobe Illustrator 20.0.0, SVG Export Plug-In . SVG Version: 6.00 Build 0)  -->
<svg version="1.1" xmlns="http://www.w3.org/2000/svg" xmlns:xlink="http://www.w3.org/1999/xlink" x="0px" y="0px"
	 viewBox="0 0 304.7 120.9" style="enable-background:new 0 0 304.7 120.9;" xml:space="preserve">
<style type="text/css">
	.st0{fill-rule:evenodd;clip-rule:evenodd;fill:#004990;}
	.st1{fill-rule:evenodd;clip-rule:evenodd;fill:#E51D26;}
	.st2{fill:#004990;}
</style>
<g id="Layer_1">
</g>
<g id="Layer_2">
	<g>
		<g>
			<g>
				<path class="st0" d="M61.9,74.1h-1.2c-0.1-2.5,0-4.1-3.7-4.1h-6.9v25.6c0,3.2,1.7,3.2,4.2,3.3v1.2c-2.2,0-4.2-0.1-6.2-0.1
					c-2.2,0-4.3,0-6.6,0.1v-1.2c2.4,0,4.2-0.1,4.2-3.3V70h-6c-4.1,0-4.3,1.1-5.1,4.1h-1.2l0.5-7.3h0.9c0.5,1.2,1.7,1.3,2.9,1.3h20.8
					c1.6,0,2.8-0.4,3-1.3h1L61.9,74.1L61.9,74.1z"/>
				<path class="st0" d="M64.6,88.7v8c0,2.4,1.3,2.4,3.1,2.5v0.9c-1.6,0-3.1-0.1-4.6-0.1c-1.6,0-3.3,0-5,0.1v-0.9
					c1.7,0.1,3.1-0.3,3.1-2.3V79.5c0-2.4-1.3-2.4-3.1-2.5v-0.9c1.9,0,3.5,0.1,5.2,0.1c1.2,0,2.4-0.1,4.6-0.1c6.5,0,7.9,3.6,7.9,6.1
					c0,2.9-2.2,5.1-4.9,5.9c3.1,4.6,4.8,7.3,6.2,8.9c1.1,1.2,2.1,2.2,3.9,2.2v0.9c-0.9,0-1.7-0.1-2.6-0.1c-1,0-2,0-2.9,0.1
					c-3.1-3.4-5.4-7.4-7.9-11.3H64.6L64.6,88.7z M66.6,77.2c-0.9,0-1.4,0.1-2.1,0.2v10c0.5,0.1,1.2,0.2,1.8,0.2
					c4.2,0,5.9-2.8,5.9-5.2C72.2,79.4,70.7,77.2,66.6,77.2L66.6,77.2z"/>
				<path class="st0" d="M96.8,93.2c0.5,1.3,1.4,4.2,2,5c0.5,0.7,1.5,0.9,2.6,0.9v0.9c-1.3,0-2.6-0.1-3.9-0.1c-1.7,0-3.3,0-5,0.1
					v-0.9h0.6c0.9,0,1.9-0.2,1.9-1.1c0-0.4-0.3-1.3-0.5-2l-1.7-5h-8.1l-0.8,2.4c-0.4,1.4-0.9,3-0.9,4.1c0,1.6,1.1,1.5,2.3,1.6h0.8
					v0.9c-1.3,0-2.7-0.1-4-0.1c-1.4,0-2.8,0-4.1,0.1v-0.9c2.1-0.2,2.5-0.5,3.3-2.4c0.5-1.2,1-2.6,1.4-3.8L87,80.7
					c0.3-0.8,0.7-2.1,0.7-3.1c0-0.3,0-0.6-0.1-0.9c0.7-0.3,1.5-0.7,2-1.5h0.6L96.8,93.2L96.8,93.2z M85.2,89.7h7.1l-3.7-10.1h-0.1
					L85.2,89.7L85.2,89.7z"/>
				<path class="st0" d="M125.1,100.4h-0.8l-17.9-19.7v12.8c0,4.7,0.4,5.7,4.1,5.7v0.9c-1.5,0-3-0.1-4.6-0.1c-1.5,0-3,0-4.6,0.1
					v-0.9c2.1,0,3.7,0,3.7-4.3V81c0-2.9-1.3-4-4.2-4v-0.9c1.1,0,2.1,0.1,3.2,0.1c0.9,0,1.9-0.1,2.8-0.1c1.4,2.1,4.6,5.2,8.5,9.5
					c2.9,3.2,6.1,6.6,8.5,9.2V81.2c0-3.2-0.7-4.1-4.1-4.2v-0.9c1.6,0,3.2,0.1,4.8,0.1c1.3,0,2.6-0.1,4-0.1V77
					c-2.1,0-3.2,0.2-3.2,3.5V100.4L125.1,100.4z"/>
				<path class="st0" d="M129.8,94.4h0.8c0.6,2.6,2.5,5.1,5.3,5.1c2.6,0,4.7-1.9,4.7-4.6c0-6.4-10.1-4.5-10.1-12.6
					c0-4.4,3.2-6.7,7.3-6.7c1.4,0,2.8,0.3,4.2,0.5l0.5,4.4h-0.8c-0.4-2.4-2-3.8-4.4-3.8c-2.6,0-4.1,1.9-4.1,4.4
					c0,6.4,10.6,4.6,10.6,12.5c0,4.5-4,7-8.1,7c-1.8,0-3.6-0.4-5.2-1.2L129.8,94.4L129.8,94.4z"/>
				<path class="st0" d="M163.1,93.2c0.5,1.3,1.4,4.2,2,5c0.5,0.7,1.5,0.9,2.6,0.9v0.9c-1.3,0-2.6-0.1-3.9-0.1c-1.7,0-3.3,0-5,0.1
					v-0.9h0.6c0.9,0,1.9-0.2,1.9-1.1c0-0.4-0.3-1.3-0.5-2l-1.7-5H151l-0.8,2.4c-0.4,1.4-0.9,3-0.9,4.1c0,1.6,1.1,1.5,2.3,1.6h0.8
					v0.9c-1.3,0-2.7-0.1-4-0.1c-1.4,0-2.8,0-4.2,0.1v-0.9c2.1-0.2,2.5-0.5,3.3-2.4c0.6-1.2,1-2.6,1.4-3.8l4.4-12.2
					c0.3-0.8,0.7-2.1,0.7-3.1c0-0.3,0-0.6-0.1-0.9c0.7-0.3,1.5-0.7,2-1.5h0.6L163.1,93.2L163.1,93.2z M151.4,89.7h7.1l-3.7-10.1
					h-0.1L151.4,89.7L151.4,89.7z"/>
				<path class="st0" d="M183.9,95.4c3.1-6.4,6.4-12.7,9.3-19.2c0.9,0,1.9,0.1,2.8,0.1c1,0,2-0.1,3-0.1V77c-1.2,0-2,0.1-2.4,0.4
					c-0.4,0.3-0.6,0.9-0.6,2.1c0,5.4,0.3,11.2,0.4,16.3c0.1,2.6,0.3,3.3,3.7,3.3v0.9c-1.9,0-3.8-0.1-5.7-0.1c-1.7,0-3.3,0-5,0.1
					v-0.9c1.2,0,2.1,0,2.6-0.3c0.6-0.3,0.9-1,0.9-2.3l-0.2-16.4h-0.1L184.5,97c-0.4,0.8-1.1,2.5-1.3,3.4h-0.7
					c-2.9-6.6-6.2-13-9.5-19.4H173l-0.3,12.4c0,0.4,0,1.7,0,2.2c0,1.7,0.2,2.6,0.7,3.1c0.5,0.5,1.4,0.6,2.8,0.6v0.9
					c-1.4,0-2.8-0.1-4.2-0.1c-1.5,0-3,0-4.6,0.1v-0.9c2.4,0,3.9-0.6,4.1-5.2c0.1-4.7,0.4-9.4,0.4-14.1c0-1.2-0.2-2-0.7-2.4
					c-0.5-0.4-1.2-0.6-2.4-0.6v-0.9c1.2,0,2.4,0.1,3.6,0.1c0.7,0,1.5-0.1,2.2-0.1L183.9,95.4L183.9,95.4z"/>
				<path class="st0" d="M208.6,87h4.5c2.8,0,2.8-2.2,2.9-2.9h0.7c-0.1,0.8-0.1,2.6-0.1,3.8c0,1.1,0.2,2.7,0.1,3.8H216
					c0-3.3-1.1-3.3-3.7-3.3h-3.7v5.8c0,3.8,0.1,4.8,3.5,4.8h2.1c3.4-0.2,4.9-0.6,6.2-4.3l0.8,0.1c-0.5,1.7-1.1,3.5-1.4,5.2
					c-3.4,0-6.8-0.1-10.3-0.1c-2.5,0-5.1,0-7.6,0.1v-0.9c3,0,3.3-0.6,3.3-3.9V80.1c0-2.8-0.6-2.9-3.3-3v-0.9
					c2.3,0.1,4.6,0.1,6.9,0.1c3.3,0,6.6,0,9.9-0.1v5.1l-0.7,0.2c-0.5-3.2-2.1-4.2-5.5-4.2h-4V87L208.6,87z"/>
				<path class="st0" d="M229.3,88.7v8c0,2.4,1.3,2.4,3.1,2.5v0.9c-1.6,0-3.1-0.1-4.6-0.1c-1.6,0-3.3,0-5,0.1v-0.9
					c1.7,0.1,3.1-0.3,3.1-2.3V79.5c0-2.4-1.3-2.4-3.1-2.5v-0.9c1.9,0,3.5,0.1,5.2,0.1c1.2,0,2.4-0.1,4.6-0.1c6.5,0,7.9,3.6,7.9,6.1
					c0,2.9-2.2,5.1-4.9,5.9c3.1,4.6,4.8,7.3,6.2,8.9c1.1,1.2,2.1,2.2,3.9,2.2v0.9c-0.9,0-1.7-0.1-2.6-0.1c-1,0-2,0-2.9,0.1
					c-3.1-3.4-5.4-7.4-7.9-11.3H229.3L229.3,88.7z M231.4,77.2c-0.9,0-1.4,0.1-2.1,0.2v10c0.5,0.1,1.2,0.2,1.8,0.2
					c4.2,0,5.9-2.8,5.9-5.2C237,79.4,235.4,77.2,231.4,77.2L231.4,77.2z"/>
				<path class="st0" d="M248.8,79.5c0-2.4-1.3-2.4-3.1-2.5v-0.9c1.6,0,3.2,0.1,4.7,0.1c1.6,0,3.2,0,4.9-0.1V77
					c-1.8,0-3.1,0.1-3.1,2.5v17.2c0,2.4,1.3,2.4,3.1,2.5v0.9c-1.6,0-3.1-0.1-4.6-0.1c-1.6,0-3.3,0-5,0.1v-0.9c1.8,0,3.1-0.1,3.1-2.5
					V79.5L248.8,79.5z"/>
				<path class="st0" d="M279,82.3h-0.9c-0.7-4-3.5-5.6-7.3-5.6c-3.9,0-9.7,2.6-9.7,10.9c0,6.9,4.9,11.9,10.2,11.9
					c3.4,0,6.2-2.3,6.9-5.9l0.8,0.2l-0.8,5c-1.4,0.9-5.3,1.8-7.6,1.8c-8,0-13.1-5.2-13.1-12.9c0-7,6.3-12.1,13-12.1
					c2.8,0,5.4,0.9,8.1,1.8L279,82.3L279,82.3z"/>
				<path class="st0" d="M298.1,93.2c0.5,1.3,1.4,4.2,2,5c0.5,0.7,1.5,0.9,2.6,0.9v0.9c-1.3,0-2.6-0.1-3.9-0.1c-1.7,0-3.3,0-5,0.1
					v-0.9h0.6c0.9,0,1.9-0.2,1.9-1.1c0-0.4-0.3-1.3-0.5-2l-1.7-5H286l-0.8,2.4c-0.4,1.4-0.9,3-0.9,4.1c0,1.6,1.1,1.5,2.3,1.6h0.8
					v0.9c-1.3,0-2.7-0.1-4-0.1c-1.4,0-2.8,0-4.2,0.1v-0.9c2.1-0.2,2.5-0.5,3.3-2.4c0.5-1.2,1-2.6,1.4-3.8l4.4-12.2
					c0.3-0.8,0.7-2.1,0.7-3.1c0-0.3,0-0.6-0.1-0.9c0.7-0.3,1.5-0.7,2-1.5h0.6L298.1,93.2L298.1,93.2z M286.5,89.7h7.1l-3.7-10.1
					h-0.1L286.5,89.7L286.5,89.7z"/>
			</g>
			<g>
				<path class="st1" d="M28.3,98.1H14.6v-2.6h13.3l-0.3-2h-13v-2.6h12.7l-0.3-2H14.6v-2.6h12l-0.3-2H14.6v-2.6H26l-0.3-2H14.6v-2.6
					h10.8l-0.3-2H14.6v-2.6h10.1l-0.3-2h-9.8V68H24l-0.3-2h-9.1v-2.6h8.8l-0.3-2h-8.5v-2.6h8.1l-0.3-2h-4.7l1.4-25.7h-3.4l0.1,2.6
					h-1.3V0l-4.5,31.1H7l0.9,15.4L0,100.1h13.8h0.8h14L28.3,98.1z M14.6,35.7H16l0.1,2.6h-1.6V35.7z M14.6,40.3h1.7l0.1,2.5h-1.8
					V40.3z M14.6,44.9h1.9l0.2,2.7h-2.1V44.9z M14.6,49.6h2.2l0.1,2.6h-2.3V49.6z M14.6,54.2H17l0.1,2.6h-2.6V54.2z"/>
				<polygon class="st1" points="21.7,52 19.9,52 19.8,54 22,54 				"/>
				<polygon class="st1" points="21.2,47.4 20.2,47.4 20.1,49.4 21.4,49.4 				"/>
			</g>
			<g>
				<path class="st2" d="M297.3,78.9c0,2.1,1.7,3.7,3.7,3.7c2.1,0,3.7-1.7,3.7-3.7c0-2-1.7-3.7-3.7-3.7
					C298.9,75.2,297.3,76.9,297.3,78.9 M297.9,78.9c0-1.7,1.4-3.1,3.1-3.1c1.7,0,3.1,1.4,3.1,3.1c0,1.7-1.4,3.1-3.1,3.1
					C299.3,82.1,297.9,80.7,297.9,78.9"/>
				<path class="st2" d="M300.1,77.5h1.2c0.2,0,0.3,0,0.4,0.1c0.2,0.1,0.3,0.3,0.3,0.5c0,0.2-0.1,0.4-0.2,0.5
					c-0.1,0.1-0.3,0.1-0.5,0.1h-1.1V77.5z M300.1,80.7v-1.5h1.1c0.2,0,0.3,0,0.4,0.1c0.2,0.1,0.2,0.2,0.3,0.5l0,0.6
					c0,0.1,0,0.2,0,0.3c0,0,0,0.1,0,0.1h0.6v-0.1c-0.1,0-0.1-0.1-0.2-0.2c0-0.1,0-0.2,0-0.3l0-0.5c0-0.2-0.1-0.4-0.1-0.5
					c-0.1-0.1-0.2-0.2-0.3-0.2c0.2-0.1,0.3-0.2,0.4-0.3c0.1-0.1,0.1-0.3,0.1-0.5c0-0.4-0.2-0.7-0.5-0.8c-0.2-0.1-0.4-0.1-0.7-0.1
					h-1.7v3.6H300.1z"/>
			</g>
		</g>
		<g>
			<g>
				<g>
					<path class="st2" d="M41.5,109.1h7.1c2.3,0,3.1,1.6,3.1,3c0,1.4-0.7,2.4-1.9,2.8v0c1,0.1,1.6,1.1,1.7,2.4
						c0.1,2.1,0.2,2.7,0.5,3.1h-1.8c-0.3-0.3-0.3-0.8-0.4-2.2c-0.1-2-0.8-2.7-2.2-2.7h-4.4v4.8h-1.7V109.1z M48,114.2
						c1.7,0,2.1-1,2.1-1.8c0-1.1-0.7-1.8-2-1.8h-4.8v3.6H48z"/>
					<path class="st2" d="M54.9,116.9c0.1,1.7,1.7,2.7,3.1,2.7c0.9,0,2.2-0.3,2.7-1.5h1.7c-0.8,2-2.7,2.8-4.3,2.8
						c-3.3,0-4.9-2.1-4.9-4.5c0-2.4,1.6-4.5,4.9-4.5c2.2,0,4.5,1.3,4.5,4.8v0.2H54.9z M60.9,115.6c-0.2-1.5-1.4-2.4-2.9-2.4
						c-1.5,0-2.8,0.9-3,2.4H60.9z"/>
					<path class="st2" d="M64.8,109.6h1.6v2.6h2.4v1.2h-2.4v5.2c0,0.7,0.5,0.9,1.3,0.9c0.4,0,0.7,0,1.1-0.1v1.3
						c-0.5,0.1-1.1,0.1-1.8,0.1c-1.6,0-2.2-0.8-2.2-2v-5.4H63v-1.2h1.7V109.6z"/>
					<path class="st2" d="M70.8,109h1.6v1.8h-1.6V109z M70.8,112.2h1.6v8.4h-1.6V112.2z"/>
					<path class="st2" d="M74.8,112.2h1.6v1.5h0c0.8-1.3,1.8-1.8,2.9-1.8c0.4,0,0.6,0,0.9,0.1v1.7c-0.4-0.1-0.7-0.2-1.1-0.2
						c-1.6,0-2.7,0.9-2.7,2.8v4.3h-1.6V112.2z"/>
					<path class="st2" d="M82.5,116.9c0.1,1.7,1.7,2.7,3.1,2.7c0.9,0,2.2-0.3,2.7-1.5H90c-0.8,2-2.7,2.8-4.3,2.8
						c-3.3,0-4.9-2.1-4.9-4.5c0-2.4,1.6-4.5,4.9-4.5c2.2,0,4.5,1.3,4.5,4.8v0.2H82.5z M88.6,115.6c-0.2-1.5-1.4-2.4-2.9-2.4
						c-1.5,0-2.8,0.9-3,2.4H88.6z"/>
					<path class="st2" d="M104.5,115.2c0-1.5-1-2-2-2c-1.5,0-2.8,0.7-2.8,2.3v5.1h-1.6v-5.3c0-1.5-1-2-2-2c-1.5,0-2.8,0.8-2.8,2.5
						v4.8h-1.6v-8.4h1.6v1.3h0c0.8-1.2,2.1-1.6,3.3-1.6c1.1,0,2.2,0.4,2.8,1.6c0.8-1,1.8-1.6,3.4-1.6c0.8,0,3.2,0.4,3.2,3v5.7h-1.6
						V115.2z"/>
					<path class="st2" d="M109.5,116.9c0.1,1.7,1.7,2.7,3.1,2.7c0.9,0,2.2-0.3,2.7-1.5h1.7c-0.8,2-2.7,2.8-4.3,2.8
						c-3.3,0-4.9-2.1-4.9-4.5c0-2.4,1.6-4.5,4.9-4.5c2.2,0,4.5,1.3,4.5,4.8v0.2H109.5z M115.5,115.6c-0.2-1.5-1.4-2.4-2.9-2.4
						c-1.5,0-2.8,0.9-3,2.4H115.5z"/>
					<path class="st2" d="M119,112.2h1.6v1.3h0c0.8-1.2,2.1-1.6,3.3-1.6c2,0,3.5,0.9,3.5,3v5.7h-1.6v-5.4c0-1.2-0.8-1.9-2.5-1.9
						c-1.5,0-2.8,0.8-2.8,2.5v4.8H119V112.2z"/>
					<path class="st2" d="M130.3,109.6h1.6v2.6h2.4v1.2h-2.4v5.2c0,0.7,0.5,0.9,1.3,0.9c0.4,0,0.7,0,1.1-0.1v1.3
						c-0.5,0.1-1.1,0.1-1.8,0.1c-1.6,0-2.2-0.8-2.2-2v-5.4h-1.7v-1.2h1.7V109.6z"/>
					<path class="st2" d="M142.2,116.8c0,2,2,2.6,3.7,2.6c1.8,0,3.1-0.7,3.1-1.9c0-1-0.8-1.5-2.1-1.7l-2.6-0.4
						c-1.4-0.2-3.4-0.8-3.4-3c0-2.1,1.6-3.5,4.6-3.5c2.3,0,4.7,0.8,4.9,3.6h-1.7c-0.1-0.9-0.7-2.1-3.4-2.1c-1.2,0-2.7,0.5-2.7,1.9
						c0,0.7,0.5,1.3,1.9,1.5l2.8,0.5c0.9,0.2,3.4,0.6,3.4,2.9c0,2.9-2.6,3.7-4.9,3.7c-2.6,0-5.3-0.9-5.3-4H142.2z"/>
					<path class="st2" d="M156.6,111.9c3.3,0,4.9,2.1,4.9,4.5c0,2.4-1.6,4.5-4.9,4.5c-3.3,0-4.9-2.1-4.9-4.5
						C151.7,114,153.3,111.9,156.6,111.9z M156.6,113.2c-2.3,0-3.2,1.6-3.2,3.1c0,1.5,0.8,3.1,3.2,3.1c2.3,0,3.2-1.6,3.2-3.1
						C159.7,114.9,158.9,113.2,156.6,113.2z"/>
					<path class="st2" d="M163.2,109h1.6v11.5h-1.6V109z"/>
					<path class="st2" d="M175.4,120.6h-1.6v-1.3h0c-0.8,1.2-2.1,1.6-3.3,1.6c-2,0-3.5-0.9-3.5-3v-5.7h1.6v5.4
						c0,1.2,0.8,1.9,2.5,1.9c1.5,0,2.8-0.8,2.8-2.5v-4.8h1.6V120.6z"/>
					<path class="st2" d="M178.2,109.6h1.6v2.6h2.4v1.2h-2.4v5.2c0,0.7,0.5,0.9,1.3,0.9c0.4,0,0.7,0,1.1-0.1v1.3
						c-0.5,0.1-1.1,0.1-1.8,0.1c-1.6,0-2.2-0.8-2.2-2v-5.4h-1.7v-1.2h1.7V109.6z"/>
					<path class="st2" d="M183.6,109h1.6v1.8h-1.6V109z M183.6,112.2h1.6v8.4h-1.6V112.2z"/>
					<path class="st2" d="M191.8,111.9c3.3,0,4.9,2.1,4.9,4.5c0,2.4-1.6,4.5-4.9,4.5c-3.3,0-4.9-2.1-4.9-4.5
						C186.9,114,188.5,111.9,191.8,111.9z M191.8,113.2c-2.3,0-3.2,1.6-3.2,3.1c0,1.5,0.8,3.1,3.2,3.1c2.3,0,3.2-1.6,3.2-3.1
						C195,114.9,194.1,113.2,191.8,113.2z"/>
					<path class="st2" d="M198.4,112.2h1.6v1.3h0c0.8-1.2,2.1-1.6,3.3-1.6c2,0,3.5,0.9,3.5,3v5.7h-1.6v-5.4c0-1.2-0.8-1.9-2.5-1.9
						c-1.5,0-2.8,0.8-2.8,2.5v4.8h-1.6V112.2z"/>
					<path class="st2" d="M210.1,117.9c0,0.8,0.6,1.7,2.6,1.7c2.1,0,2.6-0.7,2.6-1.3c0-0.6-0.3-0.9-1.6-1.1l-2.6-0.4
						c-1.2-0.2-2.3-0.9-2.3-2.2c0-1.7,1.5-2.7,3.8-2.7c2.8,0,4,1.2,4.1,2.8h-1.6c0-0.8-0.8-1.6-2.5-1.6c-1,0-2.2,0.3-2.2,1.3
						c0,0.6,0.3,0.9,1.4,1l2.3,0.3c2.1,0.3,2.9,1,2.9,2.2c0,2-1.6,2.9-4.2,2.9c-1.9,0-4.1-0.5-4.3-2.9H210.1z"/>
				</g>
			</g>
		</g>
	</g>
</g>
</svg>
