<?xml version="1.0" encoding="utf-8"?>
<!-- Generator: Adobe Illustrator 20.0.0, SVG Export Plug-In . SVG Version: 6.00 Build 0)  -->
<svg version="1.1" id="Layer_3" xmlns="http://www.w3.org/2000/svg" xmlns:xlink="http://www.w3.org/1999/xlink" x="0px" y="0px"
	 viewBox="0 0 564 246.6" style="enable-background:new 0 0 564 246.6;" xml:space="preserve">
<style type="text/css">
	.st0{fill:none;}
	.st1{fill:#F7941D;}
</style>
<g>
	<g>
		<rect y="0" class="st0" width="564" height="246.6"/>
		<path class="st1" d="M351.1,194.2v-19.9h13.6v3.1h-10.1v5.1h9.9v3.1h-9.9v8.6H351.1z M370.1,194.2v-19.9h3.5v19.9H370.1z
			 M393.8,194.2L383.4,180v14.2h-3.5v-19.9h3.6l10.2,13.8v-13.8h3.5v19.9H393.8z M416.9,194.2l-1.5-3.8h-9.1l-1.5,3.8h-4l7.8-19.9
			h4.4l7.8,19.9H416.9z M410.9,177.8l-3.6,9.5h7.2L410.9,177.8z M438.5,194.2L428.2,180v14.2h-3.5v-19.9h3.6l10.2,13.8v-13.8h3.5
			v19.9H438.5z M446.3,184.3c0-6.1,4.6-10.3,10.4-10.3c4,0,6.5,2.1,8,4.4l-3,1.5c-1-1.7-2.9-2.9-5-2.9c-3.9,0-6.9,3-6.9,7.2
			c0,4.1,2.9,7.2,6.9,7.2c2.1,0,4.1-1.3,5-2.9l3,1.5c-1.5,2.4-4,4.5-8,4.5C450.9,194.6,446.3,190.4,446.3,184.3z M469.5,194.2v-19.9
			h3.5v19.9H469.5z M492.7,194.2l-1.5-3.8h-9.1l-1.5,3.8h-4l7.8-19.9h4.4l7.8,19.9H492.7z M486.7,177.8l-3.6,9.5h7.2L486.7,177.8z
			 M500.5,194.2v-19.9h3.5v16.8h8.8v3.1H500.5z M219.4,51.3c-28.9,0-52.3,23.4-52.3,52.3c0,28.9,23.4,52.3,52.3,52.3
			c28.9,0,52.3-23.4,52.3-52.3C271.7,74.7,248.3,51.3,219.4,51.3z M219.4,138.2c-19.1,0-33.8-15.5-33.8-34.6
			c0-19.1,14.6-34.6,33.8-34.6c19.1,0,33.8,15.5,33.8,34.6C253.2,122.7,238.5,138.2,219.4,138.2z M166.5,53.6
			c-4.8-2.3-19.1-3.2-23.7,7.1c-3.5,7.9-24.5,55-34,76.2C99.5,116,78.7,69.2,75,60.8c-4.5-10.2-18.8-9.4-23.7-7.1L92.6,146
			c2.6,5.6,7.9,9,16.2,9c0.2,0,12.2,0,12.2,0L166.5,53.6z M364,60.8c-2.4,5.5-19,42.4-34.1,76c-9.4-21-30-67.4-33.8-76.1
			c-4.7-10.5-18.8-9.4-23.7-7.1l41.3,92.4c1.7,3.6,4.6,6.3,8.6,7.8c-10.1,22.4-18,40.1-18,40.1c4.9,2.2,18.9,3.2,23.6-7.1
			l59.7-133.1C382.7,51.4,368.6,50.5,364,60.8z M440.4,52.4c0,0-12.1,0-12.3,0c-8,0-13.5,3.2-16.2,9l-41.5,92.1
			c4.8,2.2,19,3.3,23.7-7.1c4.6-10.4,8.5-19,8.5-19l32.9,0c6.4,0,8.5,1.5,8.5,1.5l-3.8-8.2c-2.9-6.5-7.4-8.1-13.2-8.1h-17.8
			c0,0,12-26.8,18.9-42.3c9.5,21.4,31.3,70.3,34,76.3c4.6,10.3,18.8,9.4,23.7,7.1L440.4,52.4z"/>
	</g>
	<g>
		<g>
			<rect x="0" class="st0" width="564" height="246.6"/>
		</g>
		<g>
			<path class="st1" d="M501.4,154.9c-4.2,0-7.6-3.4-7.6-7.6c0-4.2,3.4-7.6,7.6-7.6c4.2,0,7.6,3.4,7.6,7.6
				C509,151.5,505.6,154.9,501.4,154.9z M501.4,140.6c-3.7,0-6.6,2.9-6.6,6.6c0,3.6,3,6.6,6.6,6.6c3.7,0,6.6-3,6.6-6.6
				C508,143.6,505,140.6,501.4,140.6z M503.5,151.7l-2.3-3.4h-1.6v3.4h-1.1v-8.7h3.6c1.5,0,2.7,1,2.7,2.7c0,1.9-1.7,2.6-2.2,2.6
				l2.3,3.5H503.5z M502.1,144h-2.5v3.2h2.5c0.8,0,1.6-0.7,1.6-1.6C503.6,144.6,502.8,144,502.1,144z"/>
		</g>
	</g>
</g>
</svg>
