<?xml version="1.0" encoding="utf-8"?>
<!-- Generator: Adobe Illustrator 20.0.0, SVG Export Plug-In . SVG Version: 6.00 Build 0)  -->
<svg version="1.1" id="Layer_1" xmlns="http://www.w3.org/2000/svg" xmlns:xlink="http://www.w3.org/1999/xlink" x="0px" y="0px"
	 viewBox="0 0 215 48.8" style="enable-background:new 0 0 215 48.8;" xml:space="preserve">
<style type="text/css">
	.st0{fill:#FFFFFF;}
</style>
<g>
	<g>
		<g>
			<path class="st0" d="M61.7,26.7V0.1l18.2,19V1.8h3.8v26.4l-18.2-19v17.4H61.7z"/>
			<path class="st0" d="M100.7,5.3h-10v6h9.7v3.5h-9.7v8.3h10v3.5H87V1.8h13.8V5.3z"/>
			<path class="st0" d="M106.9,1.8l6.5,16.7l6.8-17.9l6.5,17.9l6.9-16.7h4.1l-11.1,26.5l-6.4-17.7l-6.7,17.7L102.8,1.8H106.9z"/>
			<path class="st0" d="M143.8,16.6v10.1h-3.8V1.8h4.3c2.1,0,3.7,0.1,4.7,0.4c1.1,0.3,2,0.8,2.8,1.6c1.4,1.4,2.1,3.2,2.1,5.3
				c0,2.3-0.8,4.1-2.3,5.4c-1.5,1.3-3.6,2-6.2,2H143.8z M143.8,13.1h1.4c3.5,0,5.2-1.3,5.2-4c0-2.6-1.8-3.9-5.3-3.9h-1.2V13.1z"/>
			<path class="st0" d="M155.7,14.1c0-3.5,1.3-6.5,3.9-9c2.6-2.5,5.6-3.8,9.2-3.8c3.6,0,6.6,1.3,9.1,3.8c2.6,2.5,3.8,5.6,3.8,9.2
				c0,3.6-1.3,6.6-3.8,9.1c-2.6,2.5-5.7,3.8-9.3,3.8c-3.2,0-6.1-1.1-8.7-3.3C157.1,21.3,155.7,18.1,155.7,14.1z M159.5,14.2
				c0,2.8,0.9,5,2.8,6.8c1.8,1.8,4,2.7,6.4,2.7c2.6,0,4.8-0.9,6.6-2.7c1.8-1.8,2.7-4.1,2.7-6.7c0-2.7-0.9-4.9-2.7-6.7
				c-1.8-1.8-3.9-2.7-6.6-2.7c-2.6,0-4.8,0.9-6.6,2.7C160.4,9.3,159.5,11.5,159.5,14.2z"/>
			<path class="st0" d="M192.6,16.1l7.7,10.6h-4.6l-7.1-10.2h-0.7v10.2h-3.8V1.8h4.4c3.3,0,5.7,0.6,7.1,1.9c1.6,1.4,2.4,3.2,2.4,5.5
				c0,1.8-0.5,3.3-1.5,4.6C195.6,14.9,194.3,15.7,192.6,16.1z M187.9,13.2h1.2c3.6,0,5.3-1.4,5.3-4.1c0-2.6-1.7-3.8-5.2-3.8h-1.3
				V13.2z"/>
			<path class="st0" d="M209.3,5.3v21.4h-3.8V5.3h-5.7V1.8H215v3.5H209.3z"/>
		</g>
		<g>
			<path class="st0" d="M71.1,39.8H78v0.5c0,1.3-0.1,2.4-0.4,3.3c-0.3,0.9-0.8,1.7-1.5,2.5c-1.5,1.7-3.5,2.6-5.9,2.6
				c-2.3,0-4.3-0.8-6-2.5c-1.7-1.7-2.5-3.7-2.5-6.1c0-2.4,0.8-4.5,2.5-6.1c1.7-1.7,3.7-2.5,6.2-2.5c1.3,0,2.5,0.3,3.6,0.8
				c1.1,0.5,2.1,1.4,3.2,2.6l-1.8,1.7c-1.4-1.8-3-2.7-5-2.7c-1.8,0-3.2,0.6-4.4,1.8c-1.2,1.2-1.8,2.7-1.8,4.5c0,1.9,0.7,3.4,2,4.6
				c1.2,1.1,2.6,1.7,4,1.7c1.2,0,2.3-0.4,3.3-1.2c1-0.8,1.5-1.8,1.6-3h-4.1V39.8z"/>
			<path class="st0" d="M85.9,41.4l5.2,7.1H88l-4.8-6.8h-0.5v6.8h-2.5V31.9h2.9c2.2,0,3.8,0.4,4.8,1.2c1.1,0.9,1.6,2.1,1.6,3.6
				c0,1.2-0.3,2.2-1,3C87.9,40.6,87,41.2,85.9,41.4z M82.8,39.5h0.8c2.4,0,3.6-0.9,3.6-2.7c0-1.7-1.2-2.6-3.5-2.6h-0.9V39.5z"/>
			<path class="st0" d="M91.2,40.1c0-2.3,0.9-4.4,2.6-6c1.7-1.7,3.8-2.5,6.2-2.5c2.4,0,4.4,0.8,6.1,2.5c1.7,1.7,2.6,3.7,2.6,6.1
				c0,2.4-0.9,4.4-2.6,6.1c-1.7,1.7-3.8,2.5-6.2,2.5c-2.1,0-4.1-0.7-5.8-2.2C92.2,44.9,91.2,42.8,91.2,40.1z M93.7,40.1
				c0,1.8,0.6,3.3,1.9,4.5c1.2,1.2,2.6,1.8,4.3,1.8c1.7,0,3.2-0.6,4.4-1.8c1.2-1.2,1.8-2.7,1.8-4.5c0-1.8-0.6-3.3-1.8-4.5
				c-1.2-1.2-2.6-1.8-4.4-1.8c-1.7,0-3.2,0.6-4.4,1.8C94.3,36.9,93.7,38.4,93.7,40.1z"/>
			<path class="st0" d="M113.2,31.9v10c0,1.4,0.2,2.5,0.7,3.1c0.7,1,1.7,1.4,2.9,1.4c1.3,0,2.3-0.5,3-1.4c0.5-0.6,0.7-1.7,0.7-3.1
				v-10h2.5v10.7c0,1.8-0.5,3.2-1.6,4.3c-1.2,1.3-2.7,1.9-4.5,1.9c-1.8,0-3.3-0.6-4.5-1.9c-1.1-1.1-1.6-2.6-1.6-4.3V31.9H113.2z"/>
			<path class="st0" d="M127.8,41.8v6.8h-2.5V31.9h2.8c1.4,0,2.4,0.1,3.2,0.3c0.7,0.2,1.4,0.6,1.9,1.1c1,0.9,1.4,2.1,1.4,3.5
				c0,1.5-0.5,2.7-1.5,3.6c-1,0.9-2.4,1.3-4.1,1.3H127.8z M127.8,39.4h0.9c2.3,0,3.5-0.9,3.5-2.7c0-1.7-1.2-2.6-3.6-2.6h-0.8V39.4z"
				/>
			<path class="st0" d="M137.1,32.9v2.9h-0.5v-2.9h-0.8v-0.5h2.1v0.5H137.1z"/>
			<path class="st0" d="M138.2,35.8l0.7-3.6l1.2,2.6l1.2-2.6l0.6,3.6h-0.5l-0.3-2l-1,2.2l-1-2.2l-0.4,2.1H138.2z"/>
		</g>
		<g>
			<polygon class="st0" points="30.7,48.8 48.8,48.8 0,0 0,48.8 12,48.8 12,30.2 			"/>
			<polygon class="st0" points="48.3,43 48.3,0.2 36.5,0.2 36.5,16.6 22,0.2 5.5,0.2 			"/>
		</g>
	</g>
</g>
</svg>
