<?xml version="1.0" encoding="utf-8"?>
<!-- Generator: Adobe Illustrator 20.0.0, SVG Export Plug-In . SVG Version: 6.00 Build 0)  -->
<svg version="1.1" id="Layer_1" xmlns="http://www.w3.org/2000/svg" xmlns:xlink="http://www.w3.org/1999/xlink" x="0px" y="0px"
	 viewBox="0 0 612 212.6" style="enable-background:new 0 0 612 212.6;" xml:space="preserve">
<style type="text/css">
	.st0{fill:#FFFFFF;}
	.st1{display:none;}
	.st2{display:inline;fill:#D2B12B;}
	.st3{display:inline;}
	.st4{display:inline;fill:#799B3E;}
	.st5{display:inline;fill:#005978;}
	.st6{fill:#D2B12B;}
	.st7{fill:#799B3E;}
	.st8{fill:#005978;}
</style>
<g>
	<path class="st0" d="M167.7,148.2h23.9V81.4c0-6.2-1.1-11.4-3.2-15.7c-2.2-4.3-5.2-7.8-9-10.4c-3.8-2.6-8.4-4.4-13.7-5.5
		c-5.2-1.1-11-1.6-17.2-1.6c-7.6,0-14.4,1.1-20.1,3.2c-5.9,2.2-10.9,6-14.9,11.5l-1.2,1.6l19,13.9l1.2-1.8c1.6-2.4,3.5-4,5.9-4.9
		c2.5-1,6.2-1.5,11.2-1.5c6.8,0,11.6,0.8,14.5,2.4c2.5,1.4,3.8,4,3.8,7.7v7.9h-25.5c-5.5,0-10.5,0.8-14.7,2.4
		c-4.3,1.6-7.9,3.8-10.7,6.5c-2.9,2.7-5.1,6-6.5,9.7c-1.5,3.7-2.2,7.5-2.2,11.5c0,4.4,0.8,8.5,2.5,12.3c1.7,3.8,4.2,7.2,7.4,9.9
		c3.2,2.7,7.1,4.9,11.7,6.5c4.5,1.6,9.7,2.4,15.4,2.4c7.1,0,12.5-0.8,16.5-2.5c2.4-1,4.5-2.3,6.2-4V148.2z M147.5,127.3
		c-6.2,0-10.7-1-13.1-3.1c-2.4-2-3.6-4.2-3.6-6.9c0-2.8,1.1-5,3.4-6.7c2.4-1.8,6.4-2.7,11.8-2.7h21.8v4.9c0,3.5-0.4,6.2-1.1,8.2
		c-0.6,1.8-1.6,3-3,3.9c-1.5,0.9-3.5,1.6-6,1.8C155,127.1,151.6,127.3,147.5,127.3z"/>
	<path class="st0" d="M285.5,131.4c2.2-3.9,3.4-8.4,3.4-13.4c0-3.9-0.6-7.7-1.7-11.2c-1.1-3.6-3-6.8-5.5-9.6c-2.5-2.8-5.8-5-9.7-6.7
		c-3.8-1.6-8.5-2.7-13.7-3.1L242,86.5c-5.5-0.4-8-1.7-9-2.6c-1.5-1.4-2.2-2.8-2.2-4.3c0-2.7,1-4.8,3-6.6c2-1.8,6.2-2.8,11.9-2.8
		c5.2,0,9.8,0.8,13.7,2.3c4,1.6,7.9,3.6,11.7,6.2l1.5,1l14.9-16.8l-1.7-1.3c-5.1-4.1-10.8-7.4-17.1-9.8c-6.3-2.4-14-3.6-22.9-3.6
		c-5.3,0-10.4,0.7-15.1,1.9c-4.7,1.3-8.9,3.3-12.4,5.8c-3.6,2.6-6.4,5.9-8.4,9.8c-2,3.9-3.1,8.5-3.1,13.7c0,8.8,3,15.8,8.8,20.7
		c5.7,4.8,12.9,7.6,21.5,8.2l17.6,1.5c3.1,0.2,5.7,0.9,7.7,2.1c1.1,0.6,2.5,1.8,2.5,5.2c0,3.3-1.4,5.6-4.4,7.3
		c-3.3,1.9-7.7,2.8-13,2.8c-6.3,0-11.9-1-16.6-2.9c-4.7-2-9.2-4.9-13.2-8.7l-1.4-1.3l-16.8,15.9l1.6,1.5
		c6.5,5.9,13.6,10.3,21.1,13.2c7.5,2.9,15.5,4.3,23.7,4.3c5.9,0,11.5-0.7,16.6-2c5.2-1.4,9.8-3.4,13.7-6
		C280.2,138.6,283.3,135.3,285.5,131.4z"/>
	<path class="st0" d="M382.5,74c-0.6-2.9-1.4-5.2-2.4-7.1c-0.9-1.8-2.1-3.7-3.5-5.6c-3-3.8-6.9-7-11.5-9.4
		c-4.6-2.5-10.2-3.7-16.6-3.7c-5.3,0-10.4,1.1-15.1,3.3c-3.1,1.4-5.9,3.2-8.4,5.2v-7.4H301v129.2H325v-38c2.9,2.2,5.8,4.1,8.9,5.6
		c4.4,2.2,9.3,3.3,14.7,3.3c6.4,0,12-1.2,16.6-3.7c4.6-2.4,8.4-5.6,11.5-9.4c1.4-1.7,2.6-3.6,3.5-5.5c1-1.9,1.8-4.4,2.4-7.2
		c0.6-2.8,1-6.2,1.2-10.1c0.2-3.8,0.3-8.7,0.3-14.6c0-5.9-0.1-10.8-0.3-14.7C383.5,80.1,383.1,76.7,382.5,74z M360.1,98.8
		c0,3.5-0.2,7.1-0.5,10.6c-0.3,3.3-1,6.3-2.2,8.8c-1.1,2.4-2.7,4.3-5.1,5.8c-2.3,1.5-5.7,2.2-9.9,2.2c-4.2,0-7.5-0.8-9.8-2.4
		c-2.3-1.6-4-3.6-5-6.1c-1.1-2.6-1.9-5.6-2.2-8.8c-0.3-3.4-0.5-6.8-0.5-10.1c0-3.4,0.2-6.9,0.5-10.3c0.3-3.3,1-6.2,2.2-8.8
		c1.1-2.4,2.8-4.5,5.1-6.1c2.2-1.6,5.5-2.4,9.8-2.4c4.3,0,7.6,0.7,9.9,2.2c2.3,1.5,4,3.4,5.1,5.8c1.1,2.6,1.9,5.6,2.2,8.8
		C359.9,91.6,360.1,95.1,360.1,98.8z"/>
	<rect x="400.8" y="49.2" class="st0" width="23.9" height="98.9"/>
	<rect x="400.8" y="10.9" class="st0" width="23.9" height="23.1"/>
	<path class="st0" d="M516.7,57.1l-1.7-1.3c-3.1-2.3-6.5-4.2-10-5.6c-3.6-1.4-7.6-2.1-11.8-2.1c-5.6,0-10.7,1-15.3,3
		c-3.2,1.4-6.2,3.3-8.8,5.6v-7.5h-23.9v98.9H469V89.1c0-3.2,0.5-5.9,1.5-8.2c1-2.2,2.3-4.1,3.9-5.5c1.6-1.4,3.4-2.5,5.4-3.1
		c4.2-1.4,9.3-1.3,12.5-0.1c1.7,0.6,3.7,1.8,5.8,3.4l1.5,1.1L516.7,57.1z"/>
	<path class="st0" d="M592.6,72.8c-2.3-5.2-5.5-9.6-9.3-13.3c-3.9-3.7-8.5-6.5-13.6-8.5c-9.7-3.7-20.7-4-31.4-0.4
		c-5.1,1.7-9.7,4.6-13.8,8.6c-4.1,4-7.5,9.3-10,15.8c-2.6,6.5-3.8,14.5-3.8,23.9c0,10,1.4,18.3,4.2,24.8c2.8,6.5,6.4,11.7,10.9,15.5
		c4.4,3.8,9.5,6.5,14.9,7.9c5.3,1.4,10.7,2.1,15.9,2.1c6.9,0,13.5-1.2,19.8-3.7c6.4-2.5,12.2-6.6,17.3-12.3l1.4-1.6l-17.5-14.3
		l-1.3,1.2c-2.8,2.7-6,4.8-9.6,6.3c-3.6,1.5-7.1,2.3-10.6,2.3c-6.4,0-11.6-1.8-15.6-5.3c-3.6-3.1-5.5-7.8-5.9-14h61.5V90.2
		C596.1,83.8,594.9,78,592.6,72.8z M572,88.2h-37.4c0.5-5.6,2.4-10,5.5-13c3.5-3.4,7.9-5,13.2-5c5.3,0,9.7,1.7,13.2,5
		C569.7,78.2,571.5,82.5,572,88.2z"/>
	<path class="st0" d="M159.5,200.4c-0.6-0.7-1.3-1.3-2.2-1.7c-0.9-0.5-1.9-0.8-3.2-0.9c-0.6-0.1-1.2-0.1-1.7-0.2
		c-0.5-0.1-0.9-0.1-1.2-0.2c-1.3-0.2-2.3-0.6-2.8-1.3c-0.6-0.6-0.9-1.3-0.9-2.1c0-1.2,0.4-2.2,1.3-2.8c0.8-0.6,1.9-0.9,3.1-0.9
		c1.2,0,2.3,0.2,3.4,0.5c1.1,0.4,2.1,0.9,3.1,1.5l2.2-3.3c-1.2-0.8-2.5-1.4-3.9-1.9c-1.4-0.5-2.9-0.8-4.5-0.8
		c-1.3,0-2.5,0.2-3.6,0.6c-1,0.4-1.9,0.9-2.7,1.6c-0.7,0.7-1.3,1.5-1.7,2.4c-0.4,0.9-0.6,1.9-0.6,3.1c0,1.9,0.6,3.5,1.8,4.8
		c1.2,1.3,2.9,2.1,5.2,2.5c0.7,0.1,1.3,0.2,1.8,0.3c0.5,0.1,1.1,0.1,1.6,0.2c1.2,0.1,2,0.5,2.6,1.2c0.5,0.6,0.8,1.4,0.8,2.3
		c0,1.1-0.5,2-1.4,2.6c-0.9,0.7-2.2,1-3.8,1c-1.4,0-2.7-0.2-4-0.7c-1.3-0.5-2.4-1.1-3.4-1.9l-2.6,3c1.4,1.2,2.9,2.1,4.6,2.7
		c1.7,0.6,3.4,0.9,5.4,0.9c2.8,0,5-0.7,6.7-2c1.6-1.3,2.5-3.2,2.5-5.6c0-0.9-0.1-1.7-0.4-2.6C160.5,201.9,160.1,201.1,159.5,200.4z"
		/>
	<path class="st0" d="M190.3,195.5c-0.6-0.5-1.2-0.9-2-1.2c-0.7-0.3-1.5-0.4-2.2-0.4c-1.3,0-2.4,0.2-3.3,0.6c-0.9,0.4-1.8,1-2.6,1.8
		c-0.7-0.7-1.4-1.3-2.1-1.7c-0.8-0.5-1.8-0.7-3.1-0.7c-1,0-1.9,0.2-2.7,0.5c-0.8,0.4-1.5,0.9-2.1,1.6h-0.1v-2h-3.7v18.5h3.7v-11
		c0-1.3,0.3-2.2,1-2.9c0.7-0.7,1.6-1,2.7-1c1,0,1.9,0.3,2.6,1c0.7,0.7,1,1.7,1,2.9v11h3.7v-11c0-1.3,0.3-2.2,1-2.9
		c0.7-0.7,1.6-1,2.7-1c1,0,1.9,0.3,2.6,1c0.7,0.7,1,1.7,1,2.9v11h3.7v-12.3c0-1-0.2-2-0.6-2.8C191.4,196.7,190.9,196.1,190.3,195.5z
		"/>
	<path class="st0" d="M209.9,195.2c-0.7-0.5-1.5-0.8-2.4-1c-0.9-0.2-2-0.3-3.1-0.3c-1.4,0-2.6,0.2-3.6,0.6c-1,0.4-1.9,1.1-2.6,2.1
		l2.9,2.2c0.3-0.5,0.8-0.9,1.3-1.1c0.5-0.2,1.3-0.3,2.2-0.3c1.3,0,2.3,0.2,2.9,0.5c0.6,0.4,0.9,1,0.9,1.8v1.9h-5.2
		c-1,0-1.9,0.1-2.6,0.4c-0.8,0.3-1.4,0.7-1.9,1.2c-0.5,0.5-0.9,1.1-1.1,1.8c-0.3,0.7-0.4,1.4-0.4,2.1c0,0.8,0.1,1.6,0.4,2.2
		c0.3,0.7,0.7,1.3,1.3,1.8c0.6,0.5,1.2,0.9,2.1,1.2c0.8,0.3,1.7,0.4,2.8,0.4c1.3,0,2.2-0.2,2.9-0.5c0.7-0.3,1.2-0.8,1.6-1.4h0.1v1.6
		h3.7V200c0-1.1-0.2-2.1-0.6-2.9C211.1,196.3,210.5,195.7,209.9,195.2z M208.3,206.1c0,0.7-0.1,1.3-0.2,1.7c-0.1,0.4-0.4,0.7-0.7,1
		c-0.3,0.2-0.8,0.4-1.3,0.4c-0.5,0.1-1.2,0.1-2,0.1c-1.3,0-2.2-0.2-2.7-0.7c-0.5-0.5-0.8-1-0.8-1.6c0-0.7,0.3-1.2,0.8-1.6
		c0.5-0.4,1.3-0.6,2.4-0.6h4.5V206.1z"/>
	<path class="st0" d="M226.6,193.9c-1,0-1.9,0.2-2.7,0.5c-0.8,0.4-1.5,0.9-2.1,1.6h-0.1v-2H218v18.5h3.7v-11.1
		c0-0.7,0.1-1.3,0.3-1.8c0.2-0.5,0.5-0.9,0.8-1.2c0.3-0.3,0.7-0.6,1.2-0.7c0.4-0.1,0.9-0.2,1.3-0.2c0.5,0,0.9,0.1,1.3,0.2
		c0.4,0.1,0.7,0.4,1.2,0.7l2.7-3.2c-0.6-0.4-1.2-0.8-1.8-1C228.1,194,227.4,193.9,226.6,193.9z"/>
	<path class="st0" d="M237.3,188.5h-3.7v5.6h-1.9v2.9h1.9v11.1c0,1.5,0.4,2.6,1.3,3.4c0.8,0.8,1.9,1.2,3.2,1.2h1.9v-3.5h-1.4
		c-0.5,0-0.8-0.1-1-0.3c-0.2-0.2-0.3-0.6-0.3-1.1v-10.8h2.7v-2.9h-2.7V188.5z"/>
	<path class="st0" d="M271.7,198.3c0.9-1.3,1.3-2.8,1.3-4.4c0-1.2-0.2-2.2-0.7-3.2c-0.5-0.9-1.1-1.7-1.8-2.4c-0.7-0.6-1.5-1-2.4-1.3
		c-0.9-0.3-1.8-0.4-2.9-0.4H255v26h3.9v-11.1h5l5.4,11.1h4.7l-6-11.5C269.6,200.5,270.8,199.6,271.7,198.3z M264.9,198h-6v-7.9h6.2
		c0.7,0,1.2,0.1,1.7,0.2c0.4,0.1,0.8,0.3,1.2,0.6c0.4,0.3,0.7,0.7,1,1.2c0.2,0.5,0.3,1.1,0.3,1.8c0,0.6-0.1,1.1-0.3,1.6
		c-0.2,0.5-0.5,0.9-0.8,1.3c-0.4,0.4-0.8,0.7-1.4,0.9C266.3,197.9,265.6,198,264.9,198z"/>
	<path class="st0" d="M290.2,196c-0.7-0.7-1.5-1.2-2.4-1.6c-0.9-0.4-1.9-0.5-2.9-0.5c-0.9,0-1.8,0.2-2.7,0.5
		c-0.9,0.3-1.7,0.8-2.4,1.6c-0.7,0.7-1.3,1.7-1.8,2.9c-0.5,1.2-0.7,2.7-0.7,4.5c0,1.9,0.2,3.5,0.7,4.7c0.5,1.2,1.1,2.2,1.9,2.9
		c0.8,0.7,1.7,1.2,2.7,1.5c1,0.3,1.9,0.4,2.9,0.4c1.2,0,2.4-0.2,3.6-0.7c1.1-0.5,2.2-1.2,3.1-2.3l-2.7-2.3c-0.6,0.6-1.2,1-1.9,1.3
		c-0.7,0.3-1.4,0.5-2.1,0.5c-1.3,0-2.4-0.4-3.2-1.1c-0.8-0.8-1.2-1.9-1.2-3.4h11.5v-3.1c0-1.2-0.2-2.3-0.6-3.2
		C291.4,197.5,290.9,196.7,290.2,196z M280.9,201.7c0-1.4,0.4-2.5,1.2-3.2c0.7-0.7,1.6-1.1,2.7-1.1c1.1,0,2,0.4,2.7,1.1
		c0.7,0.7,1.1,1.8,1.2,3.2H280.9z"/>
	<path class="st0" d="M301.5,188.5h-3.7v5.6h-1.9v2.9h1.9v11.1c0,1.5,0.4,2.6,1.3,3.4c0.8,0.8,1.9,1.2,3.2,1.2h1.9v-3.5h-1.4
		c-0.5,0-0.8-0.1-1-0.3c-0.2-0.2-0.3-0.6-0.3-1.1v-10.8h2.7v-2.9h-2.7V188.5z"/>
	<rect x="309" y="194.1" class="st0" width="3.7" height="18.5"/>
	<rect x="309" y="186.6" class="st0" width="3.7" height="3.7"/>
	<path class="st0" d="M327.5,193.9c-1,0-1.9,0.2-2.7,0.5c-0.8,0.4-1.5,0.9-2.1,1.6h-0.1v-2h-3.7v18.5h3.7v-11.1
		c0-0.7,0.1-1.3,0.3-1.8c0.2-0.5,0.5-0.9,0.8-1.2c0.3-0.3,0.7-0.6,1.2-0.7c0.4-0.1,0.9-0.2,1.3-0.2c0.5,0,0.9,0.1,1.3,0.2
		s0.7,0.4,1.2,0.7l2.7-3.2c-0.6-0.4-1.2-0.8-1.8-1C328.9,194,328.2,193.9,327.5,193.9z"/>
	<path class="st0" d="M345.7,196c-0.7-0.7-1.5-1.2-2.4-1.6c-0.9-0.4-1.9-0.5-2.9-0.5c-0.9,0-1.8,0.2-2.7,0.5
		c-0.9,0.3-1.7,0.8-2.4,1.6c-0.7,0.7-1.3,1.7-1.8,2.9c-0.5,1.2-0.7,2.7-0.7,4.5c0,1.9,0.3,3.5,0.8,4.7c0.5,1.2,1.1,2.2,1.9,2.9
		c0.8,0.7,1.7,1.2,2.6,1.5c1,0.3,1.9,0.4,2.9,0.4c1.2,0,2.4-0.2,3.6-0.7c1.1-0.5,2.2-1.2,3.1-2.3l-2.7-2.3c-0.6,0.6-1.2,1-1.9,1.3
		c-0.7,0.3-1.4,0.5-2.1,0.5c-1.3,0-2.4-0.4-3.2-1.1c-0.8-0.8-1.2-1.9-1.2-3.4H348v-3.1c0-1.2-0.2-2.3-0.6-3.2S346.4,196.7,345.7,196
		z M336.4,201.7c0-1.4,0.4-2.5,1.2-3.2c0.7-0.7,1.6-1.1,2.7-1.1c1.1,0,2,0.4,2.7,1.1c0.7,0.7,1.1,1.8,1.2,3.2H336.4z"/>
	<path class="st0" d="M377.1,195.5c-0.6-0.5-1.2-0.9-2-1.2c-0.7-0.3-1.5-0.4-2.2-0.4c-1.3,0-2.4,0.2-3.3,0.6c-0.9,0.4-1.8,1-2.6,1.8
		c-0.7-0.7-1.4-1.3-2.1-1.7c-0.8-0.5-1.8-0.7-3.1-0.7c-1,0-1.9,0.2-2.7,0.5c-0.8,0.4-1.5,0.9-2.1,1.6H357v-2h-3.7v18.5h3.7v-11
		c0-1.3,0.3-2.2,1-2.9s1.6-1,2.7-1c1,0,1.9,0.3,2.6,1c0.7,0.7,1,1.7,1,2.9v11h3.7v-11c0-1.3,0.3-2.2,1-2.9c0.7-0.7,1.6-1,2.6-1
		c1,0,1.9,0.3,2.6,1s1,1.7,1,2.9v11h3.7v-12.3c0-1-0.2-2-0.6-2.8C378.2,196.7,377.7,196.1,377.1,195.5z"/>
	<path class="st0" d="M397.4,196c-0.7-0.7-1.5-1.2-2.4-1.6c-0.9-0.4-1.9-0.5-2.9-0.5c-0.9,0-1.8,0.2-2.7,0.5
		c-0.9,0.3-1.7,0.8-2.5,1.6c-0.7,0.7-1.3,1.7-1.8,2.9c-0.5,1.2-0.7,2.7-0.7,4.5c0,1.9,0.2,3.5,0.7,4.7c0.5,1.2,1.1,2.2,1.9,2.9
		c0.8,0.7,1.7,1.2,2.7,1.5c1,0.3,1.9,0.4,2.9,0.4c1.2,0,2.4-0.2,3.6-0.7c1.2-0.5,2.2-1.2,3.1-2.3l-2.7-2.3c-0.6,0.6-1.2,1-1.9,1.3
		c-0.7,0.3-1.4,0.5-2.1,0.5c-1.3,0-2.4-0.4-3.2-1.1c-0.8-0.8-1.2-1.9-1.2-3.4h11.5v-3.1c0-1.2-0.2-2.3-0.6-3.2
		C398.7,197.5,398.1,196.7,397.4,196z M388.2,201.7c0-1.4,0.4-2.5,1.2-3.2c0.7-0.7,1.6-1.1,2.7-1.1c1.1,0,2,0.4,2.7,1.1
		c0.7,0.7,1.1,1.8,1.2,3.2H388.2z"/>
	<path class="st0" d="M417.6,195.5c-0.6-0.5-1.2-0.9-2-1.2c-0.7-0.3-1.5-0.4-2.2-0.4c-1,0-1.9,0.2-2.7,0.5c-0.8,0.4-1.5,0.9-2.1,1.6
		h-0.1v-2h-3.7v18.5h3.7v-11c0-1.3,0.3-2.2,1-2.9s1.6-1,2.6-1c1,0,1.9,0.3,2.6,1c0.7,0.7,1,1.7,1,2.9v11h3.7v-12.3
		c0-1-0.2-2-0.6-2.8C418.7,196.7,418.2,196.1,417.6,195.5z"/>
	<path class="st0" d="M429.5,188.5h-3.7v5.6h-1.9v2.9h1.9v11.1c0,1.5,0.4,2.6,1.3,3.4c0.8,0.8,1.9,1.2,3.2,1.2h1.9v-3.5h-1.4
		c-0.5,0-0.8-0.1-1-0.3c-0.2-0.2-0.3-0.6-0.3-1.1v-10.8h2.7v-2.9h-2.7V188.5z"/>
	<path class="st0" d="M462.2,200.4c-0.6-0.7-1.3-1.3-2.2-1.7c-0.9-0.5-1.9-0.8-3.2-0.9c-0.6-0.1-1.2-0.1-1.7-0.2
		c-0.5-0.1-0.9-0.1-1.2-0.2c-1.3-0.2-2.3-0.6-2.8-1.3c-0.6-0.6-0.9-1.3-0.9-2.1c0-1.2,0.4-2.2,1.3-2.8c0.8-0.6,1.9-0.9,3.1-0.9
		c1.2,0,2.3,0.2,3.4,0.5c1.1,0.4,2.1,0.9,3,1.5l2.2-3.3c-1.2-0.8-2.5-1.4-3.9-1.9c-1.4-0.5-2.9-0.8-4.5-0.8c-1.3,0-2.5,0.2-3.6,0.6
		c-1.1,0.4-1.9,0.9-2.7,1.6c-0.7,0.7-1.3,1.5-1.7,2.4c-0.4,0.9-0.6,1.9-0.6,3.1c0,1.9,0.6,3.5,1.8,4.8c1.2,1.3,2.9,2.1,5.2,2.5
		c0.7,0.1,1.3,0.2,1.8,0.3c0.5,0.1,1.1,0.1,1.6,0.2c1.2,0.1,2,0.5,2.6,1.2c0.5,0.6,0.8,1.4,0.8,2.3c0,1.1-0.5,2-1.4,2.6
		c-0.9,0.7-2.2,1-3.8,1c-1.4,0-2.7-0.2-4-0.7c-1.3-0.5-2.4-1.1-3.4-1.9l-2.6,3c1.4,1.2,2.9,2.1,4.6,2.7c1.7,0.6,3.5,0.9,5.4,0.9
		c2.8,0,5-0.7,6.7-2c1.6-1.3,2.5-3.2,2.5-5.6c0-0.9-0.1-1.7-0.4-2.6C463.3,201.9,462.8,201.1,462.2,200.4z"/>
	<path class="st0" d="M482.9,198.9c-0.2-0.5-0.4-1-0.6-1.4c-0.2-0.4-0.5-0.8-0.9-1.2c-0.3-0.3-0.6-0.6-0.9-0.9
		c-0.3-0.3-0.7-0.5-1.2-0.7c-0.5-0.2-1-0.4-1.6-0.6c-0.6-0.1-1.2-0.2-2-0.2c-0.7,0-1.4,0.1-2,0.2c-0.6,0.1-1.1,0.3-1.6,0.6
		c-0.5,0.2-0.9,0.5-1.2,0.7c-0.4,0.3-0.7,0.6-0.9,0.9c-0.4,0.4-0.7,0.8-0.9,1.2c-0.2,0.4-0.5,0.9-0.6,1.4c-0.2,0.5-0.3,1.2-0.4,1.9
		c-0.1,0.7-0.1,1.6-0.1,2.6c0,1,0,1.9,0.1,2.6c0.1,0.7,0.2,1.4,0.4,1.9c0.2,0.5,0.4,1,0.6,1.4c0.2,0.4,0.5,0.8,0.9,1.2
		c0.2,0.3,0.5,0.6,0.9,0.9c0.3,0.3,0.8,0.5,1.2,0.7c0.5,0.2,1,0.4,1.6,0.5c0.6,0.1,1.2,0.2,2,0.2c0.7,0,1.4-0.1,2-0.2
		c0.6-0.1,1.1-0.3,1.6-0.5c0.5-0.2,0.9-0.5,1.2-0.7c0.3-0.3,0.6-0.6,0.9-0.9c0.4-0.4,0.7-0.8,0.9-1.2c0.2-0.4,0.5-0.9,0.6-1.4
		c0.2-0.5,0.3-1.2,0.4-1.9c0.1-0.7,0.1-1.6,0.1-2.6c0-1,0-1.9-0.1-2.6C483.2,200,483.1,199.4,482.9,198.9z M479.6,205
		c0,0.4-0.1,0.8-0.1,1.2c-0.1,0.3-0.2,0.6-0.3,0.8c-0.1,0.2-0.3,0.5-0.4,0.7c-0.3,0.4-0.7,0.7-1.2,1c-0.5,0.3-1.1,0.4-1.8,0.4
		c-0.6,0-1.2-0.1-1.8-0.4c-0.5-0.3-1-0.6-1.2-1c-0.2-0.2-0.3-0.5-0.4-0.7c-0.1-0.2-0.2-0.5-0.3-0.8c-0.1-0.3-0.1-0.7-0.1-1.2
		c0-0.5,0-1,0-1.7c0-0.7,0-1.2,0-1.7c0-0.5,0.1-0.8,0.1-1.2c0.1-0.3,0.2-0.6,0.3-0.8c0.1-0.2,0.3-0.5,0.4-0.7c0.3-0.4,0.7-0.7,1.2-1
		c0.5-0.3,1.1-0.4,1.8-0.4c0.6,0,1.2,0.1,1.8,0.4c0.5,0.3,1,0.6,1.2,1c0.2,0.2,0.3,0.5,0.4,0.7c0.1,0.2,0.2,0.5,0.3,0.8
		c0.1,0.3,0.1,0.7,0.1,1.2c0,0.5,0,1,0,1.7C479.6,204,479.6,204.6,479.6,205z"/>
	<path class="st0" d="M492.2,207.8v-21.2h-3.7v21.5c0,0.8,0.1,1.5,0.4,2.1c0.2,0.6,0.6,1,1,1.4c0.4,0.4,0.9,0.6,1.5,0.8
		c0.6,0.2,1.2,0.2,1.9,0.2h1.6v-3.5h-1.3C492.6,209.1,492.2,208.7,492.2,207.8z"/>
	<path class="st0" d="M510.1,205.1c0,1.3-0.3,2.2-1,2.9c-0.7,0.7-1.6,1-2.6,1c-1.1,0-2-0.3-2.6-1c-0.7-0.7-1-1.7-1-2.9v-11h-3.7
		v12.3c0,1.1,0.2,2,0.6,2.8c0.4,0.8,0.9,1.5,1.4,2c0.6,0.5,1.2,0.9,2,1.2c0.7,0.3,1.5,0.4,2.2,0.4c1,0,1.9-0.2,2.7-0.5
		c0.8-0.4,1.5-0.9,2.1-1.6h0.1v2h3.7v-18.5h-3.7V205.1z"/>
	<path class="st0" d="M523.8,188.5h-3.7v5.6h-1.9v2.9h1.9v11.1c0,1.5,0.4,2.6,1.3,3.4c0.8,0.8,1.9,1.2,3.2,1.2h1.9v-3.5h-1.4
		c-0.5,0-0.8-0.1-1-0.3c-0.2-0.2-0.3-0.6-0.3-1.1v-10.8h2.7v-2.9h-2.7V188.5z"/>
	<rect x="531.3" y="186.6" class="st0" width="3.7" height="3.7"/>
	<rect x="531.3" y="194.1" class="st0" width="3.7" height="18.5"/>
	<path class="st0" d="M555,198.9c-0.2-0.5-0.4-1-0.6-1.4c-0.2-0.4-0.5-0.8-0.9-1.2c-0.3-0.3-0.6-0.6-0.9-0.9
		c-0.3-0.3-0.7-0.5-1.2-0.7c-0.5-0.2-1-0.4-1.6-0.6c-0.6-0.1-1.2-0.2-2-0.2c-0.7,0-1.4,0.1-2,0.2c-0.6,0.1-1.1,0.3-1.6,0.6
		c-0.5,0.2-0.9,0.5-1.2,0.7c-0.4,0.3-0.7,0.6-0.9,0.9c-0.4,0.4-0.7,0.8-0.9,1.2c-0.2,0.4-0.5,0.9-0.6,1.4c-0.2,0.5-0.3,1.2-0.4,1.9
		c-0.1,0.7-0.1,1.6-0.1,2.6c0,1,0,1.9,0.1,2.6c0.1,0.7,0.2,1.4,0.4,1.9c0.2,0.5,0.4,1,0.6,1.4c0.2,0.4,0.5,0.8,0.9,1.2
		c0.2,0.3,0.5,0.6,0.9,0.9s0.8,0.5,1.2,0.7c0.5,0.2,1,0.4,1.6,0.5c0.6,0.1,1.2,0.2,2,0.2c0.7,0,1.4-0.1,2-0.2
		c0.6-0.1,1.1-0.3,1.6-0.5c0.5-0.2,0.9-0.5,1.2-0.7s0.6-0.6,0.9-0.9c0.4-0.4,0.7-0.8,0.9-1.2c0.2-0.4,0.5-0.9,0.6-1.4
		c0.2-0.5,0.3-1.2,0.4-1.9c0.1-0.7,0.1-1.6,0.1-2.6c0-1,0-1.9-0.1-2.6C555.3,200,555.2,199.4,555,198.9z M551.8,205
		c0,0.4-0.1,0.8-0.1,1.2c-0.1,0.3-0.2,0.6-0.3,0.8c-0.1,0.2-0.3,0.5-0.4,0.7c-0.3,0.4-0.7,0.7-1.2,1c-0.5,0.3-1.1,0.4-1.8,0.4
		c-0.6,0-1.2-0.1-1.8-0.4c-0.5-0.3-1-0.6-1.2-1c-0.2-0.2-0.3-0.5-0.4-0.7c-0.1-0.2-0.2-0.5-0.3-0.8c-0.1-0.3-0.1-0.7-0.2-1.2
		c0-0.5,0-1,0-1.7c0-0.7,0-1.2,0-1.7c0-0.5,0.1-0.8,0.2-1.2c0.1-0.3,0.2-0.6,0.3-0.8c0.1-0.2,0.3-0.5,0.4-0.7c0.3-0.4,0.7-0.7,1.2-1
		c0.6-0.3,1.1-0.4,1.8-0.4c0.6,0,1.2,0.1,1.8,0.4c0.5,0.3,1,0.6,1.2,1c0.2,0.2,0.3,0.5,0.4,0.7c0.1,0.2,0.2,0.5,0.3,0.8
		c0.1,0.3,0.1,0.7,0.1,1.2c0,0.5,0,1,0,1.7C551.8,204,551.8,204.6,551.8,205z"/>
	<path class="st0" d="M573.4,195.5c-0.6-0.5-1.2-0.9-2-1.2c-0.7-0.3-1.5-0.4-2.2-0.4c-1,0-1.9,0.2-2.7,0.5c-0.8,0.4-1.5,0.9-2.1,1.6
		h-0.1v-2h-3.7v18.5h3.7v-11c0-1.3,0.3-2.2,1-2.9s1.6-1,2.6-1c1,0,1.9,0.3,2.6,1s1,1.7,1,2.9v11h3.7v-12.3c0-1-0.2-2-0.6-2.8
		C574.5,196.7,574,196.1,573.4,195.5z"/>
	<path class="st0" d="M593.9,203.4c-0.4-0.5-1-0.9-1.7-1.2c-0.7-0.3-1.5-0.5-2.5-0.6l-3.1-0.2c-0.9-0.1-1.6-0.3-1.9-0.6
		c-0.4-0.3-0.5-0.7-0.5-1.1c0-0.6,0.2-1.2,0.7-1.6c0.5-0.4,1.3-0.6,2.5-0.6c1,0,1.9,0.2,2.7,0.5c0.8,0.3,1.5,0.7,2.3,1.2l2.3-2.7
		c-0.9-0.8-2-1.4-3.1-1.8c-1.1-0.5-2.5-0.7-4.2-0.7c-1,0-1.9,0.1-2.7,0.4c-0.8,0.2-1.6,0.6-2.2,1.1c-0.6,0.5-1.1,1.1-1.5,1.8
		c-0.4,0.7-0.5,1.5-0.5,2.5c0,1.6,0.5,2.9,1.5,3.7c1,0.9,2.3,1.4,3.8,1.5l3.3,0.3c0.6,0,1.2,0.2,1.6,0.5c0.4,0.3,0.7,0.7,0.7,1.4
		c0,0.8-0.3,1.4-1,1.8c-0.7,0.4-1.6,0.6-2.6,0.6c-1.2,0-2.3-0.2-3.3-0.6c-0.9-0.4-1.8-1-2.6-1.8l-2.6,2.6c1.2,1.1,2.5,2,3.8,2.5
		c1.4,0.5,2.8,0.8,4.3,0.8c1.1,0,2.1-0.1,3-0.4c0.9-0.3,1.8-0.6,2.4-1.1c0.7-0.5,1.2-1.1,1.6-1.8c0.4-0.7,0.6-1.5,0.6-2.4
		c0-0.7-0.1-1.4-0.3-2.1C594.7,204.4,594.4,203.9,593.9,203.4z"/>
</g>
<g class="st1">
	<path class="st2" d="M259.9,416.8c-0.3,0-0.7-0.1-1.1-0.2c-0.8-0.2-9.7-3-15.3-6.9c-4.9-3.4-10-9.8-11.5-11.7
		c-1-1.3-0.8-2.1-0.4-2.6l3.3-4.7l0.3,0.6c5.1,10.5,13.3,18.6,25.1,24.8l1.1,0.6l-1.2,0.1C260,416.8,260,416.8,259.9,416.8z"/>
	<g class="st3">
		<path class="st0" d="M234.8,391.4c3.3,6.8,9.7,16.8,25.2,24.9c-0.1,0-0.1,0-0.2,0c-0.3,0-0.6-0.1-1-0.1c-0.9-0.2-9.8-3.1-15.2-6.8
			c-5.4-3.8-11-11.1-11.4-11.7c-0.5-0.6-0.8-1.4-0.4-2L234.8,391.4 M235,390l-0.7,1l-2.9,4.2c-0.3,0.5-0.7,1.5,0.4,2.9l0.1,0.1
			c1.9,2.4,6.7,8.4,11.5,11.8c5.6,3.9,14.6,6.8,15.4,7c0.4,0.1,0.8,0.2,1.2,0.2c0.1,0,0.2,0,0.3,0l2.5-0.3l-2.2-1.1
			c-11.7-6.1-19.8-14.1-24.9-24.6L235,390L235,390z"/>
	</g>
</g>
<g class="st1">
	<path class="st4" d="M259.9,417.2c-0.6,0-1.2-0.3-1.7-0.6c-0.8-0.4-10.2-6.3-15.4-12.2c-4.6-5.3-8.6-14.1-9.7-16.6
		c-0.7-1.7-0.3-2.5,0.2-3l4.6-4c0.4-0.3,0.9-0.5,1.4-0.5c0.1,0,0.2,0,0.4,0l0.3,0l0.1,0.2c1,4.5,2.6,10.8,4.9,15.7
		c4.2,8.7,13.6,18.7,14.4,19.3c0.4,0.4,0.8,0.7,1.1,0.8l0.8,0.5l-0.9,0.2C260.1,417.2,260,417.2,259.9,417.2z"/>
	<g class="st3">
		<path class="st0" d="M239.2,380.7c0.1,0,0.2,0,0.3,0c1,4.8,2.6,11,5,15.8c4.2,8.6,13.5,18.6,14.5,19.5c0.4,0.4,0.8,0.7,1.2,0.9
			c-0.1,0-0.2,0-0.3,0c-0.5,0-1-0.2-1.5-0.5c-0.9-0.5-10.2-6.3-15.3-12.2c-5.1-5.9-9.3-15.8-9.7-16.6c-0.4-0.8-0.6-1.8,0.2-2.4
			l4.6-4C238.4,380.8,238.8,380.7,239.2,380.7 M239.2,379.9c-0.6,0-1.2,0.2-1.6,0.6l-4.6,4c-0.5,0.4-1.2,1.4-0.4,3.3l0,0.1
			c1.1,2.6,5.1,11.4,9.8,16.7c5.2,6,14.7,11.9,15.5,12.3c0.6,0.3,1.2,0.6,1.9,0.6c0.2,0,0.3,0,0.5-0.1l1.9-0.4l-1.7-0.9
			c-0.3-0.2-0.6-0.4-1-0.8c-0.7-0.7-10.1-10.6-14.3-19.2c-2.4-4.8-4-11.1-4.9-15.6l-0.1-0.5l-0.5-0.1
			C239.5,379.9,239.4,379.9,239.2,379.9L239.2,379.9z"/>
	</g>
</g>
<g class="st1">
	<path class="st5" d="M263,419.2c-0.8,0-1.6-0.5-2.3-1.1c-0.9-0.7-10.6-9.9-15.4-18.2c-4.2-7.5-6.8-18.8-7.5-22.1
		c-0.4-2.1,0.3-3,1-3.3l6.5-3.7c0.4-0.2,0.8-0.3,1.2-0.3c0.3,0,0.6,0.1,0.9,0.2l0.2,0.1l0,0.3c0,5.6,0.4,13.5,2.1,19.8
		c2.9,11.3,11.7,25.5,12.4,26.5c0.3,0.4,0.7,0.9,1.1,1.3l0.7,0.6L263,419.2z"/>
	<g class="st3">
		<path class="st0" d="M246.5,370.9c0.3,0,0.5,0,0.8,0.1c0,5.9,0.5,13.7,2.1,19.9c2.9,11.3,11.6,25.3,12.5,26.6
			c0.4,0.5,0.8,1,1.2,1.3c0,0,0,0,0,0c-0.7,0-1.3-0.5-2-1c-1-0.8-10.6-9.9-15.3-18.1c-4.6-8.2-7.3-21-7.5-22.1
			c-0.2-1.1-0.2-2.3,0.8-2.9l6.5-3.7C245.8,370.9,246.1,370.9,246.5,370.9 M246.5,370.1c-0.5,0-1,0.1-1.4,0.4l-6.5,3.7
			c-0.8,0.4-1.6,1.4-1.2,3.7l0,0.1c0.7,3.3,3.3,14.7,7.5,22.2c4.8,8.4,14.5,17.6,15.4,18.3c0.7,0.6,1.6,1.2,2.5,1.2h0l0.1,0l1.9-0.1
			l-1.5-1.3c-0.4-0.3-0.8-0.8-1.1-1.2c-0.7-1-9.4-15.1-12.4-26.3c-1.6-6.3-2-14.2-2.1-19.8l0-0.5l-0.5-0.2
			C247.2,370.2,246.8,370.1,246.5,370.1L246.5,370.1z"/>
	</g>
</g>
<path class="st6" d="M54.3,168.7c12.6,8.8,29.8,16.3,42.8,21.4c-14-9.5-34.5-24.9-48.1-40.5c-13-14.9-24.6-36.4-32.2-51.8l-10.5,15
	c-1.9,2.7-0.4,5.9,1.5,8.3C9.8,123.6,32.4,153.4,54.3,168.7z"/>
<path class="st7" d="M58.7,131.5C45.2,107.6,35.8,74.3,31,54.3L12.7,70.1c-2.9,2.5-2.2,6.6-0.7,9.9c1.5,3.3,18.6,43.8,39.3,67.6
	c17.3,19.9,46.4,39.6,57.8,46.7C94.8,179.9,72,154.9,58.7,131.5z"/>
<g>
	<path class="st8" d="M127.9,201.7c-3.8-5.1-38.8-62.2-50.7-108c-6.6-25.4-8.4-56.9-8.6-81c-2.3-0.9-4.9-0.8-7.2,0.5L35,28.2
		c-4.1,2.3-4.1,7.3-3.2,11.6c0.9,4.3,11.6,56.4,30.4,89.7c18.8,33.2,58,70.4,62,73.6c2.9,2.3,7.2,3.9,8.4,4.1
		C131,205.8,129.4,203.9,127.9,201.7z"/>
</g>
</svg>
