<?xml version="1.0" encoding="utf-8"?>
<!-- Generator: Adobe Illustrator 20.0.0, SVG Export Plug-In . SVG Version: 6.00 Build 0)  -->
<svg version="1.1" id="Layer_1" xmlns="http://www.w3.org/2000/svg" xmlns:xlink="http://www.w3.org/1999/xlink" x="0px" y="0px"
	 viewBox="0 0 473 68.7" style="enable-background:new 0 0 473 68.7;" xml:space="preserve">
<style type="text/css">
	.st0{fill:#00483A;}
</style>
<g>
	<g>
		<path class="st0" d="M125.1,36.7c0-3.7,0.1-4.9-4.4-8.1v-0.9l10.6-3.9l1,0.4l-0.7,6.5c5.1-3.7,10-6.9,15.7-6.9
			c10.7,0,11.2,8.8,11.2,14.1v15.9c0,7.3,0.4,8,7,9v1.3h-20.8v-1.3c6.6-1,6.9-2.1,7-9V43.4c0-6.2,0.3-15.1-10.6-15.1
			c-3.7,0-6.2,1.2-9.1,3.8v21.5c0,7.3,0.4,8,7,9v1.3l-14,0c0,0,0-3.4,0.1-10.4V36.7z"/>
		<path class="st0" d="M161.8,64.1v-1.3c6.6-1,6.9-2.1,7-9v-17c0-3.7,0.1-4.9-5.4-8.1v-0.9l11.3-3.9l1,0.4v29.6c0,7.3,0.4,8,7,9v1.3
			H161.8z M176.3,6.9c0,2.5-2.1,4.5-4.5,4.5c-2.5,0-4.6-2.1-4.6-4.5c0-2.5,2.1-4.5,4.6-4.5C174.3,2.3,176.3,4.4,176.3,6.9z"/>
		<path class="st0" d="M181.8,28.4l7.2-4.2c0.1-5.3,0.7-10.1,3.6-14.6C196,4.2,201.6,0,208.1,0c3.5,0,10.3,1.4,10.3,6.1
			c0,2.9-2.5,3.8-4.9,3.7c-2.1-3-5.9-7-9.8-7c-7.2,0-7.8,12.3-7.8,17.4v5.4h11.6v3.7h-11.6v24.4c0,7.3,0.4,8,8.6,9v1.3h-22.6v-1.3
			c6.8-1,7-2.1,7.1-9V29.3h-7.2V28.4z"/>
		<path class="st0" d="M204.9,64.1v-1.3c6.6-1,6.9-2.1,7-9v-17c0-3.7,0.4-5.4-4.6-7.4h-1.7v-3.7h13.1l0,28.2c0,7.3,0.4,8,7,9v1.3
			H204.9z"/>
		<path class="st0" d="M231.8,35.2c1-4.5,4-9.5,9.1-9.5c4.7,0,7.2,4.6,8,8.7L231.8,35.2z M231.6,36.8h25.9
			c-0.4-8-5.7-13.1-13.7-13.1c-12,0-20.1,9.9-20.1,21.4c0,10.7,7.7,19.8,18.7,19.8c7,0,13-4.5,16.4-10.3l-1.3-1
			c-2.7,3.6-5.9,5.6-10.5,5.6c-10.1,0-16.4-8.7-15.7-17.9L231.6,36.8z"/>
		<path class="st0" d="M291.2,54.3c-1.9,3-6.1,6.2-9.6,6.2c-6.6,0-14.3-5.5-14.3-18.4c0-7.1,3.6-15.6,11.9-15.6
			c4.2,0,12,2.2,12,12.6V54.3z M305.9,62.4l-0.4-1.5c-7.5,1.1-7.5,0-7.5-8.2V0.4l-1-0.4l-10.3,3.9v0.9c4.5,3.2,4.4,4.4,4.4,8.1v11.7
			c-2.4-0.6-4.9-0.9-7.4-0.9c-13.1,0-24.1,9.1-24.1,22.7c0,9.1,7.1,18.6,16.8,18.6c6,0,10.7-3.8,14.7-7.8v8.5L305.9,62.4z"/>
		<path class="st0" d="M325.7,48.4c0,7.9,0.1,12.9,9.8,12.9c1.8,0,3.6-0.2,5.3-0.6l0.4,1.4c-4.5,1.7-9.2,2.9-14.1,2.9
			c-8.7,0-8.2-4.5-8.2-11.4V29.3h-6l-0.4-0.6l12.5-12.4h0.8v9.3h14.1v3.7h-14.1V48.4z"/>
		<path class="st0" d="M353.4,53.7c0,7.3,0.4,8,8.9,9v1.3h-22.3v-1.3c6.2-1,6.4-2.1,6.5-9v-17c0-3.7,0.1-4.9-4.4-8.1v-0.9l10.6-3.9
			l1,0.4l-0.4,10.5h0.2c2-4.7,7-10.9,12.6-10.9c2.5,0,4.5,1.6,4.5,4.1c0,2.4-2.6,4.6-4.6,5.6c-1.5-1.2-3.7-3.1-5.7-2.9
			c-7.6,0.7-7,12.8-7,14.2V53.7z"/>
		<path class="st0" d="M407.5,54.2c-0.1,3.2-0.8,6.6,3.6,6.6l4.1-0.4l0.4,1.3l-15.2,3.7l0.3-7c-4.8,3.5-10.1,6.5-16.1,6.5
			c-10.1,0-9.9-9.2-9.9-12.9V36.4c0-6.2,0.8-9.4-6.6-9.3v-1.3l13.5-1.2v22c0,3.7-1.1,13.8,9.4,13.8c3.7,0,7.1-1.5,9.8-3.9V37.4
			c0-7.8-0.2-10.3-8.2-10.3v-1.3l15.6-1.2L407.5,54.2z"/>
		<path class="st0" d="M440.6,34.6l-2,0.4c-1.2-4.1-3.2-9.1-8.3-9.1c-3.7,0-5.9,2.7-5.9,6.2c0,9.2,18.5,8.9,18.5,20.4
			c0,7.9-7.6,12.4-14.8,12.4c-3.9,0-7.8-1.1-10.9-3.3l-0.7-9.9l2.1-0.4c1.2,5.4,4.3,11.2,10.6,11.2c4.1,0,6.9-3,6.9-7
			c0-10.2-18.5-8.1-18.5-20.9c0-7,6.5-11,12.8-11c3.5,0,7,1,9.9,2.9L440.6,34.6z"/>
		<path class="st0" d="M457.6,48.4c0,7.9,0.1,12.9,9.8,12.9c1.8,0,3.6-0.2,5.3-0.6l0.4,1.4c-4.5,1.7-9.2,2.9-14.1,2.9
			c-8.7,0-8.2-4.5-8.2-11.4V29.3h-6l-0.4-0.6l12.5-12.4h0.8v9.3h14.1v3.7h-14.1V48.4z"/>
		<path class="st0" d="M111.9,60.9c-10.4,0-9.4-10.2-9.4-13.8V25L89,26.1v1.3c7.4-0.1,6.6,3,6.6,9.3v15.6c0,3.7-0.2,12.9,9.9,12.9
			c5.8,0,10.7-1.2,19.3-7.5c0-0.6,0-2.8,0-3.4C122.3,56.6,115.3,60.9,111.9,60.9z"/>
	</g>
	<g>
		<path class="st0" d="M49.1,45.4c4.5,0.1,5.9-2.8,5.9-6.9l0.3-18.1c-3.4-2.3-7.4-3.9-11.7-4.4l-0.3,22.3
			C43.2,42.1,43.9,45.4,49.1,45.4z"/>
		<g>
			<path class="st0" d="M34.4,49.7c-2.5-2.8-3.7-7-3.6-12.9L31,17.6C21.2,21.3,14.1,30.8,14,41.9c0,3.5,0.6,6.8,1.7,9.8
				C19.6,51.4,26.3,51.2,34.4,49.7z"/>
			<path class="st0" d="M48.9,54.8c-4-0.1-7.4-0.6-10.1-1.8c-7.6,1.8-16.5,2-21.9,1.5c4.3,8.4,13,14.2,23.1,14.3
				c14.2,0.2,26-10.9,26.8-24.9C64.9,51.5,59.1,54.9,48.9,54.8z"/>
		</g>
		<path class="st0" d="M35.4,50.8c-17.6,5-33.9,3-35.3-3c-0.9-3.7,3.5-8.9,11.1-14.1l0,0.1c-6,4.1-9.2,9-8.5,12
			c1.1,4.8,14.6,3.6,28.9-0.3c0,0,1,2.4,1.5,3.2C33.7,49.2,35.4,50.8,35.4,50.8z"/>
		<path class="st0" d="M50.6,44.9c0.1,0.2-0.7,0.5,0.4,0.3C66,41.8,80.3,30.7,80,23.8c-0.1-3.8-3.9-5.8-12.8-6.1l0,0
			c7.2,0.3,9.8,2.5,9.7,5.6c-0.2,6.2-12.7,11.9-25.5,15.8c0,0,0.2,2.1,0.1,3.1C51.4,43.1,50.6,44.9,50.6,44.9z"/>
	</g>
</g>
</svg>
