<svg id="Layer_1" data-name="Layer 1" xmlns="http://www.w3.org/2000/svg" viewBox="0 0 1317.1 398.1"><defs><style>.cls-1{fill:#16446c;}</style></defs><title>Artboard 1</title><path d="M101.1,209.1V182.9h94v110H169.2V267.8a109.58,109.58,0,0,1-8.3,8.1,64.85,64.85,0,0,1-13.4,9,97.89,97.89,0,0,1-20.2,7.3q-12,3-28.5,3c-16,0-30.1-2.9-42.4-8.7a92.62,92.62,0,0,1-31-23.1A97.76,97.76,0,0,1,6.5,230.8,109.78,109.78,0,0,1,0,193.2a120.44,120.44,0,0,1,6.7-40.3,105.05,105.05,0,0,1,19.2-33.8A93.15,93.15,0,0,1,56.8,95.9c12.3-5.8,26.2-8.7,42-8.7,14.8,0,27.1,1.8,36.7,5.3s17.1,7.5,22.2,11.8V88H184v62.4H157.8V137.3c-4.9-6.8-12.2-12.4-21.6-16.7s-21.4-6.4-35.6-6.4c-11.4,0-21.5,1.9-30.3,5.8a65.54,65.54,0,0,0-22.5,16.2,69.49,69.49,0,0,0-14.1,24.6,96.41,96.41,0,0,0-4.8,31,89.71,89.71,0,0,0,4.6,28.9,68.57,68.57,0,0,0,36.7,41.6c9.1,4.3,19.8,6.4,31.9,6.4,11.2,0,20.8-1.7,28.9-5.1a55.58,55.58,0,0,0,19.9-13.7,58,58,0,0,0,11.8-19.2,72,72,0,0,0,4.6-21.8H101.1Z"/><path d="M253.4,167.8a42.37,42.37,0,0,0-16.4,10l-13.7-17.4c6.1-5.9,13.9-10.4,23.5-13.7a93.47,93.47,0,0,1,29.8-4.8,89.25,89.25,0,0,1,24.1,3.3,62.5,62.5,0,0,1,20.9,10.1,53.21,53.21,0,0,1,14.8,17.4c3.8,7,5.7,15.4,5.7,25.1v77.8h20.8V293H314.2V282c-1.7,1.5-3.7,3.1-5.8,4.7a37.31,37.31,0,0,1-8,4.4,60.48,60.48,0,0,1-11.4,3.3,85,85,0,0,1-16.4,1.3c-10.1,0-18.9-1.4-26.3-4.1a53.91,53.91,0,0,1-18.8-11.3,47.49,47.49,0,0,1-15.2-35.6,48,48,0,0,1,4.1-19.5,51.18,51.18,0,0,1,11.8-16.4,56.93,56.93,0,0,1,18.9-11.3c7.5-2.8,16-4.1,25.5-4.1a67.72,67.72,0,0,1,15.7,1.6,52.48,52.48,0,0,1,11.8,4,46.63,46.63,0,0,1,8.4,5.1,42.75,42.75,0,0,1,5.7,5.3V196a26.65,26.65,0,0,0-3.4-13.8,30,30,0,0,0-9.3-9.8,41.81,41.81,0,0,0-13.2-6,58.76,58.76,0,0,0-34.9,1.4Zm-7.9,96.6c5.9,5.3,15.1,8,27.6,8,13.1,0,22.9-2.8,29.5-8.3s9.8-12,9.8-19.4-3.3-13.9-9.8-19.5-16.4-8.4-29.5-8.4q-18.75,0-27.6,8.1a26.56,26.56,0,0,0,0,39.5Z"/><path d="M441,292.9H378.6V275.5H396v-112H378.6V146.1h45v18.5a71.43,71.43,0,0,1,7.5-8.5,40.52,40.52,0,0,1,11.1-7.4,72.72,72.72,0,0,1,16.1-5.1,110.73,110.73,0,0,1,22.2-2v26.5a113.26,113.26,0,0,0-22.9,2.7,64.83,64.83,0,0,0-17.9,6.7,35.17,35.17,0,0,0-11.8,10.3,22.57,22.57,0,0,0-4.3,13.7v74.1H441Z"/><path d="M498.2,275.5h17.4v-112H498.2V146.1h45v14a66.5,66.5,0,0,1,6.4-6.7,38.48,38.48,0,0,1,8.5-5.8,48.5,48.5,0,0,1,11.7-4.1,74.15,74.15,0,0,1,16.1-1.6c16.9,0,30.2,4.7,40,14.1s14.7,22.1,14.7,38v81.5H658v17.4H595.6V275.5H613v-80c0-8.9-2.7-16-8.1-21.4s-12.8-8-22.1-8a40.84,40.84,0,0,0-15.5,2.8,50.68,50.68,0,0,0-11.7,6.8,41.66,41.66,0,0,0-8,8.4,50.51,50.51,0,0,0-4.4,7.5v83.7h17.4v17.4H498.2V275.5Z"/><path d="M687,242.9a50.74,50.74,0,0,0,25.9,24.5c6.5,2.9,14.1,4.4,23.1,4.4,9.3,0,16.9-1.5,22.8-4.6a75.83,75.83,0,0,0,14.5-9.4l17.1,17.1c-3.2,2.8-6.5,5.6-10,8.3a59.76,59.76,0,0,1-11.5,7,65.75,65.75,0,0,1-14.4,4.7,91.82,91.82,0,0,1-18.5,1.7c-13.3,0-24.9-2.2-34.9-6.6a72.81,72.81,0,0,1-24.8-17.4A71.92,71.92,0,0,1,661.5,248a83.56,83.56,0,0,1-5-28.3,81.3,81.3,0,0,1,5.1-28.3,73.29,73.29,0,0,1,39.4-42q14.55-6.6,33.3-6.6c13.1,0,24.3,2.5,33.5,7.5a69.33,69.33,0,0,1,22.6,19.1,74.69,74.69,0,0,1,12.8,25.5,95.74,95.74,0,0,1,4,26.8V226a25.06,25.06,0,0,1-.3,3.7H683A41.5,41.5,0,0,0,687,242.9Zm89-48a45.31,45.31,0,0,0-8.5-13.1,42.38,42.38,0,0,0-14-9.8c-5.6-2.6-12.4-3.8-20.4-3.8-8.4,0-15.6,1.3-21.6,4a48,48,0,0,0-15.2,10.1,46.49,46.49,0,0,0-9.4,13.2,35.47,35.47,0,0,0-3.6,13.1h96.6A53.66,53.66,0,0,0,776,194.9Z"/><path d="M880.9,272.2a52.81,52.81,0,0,0,8.4-4.1v23.4a60.16,60.16,0,0,1-23.6,5.1,43.25,43.25,0,0,1-14.5-2.4,31.31,31.31,0,0,1-12-7.7,37.39,37.39,0,0,1-8.1-13.5,57.89,57.89,0,0,1-3-19.7V166.1h-16V147.3h16V109.7l27.6-14v51.6h32.8v18.8H855.7v87.2c0,6.3,1.3,11.2,4,14.8s6.9,5.4,12.8,5.4A23.92,23.92,0,0,0,880.9,272.2Z"/><path d="M973.2,272.2a52.81,52.81,0,0,0,8.4-4.1v23.4a60.16,60.16,0,0,1-23.6,5.1,43.25,43.25,0,0,1-14.5-2.4,31.31,31.31,0,0,1-12-7.7,37.39,37.39,0,0,1-8.1-13.5,57.89,57.89,0,0,1-3-19.7V166.1H904.5V147.3h15.9V109.7l27.6-14v51.6h32.8v18.8H948v87.2c0,6.3,1.3,11.2,4,14.8s6.9,5.4,12.8,5.4A23.92,23.92,0,0,0,973.2,272.2Z"/><path d="M354.8,332.7v5.1l-.7.2a21.11,21.11,0,0,0-3.2-.3c-4.5,0-8.4,3.5-12.7,12.3v8.7l.3,20h-5.3l.3-19.7-.2-25.9,5-.6v10.3h.5c4.2-7.4,8.8-10.2,13.4-10.2A10.88,10.88,0,0,1,354.8,332.7Z"/><path d="M395.6,348.8c0,.9-.1,2.8-.2,3.8l-1.2,1-29.5.5v1.6c0,11.7,5.3,19.1,15.1,19.1a21.49,21.49,0,0,0,13-4.6l.8.3-.6,4.6a25.49,25.49,0,0,1-13.6,4c-12.4,0-19.6-9-19.6-23.2,0-14.9,8-24.1,20.3-24.1C389.8,332,395.6,338.3,395.6,348.8Zm-4.8-.6c0-8.1-4.5-12.4-11.1-12.4-7.8,0-13.1,5.4-14.6,14.4l25.5-.7Z"/><path d="M428.8,372.2l.6.5-.5,3.6a21.73,21.73,0,0,1-9.1,2.7c-7-.8-10.3-4.9-10.3-12.6l.2-9.1-.1-21.1h-6.3l-.4-.5.4-3.2h6.3v-9.2l4.5-1.8.6.5-.1,10.5h14.7l.4.5-.4,3.2H414.6l-.3,29.7c0,5.9,2.3,8.5,7,8.5A12.67,12.67,0,0,0,428.8,372.2Z"/><path d="M446,316.4a3.18,3.18,0,0,1-3.4,3.5,3,3,0,0,1-3.3-3.3,3.23,3.23,0,0,1,3.4-3.5A3,3,0,0,1,446,316.4Zm-.9,62.2h-5.2l.3-19.7-.3-25.9,5.3-.6-.4,26.2Z"/><path d="M484.9,332.7v5.1l-.7.2a21.11,21.11,0,0,0-3.2-.3c-4.5,0-8.4,3.5-12.7,12.3v8.7l.3,20h-5.3l.3-19.7-.2-25.9,5-.6v10.3h.5c4.2-7.4,8.8-10.2,13.4-10.2A10.88,10.88,0,0,1,484.9,332.7Z"/><path d="M525.7,348.8c0,.9-.1,2.8-.2,3.8l-1.2,1-29.5.5v1.6c0,11.7,5.3,19.1,15.1,19.1a21.49,21.49,0,0,0,13-4.6l.8.3-.6,4.6a25.49,25.49,0,0,1-13.6,4c-12.4,0-19.6-9-19.6-23.2,0-14.9,8-24.1,20.3-24.1C519.9,332,525.7,338.3,525.7,348.8Zm-4.8-.6c0-8.1-4.5-12.4-11.1-12.4-7.8,0-13.1,5.4-14.6,14.4l25.5-.7Z"/><path d="M601.9,378.6h-5.3l.4-31.9c.1-6.4-3.3-10.2-9.4-10.2-4.9,0-10,2.9-14.7,8v1.2l-.1,13,.1,19.9h-5.3l.4-31.9c0-6.4-3.3-10.2-9.4-10.2-5,0-10.1,3-14.9,8.4v13.7l.2,20h-5.3l.3-19.7-.2-25.9,5-.6v7.4h.6c4.6-4.5,9.6-7.3,14.2-7.8,7.2,0,11.7,2.9,13.6,8.2h.5c4.8-4.7,10.2-7.6,14.9-8.2,9.4,0,14.4,5.1,14.4,13.8l-.1,13Z"/><path d="M650.8,348.8c0,.9-.1,2.8-.2,3.8l-1.2,1-29.5.5v1.6c0,11.7,5.3,19.1,15.1,19.1a21.49,21.49,0,0,0,13-4.6l.8.3-.6,4.6a25.49,25.49,0,0,1-13.6,4c-12.4,0-19.6-9-19.6-23.2,0-14.9,8-24.1,20.3-24.1C645.1,332,650.8,338.3,650.8,348.8Zm-4.7-.6c0-8.1-4.5-12.4-11.1-12.4-7.8,0-13.1,5.4-14.6,14.4l25.5-.7Z"/><path d="M693.3,346.7c.1-6.4-3.2-10.2-9.4-10.2-4.9,0-10.2,3-14.9,8.4l-.1,13.7.3,20h-5.3l.3-19.7L664,333l5-.6v7.4h.5c4.6-4.5,9.7-7.3,14.3-7.8,9.4,0,14.5,5.1,14.4,13.8l-.1,13,.2,19.9H693Z"/><path d="M735.6,372.2l.6.5-.5,3.6a21.73,21.73,0,0,1-9.1,2.7c-7-.8-10.3-4.9-10.3-12.6l.2-9.1-.1-21.1h-6.3l-.4-.5.4-3.2h6.3v-9.2l4.5-1.8.6.5-.1,10.5H736l.4.5-.4,3.2H721.3l-.3,29.7c0,5.9,2.3,8.5,7,8.5A12.76,12.76,0,0,0,735.6,372.2Z"/><path d="M802.8,335.3c-3.4.9-6.8,1.6-10.1,2.2l-.1.3a16,16,0,0,1,2.9,9.7c0,9.7-6.5,15.9-17.1,15.9a22.5,22.5,0,0,1-7.1-1.1c-3,2.3-3.9,3.4-3.9,4.9,0,7.8,31.1,1.8,31.1,16.3,0,8-9.5,14.6-21.1,14.6-10.4,0-16.5-5.3-16.5-12.5,1.4-4.3,4.6-7.2,9.6-10.1V375c-4.7-1.2-8.2-3.2-8.2-7.6.9-2,3.1-4.2,6.1-6.1V361c-4.3-2.6-6.5-7.1-6.5-13,0-10,6.6-16,17.1-16a19.08,19.08,0,0,1,9.3,2.1c4.7-.9,9.8-2,13.9-3.1l.6.4Zm-27.5,40.6c-5.7,3.1-9.6,6.4-9.6,10.4,0,4.2,4.3,7.9,12.3,7.9,8.8,0,15.8-4.7,15.8-10C793.7,377.8,784,377.3,775.3,375.9Zm15.5-28.4c0-7.4-4.3-11.6-11.8-11.6-7.7,0-12.3,4.4-12.3,11.9,0,7.3,4.4,11.7,11.9,11.7S790.8,355.1,790.8,347.5Z"/><path d="M834.3,332.7v5.1l-.7.2a21.11,21.11,0,0,0-3.2-.3c-4.5,0-8.4,3.5-12.7,12.3v8.7l.3,20h-5.3L813,359l-.2-25.9,5-.6v10.3h.5c4.2-7.4,8.8-10.2,13.4-10.2A10.88,10.88,0,0,1,834.3,332.7Z"/><path d="M878.8,355c0,15.2-7.5,24.2-20.2,24.2-12.1,0-19.2-8.6-19.2-23.1,0-15.3,7.5-24.3,20.1-24.3C871.6,331.9,878.8,340.5,878.8,355Zm-34.6.1c0,13.1,5.4,20.1,14.5,20.1,9.6,0,15.1-6.9,15.1-19.2,0-13-5.4-20.2-14.6-20.2C849.7,335.8,844.2,342.9,844.2,355.1Z"/><path d="M924.9,369.6c0,3.5,1,5,3.3,5a8.57,8.57,0,0,0,3.7-1l.7.5-.6,3.3a11.34,11.34,0,0,1-5.2,1.6c-3.8-.1-6-2.6-6.3-7.6h-.6c-4.6,4.6-9.4,7.2-14.3,7.7-8.9,0-13.8-5-13.7-13.8l.1-11V333l5.3-.6-.3,32c-.1,6.5,3,10.2,8.9,10.2,4.7,0,9.6-2.6,14.3-7.6V333l5.1-.6Z"/><path d="M981.2,354.3c0,15.9-8.1,24.9-22.1,24.9a55,55,0,0,1-9.8-.9l.1,19h-5.2l.3-38.5-.3-25.9,5.1-.6V339h.5c4.3-4.1,8.6-6.4,13.8-7C975.1,332.1,981.2,340.3,981.2,354.3Zm-4.9.4c-.1-11.6-4.8-18.2-13.1-18.2-4.8,0-9.5,2.5-13.9,7.7l-.1,14.4.1,14.4a28.41,28.41,0,0,0,10.3,2.3C970,375.3,976.4,368.2,976.3,354.7Z"/><rect class="cls-1" x="1133.43" y="120.17" width="152.1" height="152.1" transform="translate(215.5 912.71) rotate(-45)"/><rect class="cls-1" x="1033.53" y="36.27" width="152.4" height="120" transform="translate(256.96 812.89) rotate(-45)"/><rect class="cls-1" x="1049.68" y="220.06" width="120" height="152.4" transform="translate(115.53 871.43) rotate(-45)"/></svg>