<?xml version="1.0" encoding="utf-8"?>
<!-- Generator: Adobe Illustrator 20.0.0, SVG Export Plug-In . SVG Version: 6.00 Build 0)  -->
<svg version="1.1" id="Layer_1" xmlns="http://www.w3.org/2000/svg" xmlns:xlink="http://www.w3.org/1999/xlink" x="0px" y="0px"
	 viewBox="0 0 512 512" style="enable-background:new 0 0 512 512;" xml:space="preserve">
<style type="text/css">
	.st0{fill:#16446C;}
</style>
<g id="icomoon-ignore">
</g>
<path class="st0" d="M319.9,237.9H342L316.5,351l-33.2-159h-53.3l-38.6,159l-28.9-159h-55.7L163.4,448h54.4L256,296.6L290.1,448
	h50.2L405.1,192h-85.2L319.9,237.9L319.9,237.9z"/>
<path class="st0" d="M458.9,114.5c-11.1-15.1-26.6-32.8-43.6-49.9s-34.7-32.5-49.9-43.6C339.7,2.2,327.2,0,320,0H72
	C49.9,0,32,17.9,32,40v432c0,22.1,17.9,40,40,40h368c22.1,0,40-17.9,40-40V160C480,152.8,477.8,140.3,458.9,114.5
	C458.9,114.5,458.9,114.5,458.9,114.5z M392.7,87.3c15.4,15.3,27.4,29.2,36.3,40.7h-77V51C363.5,59.9,377.3,72,392.7,87.3
	L392.7,87.3L392.7,87.3z M448,472c0,4.3-3.7,8-8,8H72c-4.3,0-8-3.7-8-8V40c0-4.3,3.7-8,8-8c0,0,248,0,248,0v112c0,8.8,7.2,16,16,16
	h112V472z"/>
</svg>
