<?xml version="1.0" encoding="utf-8"?>
<!-- Generator: Adobe Illustrator 20.0.0, SVG Export Plug-In . SVG Version: 6.00 Build 0)  -->
<svg version="1.1" id="Layer_1" xmlns="http://www.w3.org/2000/svg" xmlns:xlink="http://www.w3.org/1999/xlink" x="0px" y="0px"
	 viewBox="0 0 416 448" style="enable-background:new 0 0 416 448;" xml:space="preserve">
<style type="text/css">
	.st0{fill:#16446C;}
</style>
<g id="icomoon-ignore">
</g>
<path class="st0" d="M96,384h224v-64H96V384z M96,224h224v-96h-40c-6.7,0-12.3-2.3-17-7s-7-10.3-7-17V64H96V224z M384,240
	c0-4.3-1.6-8.1-4.8-11.2s-6.9-4.8-11.2-4.8s-8.1,1.6-11.2,4.8s-4.8,6.9-4.8,11.2s1.6,8.1,4.8,11.2s6.9,4.8,11.2,4.8
	s8.1-1.6,11.2-4.8S384,244.3,384,240z M416,240v104c0,2.2-0.8,4-2.4,5.6s-3.5,2.4-5.6,2.4h-56v40c0,6.7-2.3,12.3-7,17s-10.3,7-17,7
	H88c-6.7,0-12.3-2.3-17-7s-7-10.3-7-17v-40H8c-2.2,0-4-0.8-5.6-2.4S0,346.2,0,344V240c0-13.2,4.7-24.5,14.1-33.9S34.8,192,48,192h16
	V56c0-6.7,2.3-12.3,7-17s10.3-7,17-7h168c6.7,0,14,1.7,22,5s14.3,7.3,19,12l38,38c4.7,4.7,8.7,11,12,19s5,15.3,5,22v64h16
	c13.2,0,24.5,4.7,33.9,14.1S416,226.8,416,240z"/>
</svg>
