<?xml version="1.0" encoding="utf-8"?>
<!-- Generator: Adobe Illustrator 20.0.0, SVG Export Plug-In . SVG Version: 6.00 Build 0)  -->
<svg version="1.1" id="Layer_1" xmlns="http://www.w3.org/2000/svg" xmlns:xlink="http://www.w3.org/1999/xlink" x="0px" y="0px"
	 viewBox="0 0 768 768" style="enable-background:new 0 0 768 768;" xml:space="preserve">
<style type="text/css">
	.st0{fill:#16446C;}
</style>
<g id="icomoon-ignore">
</g>
<path class="st0" d="M320,128c8.8,0,16.4,3.1,22.6,9.4s9.4,13.8,9.4,22.6c0,9-3.2,16.6-9.5,22.8L173.2,352H672
	c8.8,0,16.4,3.1,22.6,9.4s9.4,13.8,9.4,22.6s-3.1,16.4-9.4,22.6S680.8,416,672,416H173.2l169.2,169.2c6.3,6.2,9.5,13.8,9.5,22.8
	c0,8.8-3.1,16.4-9.4,22.6S328.8,640,320,640c-9,0-16.6-3.1-22.8-9.2l-224-224c-6.2-6.5-9.2-14.1-9.2-22.8s3.1-16.2,9.2-22.8l224-224
	C303.6,131.1,311.2,128,320,128z"/>
</svg>
