<?xml version="1.0" encoding="utf-8"?>
<!-- Generator: Adobe Illustrator 20.0.0, SVG Export Plug-In . SVG Version: 6.00 Build 0)  -->
<svg version="1.1" id="Layer_1" xmlns="http://www.w3.org/2000/svg" xmlns:xlink="http://www.w3.org/1999/xlink" x="0px" y="0px"
	 viewBox="0 0 768 768" style="enable-background:new 0 0 768 768;" xml:space="preserve">
<style type="text/css">
	.st0{fill:#16446C;}
</style>
<g id="icomoon-ignore">
</g>
<path class="st0" d="M448,128c9,0,16.6,3.1,22.8,9.2l224,224c6.2,6.2,9.2,13.8,9.2,22.8s-3.1,16.6-9.2,22.8l-224,224
	c-6.2,6.2-13.8,9.2-22.8,9.2c-9.2,0-16.8-3-22.9-9.1S416,617.2,416,608c0-9,3.1-16.6,9.2-22.8L594.8,416H96
	c-8.8,0-16.4-3.1-22.6-9.4S64,392.8,64,384s3.1-16.4,9.4-22.6S87.2,352,96,352h498.8L425.2,182.8c-6.2-6.2-9.2-13.8-9.2-22.8
	c0-9.2,3-16.8,9.1-22.9S438.8,128,448,128z"/>
</svg>
