<?xml version="1.0" encoding="utf-8"?>
<!-- Generator: Adobe Illustrator 20.0.0, SVG Export Plug-In . SVG Version: 6.00 Build 0)  -->
<svg version="1.1" id="Layer_1" xmlns="http://www.w3.org/2000/svg" xmlns:xlink="http://www.w3.org/1999/xlink" x="0px" y="0px"
	 viewBox="0 0 512 512" style="enable-background:new 0 0 512 512;" xml:space="preserve">
<style type="text/css">
	.st0{fill:#16446C;}
</style>
<g id="icomoon-ignore">
</g>
<path class="st0" d="M421,294.7c-6.8-6.7-22-10.3-45-10.6c-15.6-0.2-34.4,1.2-54.1,4c-8.8-5.1-17.9-10.6-25.1-17.3
	c-19.2-18-35.3-42.9-45.3-70.3c0.7-2.6,1.2-4.8,1.7-7.1c0,0,10.8-61.5,8-82.3c-0.4-2.9-0.6-3.7-1.4-5.9l-0.9-2.4
	c-2.9-6.8-8.7-14-17.8-13.6l-5.5-0.2c-10.1,0-18.3,5.2-20.5,12.9c-6.6,24.2,0.2,60.4,12.5,107.4l-3.1,7.6
	c-8.8,21.4-19.8,43-29.5,62.1l-1.3,2.5c-10.2,20-19.5,37-27.9,51.4l-8.7,4.6c-0.6,0.3-15.5,8.2-19,10.3
	c-29.6,17.7-49.3,37.8-52.5,53.7c-1,5.1-0.3,11.6,5,14.6l8.4,4.2c3.6,1.8,7.5,2.8,11.4,2.8c21.1,0,45.6-26.3,79.3-85.2
	c39-12.7,83.3-23.2,122.2-29c29.6,16.7,66.1,28.3,89.1,28.3c4.1,0,7.6-0.4,10.5-1.1c4.4-1.2,8.1-3.7,10.4-7.1
	c4.5-6.7,5.4-16,4.2-25.4C425.7,300.6,423.4,297.1,421,294.7L421,294.7z M105.8,407c3.8-10.5,19.1-31.3,41.6-49.8
	c1.4-1.1,4.9-4.4,8.1-7.5C132,387.4,116.2,402.3,105.8,407z M239.2,99.8c6.8,0,10.6,17.1,11,33.1s-3.4,27.3-8.1,35.6
	c-3.9-12.3-5.7-31.8-5.7-44.5C236.4,124.1,236.1,99.8,239.2,99.8L239.2,99.8L239.2,99.8z M199.4,318.7c4.7-8.5,9.6-17.4,14.7-26.8
	c12.2-23.2,20-41.3,25.7-56.2c11.5,20.8,25.7,38.6,42.5,52.8c2.1,1.8,4.3,3.6,6.6,5.3C254.9,300.6,225.4,308.8,199.4,318.7
	L199.4,318.7L199.4,318.7z M414.5,316.8c-2.1,1.3-8,2-11.9,2c-12.4,0-27.6-5.6-49.1-14.8c8.2-0.6,15.8-0.9,22.6-0.9
	c12.4,0,16.1-0.1,28.2,3C416.4,309.2,416.5,315.5,414.5,316.8L414.5,316.8z"/>
<path class="st0" d="M458.9,114.5c-11.1-15.1-26.6-32.8-43.6-49.9s-34.7-32.5-49.9-43.6C339.7,2.2,327.2,0,320,0H72
	C49.9,0,32,17.9,32,40v432c0,22.1,17.9,40,40,40h368c22.1,0,40-17.9,40-40V160C480,152.8,477.8,140.3,458.9,114.5
	C458.9,114.5,458.9,114.5,458.9,114.5z M392.7,87.3c15.4,15.3,27.4,29.2,36.3,40.7h-77V51C363.5,59.9,377.3,72,392.7,87.3
	L392.7,87.3L392.7,87.3z M448,472c0,4.3-3.7,8-8,8H72c-4.3,0-8-3.7-8-8V40c0-4.3,3.7-8,8-8c0,0,248,0,248,0v112c0,8.8,7.2,16,16,16
	h112V472z"/>
</svg>
