<?xml version="1.0" encoding="utf-8"?>
<!-- Generator: Adobe Illustrator 20.0.0, SVG Export Plug-In . SVG Version: 6.00 Build 0)  -->
<svg version="1.1" id="Layer_1" xmlns="http://www.w3.org/2000/svg" xmlns:xlink="http://www.w3.org/1999/xlink" x="0px" y="0px"
	 viewBox="0 0 103.1 102.9" style="enable-background:new 0 0 103.1 102.9;" xml:space="preserve">
<style type="text/css">
	.st0{fill:#16446C;}
</style>
<g>
	<g>
		<path class="st0" d="M23.1,102.9H1.7V34.2h21.4C23.1,34.2,23.1,102.9,23.1,102.9z M12.4,24.8C5.6,24.8,0,19.2,0,12.4S5.5,0,12.4,0
			c6.8,0,12.4,5.5,12.4,12.4C24.8,19.2,19.3,24.8,12.4,24.8z M103.1,102.9H81.8V69.5c0-8-0.1-18.2-11.1-18.2
			c-11.1,0-12.8,8.7-12.8,17.6v34H36.5V34.2H57v9.4h0.3c2.8-5.4,9.8-11.1,20.2-11.1c21.6,0,25.6,14.2,25.6,32.7
			C103.1,65.2,103.1,102.9,103.1,102.9z"/>
	</g>
</g>
</svg>
