<?xml version="1.0" encoding="UTF-8"?><!DOCTYPE svg PUBLIC "-//W3C//DTD SVG 1.1//EN" "http://www.w3.org/Graphics/SVG/1.1/DTD/svg11.dtd"><svg xmlns="http://www.w3.org/2000/svg"><defs><style>.cls-1{fill:#16446c}</style></defs><symbol id="shape-custodian-aspire" viewBox="0 0 612 212.6"><style>.st0{fill:#fff}.st1{display:none}.st2{fill:#d2b12b}.st2,.st3,.st4,.st5{display:inline}.st4,.st5{fill:#799b3e}.st5{fill:#005978}.st6{fill:#d2b12b}.st7{fill:#799b3e}.st8{fill:#005978}</style><path class="st0" d="M167.7 148.2h23.9V81.4c0-6.2-1.1-11.4-3.2-15.7-2.2-4.3-5.2-7.8-9-10.4-3.8-2.6-8.4-4.4-13.7-5.5-5.2-1.1-11-1.6-17.2-1.6-7.6 0-14.4 1.1-20.1 3.2-5.9 2.2-10.9 6-14.9 11.5l-1.2 1.6 19 13.9 1.2-1.8c1.6-2.4 3.5-4 5.9-4.9 2.5-1 6.2-1.5 11.2-1.5 6.8 0 11.6.8 14.5 2.4 2.5 1.4 3.8 4 3.8 7.7v7.9h-25.5c-5.5 0-10.5.8-14.7 2.4-4.3 1.6-7.9 3.8-10.7 6.5-2.9 2.7-5.1 6-6.5 9.7-1.5 3.7-2.2 7.5-2.2 11.5 0 4.4.8 8.5 2.5 12.3 1.7 3.8 4.2 7.2 7.4 9.9s7.1 4.9 11.7 6.5c4.5 1.6 9.7 2.4 15.4 2.4 7.1 0 12.5-.8 16.5-2.5 2.4-1 4.5-2.3 6.2-4v5.3zm-20.2-20.9c-6.2 0-10.7-1-13.1-3.1-2.4-2-3.6-4.2-3.6-6.9 0-2.8 1.1-5 3.4-6.7 2.4-1.8 6.4-2.7 11.8-2.7h21.8v4.9c0 3.5-.4 6.2-1.1 8.2-.6 1.8-1.6 3-3 3.9-1.5.9-3.5 1.6-6 1.8-2.7.4-6.1.6-10.2.6zM285.5 131.4c2.2-3.9 3.4-8.4 3.4-13.4 0-3.9-.6-7.7-1.7-11.2-1.1-3.6-3-6.8-5.5-9.6s-5.8-5-9.7-6.7c-3.8-1.6-8.5-2.7-13.7-3.1l-16.3-.9c-5.5-.4-8-1.7-9-2.6-1.5-1.4-2.2-2.8-2.2-4.3 0-2.7 1-4.8 3-6.6 2-1.8 6.2-2.8 11.9-2.8 5.2 0 9.8.8 13.7 2.3 4 1.6 7.9 3.6 11.7 6.2l1.5 1 14.9-16.8-1.7-1.3c-5.1-4.1-10.8-7.4-17.1-9.8-6.3-2.4-14-3.6-22.9-3.6-5.3 0-10.4.7-15.1 1.9-4.7 1.3-8.9 3.3-12.4 5.8-3.6 2.6-6.4 5.9-8.4 9.8-2 3.9-3.1 8.5-3.1 13.7 0 8.8 3 15.8 8.8 20.7 5.7 4.8 12.9 7.6 21.5 8.2l17.6 1.5c3.1.2 5.7.9 7.7 2.1 1.1.6 2.5 1.8 2.5 5.2 0 3.3-1.4 5.6-4.4 7.3-3.3 1.9-7.7 2.8-13 2.8-6.3 0-11.9-1-16.6-2.9-4.7-2-9.2-4.9-13.2-8.7l-1.4-1.3-16.8 15.9 1.6 1.5c6.5 5.9 13.6 10.3 21.1 13.2 7.5 2.9 15.5 4.3 23.7 4.3 5.9 0 11.5-.7 16.6-2 5.2-1.4 9.8-3.4 13.7-6 4-2.6 7.1-5.9 9.3-9.8zM382.5 74c-.6-2.9-1.4-5.2-2.4-7.1-.9-1.8-2.1-3.7-3.5-5.6-3-3.8-6.9-7-11.5-9.4-4.6-2.5-10.2-3.7-16.6-3.7-5.3 0-10.4 1.1-15.1 3.3-3.1 1.4-5.9 3.2-8.4 5.2v-7.4h-24v129.2h24v-38c2.9 2.2 5.8 4.1 8.9 5.6 4.4 2.2 9.3 3.3 14.7 3.3 6.4 0 12-1.2 16.6-3.7 4.6-2.4 8.4-5.6 11.5-9.4 1.4-1.7 2.6-3.6 3.5-5.5 1-1.9 1.8-4.4 2.4-7.2.6-2.8 1-6.2 1.2-10.1.2-3.8.3-8.7.3-14.6s-.1-10.8-.3-14.7c-.3-4.1-.7-7.5-1.3-10.2zm-22.4 24.8c0 3.5-.2 7.1-.5 10.6-.3 3.3-1 6.3-2.2 8.8-1.1 2.4-2.7 4.3-5.1 5.8-2.3 1.5-5.7 2.2-9.9 2.2s-7.5-.8-9.8-2.4c-2.3-1.6-4-3.6-5-6.1-1.1-2.6-1.9-5.6-2.2-8.8-.3-3.4-.5-6.8-.5-10.1 0-3.4.2-6.9.5-10.3.3-3.3 1-6.2 2.2-8.8 1.1-2.4 2.8-4.5 5.1-6.1 2.2-1.6 5.5-2.4 9.8-2.4 4.3 0 7.6.7 9.9 2.2 2.3 1.5 4 3.4 5.1 5.8 1.1 2.6 1.9 5.6 2.2 8.8.2 3.6.4 7.1.4 10.8zM400.8 49.2h23.9v98.9h-23.9zM400.8 10.9h23.9V34h-23.9zM516.7 57.1l-1.7-1.3c-3.1-2.3-6.5-4.2-10-5.6-3.6-1.4-7.6-2.1-11.8-2.1-5.6 0-10.7 1-15.3 3-3.2 1.4-6.2 3.3-8.8 5.6v-7.5h-23.9v98.9H469v-59c0-3.2.5-5.9 1.5-8.2 1-2.2 2.3-4.1 3.9-5.5 1.6-1.4 3.4-2.5 5.4-3.1 4.2-1.4 9.3-1.3 12.5-.1 1.7.6 3.7 1.8 5.8 3.4l1.5 1.1 17.1-19.6zM592.6 72.8c-2.3-5.2-5.5-9.6-9.3-13.3-3.9-3.7-8.5-6.5-13.6-8.5-9.7-3.7-20.7-4-31.4-.4-5.1 1.7-9.7 4.6-13.8 8.6-4.1 4-7.5 9.3-10 15.8-2.6 6.5-3.8 14.5-3.8 23.9 0 10 1.4 18.3 4.2 24.8 2.8 6.5 6.4 11.7 10.9 15.5 4.4 3.8 9.5 6.5 14.9 7.9 5.3 1.4 10.7 2.1 15.9 2.1 6.9 0 13.5-1.2 19.8-3.7 6.4-2.5 12.2-6.6 17.3-12.3l1.4-1.6-17.5-14.3-1.3 1.2c-2.8 2.7-6 4.8-9.6 6.3-3.6 1.5-7.1 2.3-10.6 2.3-6.4 0-11.6-1.8-15.6-5.3-3.6-3.1-5.5-7.8-5.9-14h61.5V90.2c0-6.4-1.2-12.2-3.5-17.4zM572 88.2h-37.4c.5-5.6 2.4-10 5.5-13 3.5-3.4 7.9-5 13.2-5 5.3 0 9.7 1.7 13.2 5 3.2 3 5 7.3 5.5 13zM159.5 200.4c-.6-.7-1.3-1.3-2.2-1.7-.9-.5-1.9-.8-3.2-.9-.6-.1-1.2-.1-1.7-.2s-.9-.1-1.2-.2c-1.3-.2-2.3-.6-2.8-1.3-.6-.6-.9-1.3-.9-2.1 0-1.2.4-2.2 1.3-2.8.8-.6 1.9-.9 3.1-.9 1.2 0 2.3.2 3.4.5 1.1.4 2.1.9 3.1 1.5l2.2-3.3c-1.2-.8-2.5-1.4-3.9-1.9s-2.9-.8-4.5-.8c-1.3 0-2.5.2-3.6.6-1 .4-1.9.9-2.7 1.6-.7.7-1.3 1.5-1.7 2.4-.4.9-.6 1.9-.6 3.1 0 1.9.6 3.5 1.8 4.8 1.2 1.3 2.9 2.1 5.2 2.5.7.1 1.3.2 1.8.3.5.1 1.1.1 1.6.2 1.2.1 2 .5 2.6 1.2.5.6.8 1.4.8 2.3 0 1.1-.5 2-1.4 2.6-.9.7-2.2 1-3.8 1-1.4 0-2.7-.2-4-.7-1.3-.5-2.4-1.1-3.4-1.9l-2.6 3c1.4 1.2 2.9 2.1 4.6 2.7 1.7.6 3.4.9 5.4.9 2.8 0 5-.7 6.7-2 1.6-1.3 2.5-3.2 2.5-5.6 0-.9-.1-1.7-.4-2.6-.5-.8-.9-1.6-1.5-2.3zM190.3 195.5c-.6-.5-1.2-.9-2-1.2-.7-.3-1.5-.4-2.2-.4-1.3 0-2.4.2-3.3.6-.9.4-1.8 1-2.6 1.8-.7-.7-1.4-1.3-2.1-1.7-.8-.5-1.8-.7-3.1-.7-1 0-1.9.2-2.7.5-.8.4-1.5.9-2.1 1.6h-.1v-2h-3.7v18.5h3.7v-11c0-1.3.3-2.2 1-2.9.7-.7 1.6-1 2.7-1 1 0 1.9.3 2.6 1 .7.7 1 1.7 1 2.9v11h3.7v-11c0-1.3.3-2.2 1-2.9.7-.7 1.6-1 2.7-1 1 0 1.9.3 2.6 1 .7.7 1 1.7 1 2.9v11h3.7v-12.3c0-1-.2-2-.6-2.8-.1-.7-.6-1.3-1.2-1.9zM209.9 195.2c-.7-.5-1.5-.8-2.4-1-.9-.2-2-.3-3.1-.3-1.4 0-2.6.2-3.6.6-1 .4-1.9 1.1-2.6 2.1l2.9 2.2c.3-.5.8-.9 1.3-1.1.5-.2 1.3-.3 2.2-.3 1.3 0 2.3.2 2.9.5.6.4.9 1 .9 1.8v1.9h-5.2c-1 0-1.9.1-2.6.4-.8.3-1.4.7-1.9 1.2s-.9 1.1-1.1 1.8c-.3.7-.4 1.4-.4 2.1 0 .8.1 1.6.4 2.2.3.7.7 1.3 1.3 1.8.6.5 1.2.9 2.1 1.2.8.3 1.7.4 2.8.4 1.3 0 2.2-.2 2.9-.5.7-.3 1.2-.8 1.6-1.4h.1v1.6h3.7V200c0-1.1-.2-2.1-.6-2.9-.4-.8-1-1.4-1.6-1.9zm-1.6 10.9c0 .7-.1 1.3-.2 1.7-.1.4-.4.7-.7 1-.3.2-.8.4-1.3.4-.5.1-1.2.1-2 .1-1.3 0-2.2-.2-2.7-.7-.5-.5-.8-1-.8-1.6 0-.7.3-1.2.8-1.6.5-.4 1.3-.6 2.4-.6h4.5v1.3zM226.6 193.9c-1 0-1.9.2-2.7.5-.8.4-1.5.9-2.1 1.6h-.1v-2H218v18.5h3.7v-11.1c0-.7.1-1.3.3-1.8.2-.5.5-.9.8-1.2.3-.3.7-.6 1.2-.7.4-.1.9-.2 1.3-.2.5 0 .9.1 1.3.2s.7.4 1.2.7l2.7-3.2c-.6-.4-1.2-.8-1.8-1-.6-.2-1.3-.3-2.1-.3zM237.3 188.5h-3.7v5.6h-1.9v2.9h1.9v11.1c0 1.5.4 2.6 1.3 3.4.8.8 1.9 1.2 3.2 1.2h1.9v-3.5h-1.4c-.5 0-.8-.1-1-.3-.2-.2-.3-.6-.3-1.1V197h2.7v-2.9h-2.7v-5.6zM271.7 198.3c.9-1.3 1.3-2.8 1.3-4.4 0-1.2-.2-2.2-.7-3.2-.5-.9-1.1-1.7-1.8-2.4-.7-.6-1.5-1-2.4-1.3-.9-.3-1.8-.4-2.9-.4H255v26h3.9v-11.1h5l5.4 11.1h4.7l-6-11.5c1.6-.6 2.8-1.5 3.7-2.8zm-6.8-.3h-6v-7.9h6.2c.7 0 1.2.1 1.7.2.4.1.8.3 1.2.6.4.3.7.7 1 1.2.2.5.3 1.1.3 1.8 0 .6-.1 1.1-.3 1.6-.2.5-.5.9-.8 1.3-.4.4-.8.7-1.4.9-.5.2-1.2.3-1.9.3zM290.2 196c-.7-.7-1.5-1.2-2.4-1.6-.9-.4-1.9-.5-2.9-.5-.9 0-1.8.2-2.7.5-.9.3-1.7.8-2.4 1.6-.7.7-1.3 1.7-1.8 2.9s-.7 2.7-.7 4.5c0 1.9.2 3.5.7 4.7.5 1.2 1.1 2.2 1.9 2.9.8.7 1.7 1.2 2.7 1.5 1 .3 1.9.4 2.9.4 1.2 0 2.4-.2 3.6-.7 1.1-.5 2.2-1.2 3.1-2.3l-2.7-2.3c-.6.6-1.2 1-1.9 1.3-.7.3-1.4.5-2.1.5-1.3 0-2.4-.4-3.2-1.1-.8-.8-1.2-1.9-1.2-3.4h11.5v-3.1c0-1.2-.2-2.3-.6-3.2-.6-1.1-1.1-1.9-1.8-2.6zm-9.3 5.7c0-1.4.4-2.5 1.2-3.2.7-.7 1.6-1.1 2.7-1.1s2 .4 2.7 1.1c.7.7 1.1 1.8 1.2 3.2h-7.8zM301.5 188.5h-3.7v5.6h-1.9v2.9h1.9v11.1c0 1.5.4 2.6 1.3 3.4.8.8 1.9 1.2 3.2 1.2h1.9v-3.5h-1.4c-.5 0-.8-.1-1-.3-.2-.2-.3-.6-.3-1.1V197h2.7v-2.9h-2.7v-5.6zM309 194.1h3.7v18.5H309zM309 186.6h3.7v3.7H309zM327.5 193.9c-1 0-1.9.2-2.7.5-.8.4-1.5.9-2.1 1.6h-.1v-2h-3.7v18.5h3.7v-11.1c0-.7.1-1.3.3-1.8.2-.5.5-.9.8-1.2.3-.3.7-.6 1.2-.7.4-.1.9-.2 1.3-.2.5 0 .9.1 1.3.2s.7.4 1.2.7l2.7-3.2c-.6-.4-1.2-.8-1.8-1-.7-.2-1.4-.3-2.1-.3zM345.7 196c-.7-.7-1.5-1.2-2.4-1.6-.9-.4-1.9-.5-2.9-.5-.9 0-1.8.2-2.7.5-.9.3-1.7.8-2.4 1.6-.7.7-1.3 1.7-1.8 2.9s-.7 2.7-.7 4.5c0 1.9.3 3.5.8 4.7.5 1.2 1.1 2.2 1.9 2.9.8.7 1.7 1.2 2.6 1.5 1 .3 1.9.4 2.9.4 1.2 0 2.4-.2 3.6-.7 1.1-.5 2.2-1.2 3.1-2.3l-2.7-2.3c-.6.6-1.2 1-1.9 1.3-.7.3-1.4.5-2.1.5-1.3 0-2.4-.4-3.2-1.1-.8-.8-1.2-1.9-1.2-3.4H348v-3.1c0-1.2-.2-2.3-.6-3.2s-1-1.9-1.7-2.6zm-9.3 5.7c0-1.4.4-2.5 1.2-3.2.7-.7 1.6-1.1 2.7-1.1s2 .4 2.7 1.1c.7.7 1.1 1.8 1.2 3.2h-7.8zM377.1 195.5c-.6-.5-1.2-.9-2-1.2-.7-.3-1.5-.4-2.2-.4-1.3 0-2.4.2-3.3.6-.9.4-1.8 1-2.6 1.8-.7-.7-1.4-1.3-2.1-1.7-.8-.5-1.8-.7-3.1-.7-1 0-1.9.2-2.7.5-.8.4-1.5.9-2.1 1.6v-2h-3.7v18.5h3.7v-11c0-1.3.3-2.2 1-2.9s1.6-1 2.7-1c1 0 1.9.3 2.6 1 .7.7 1 1.7 1 2.9v11h3.7v-11c0-1.3.3-2.2 1-2.9.7-.7 1.6-1 2.6-1s1.9.3 2.6 1 1 1.7 1 2.9v11h3.7v-12.3c0-1-.2-2-.6-2.8-.1-.7-.6-1.3-1.2-1.9zM397.4 196c-.7-.7-1.5-1.2-2.4-1.6-.9-.4-1.9-.5-2.9-.5-.9 0-1.8.2-2.7.5-.9.3-1.7.8-2.5 1.6-.7.7-1.3 1.7-1.8 2.9s-.7 2.7-.7 4.5c0 1.9.2 3.5.7 4.7.5 1.2 1.1 2.2 1.9 2.9.8.7 1.7 1.2 2.7 1.5 1 .3 1.9.4 2.9.4 1.2 0 2.4-.2 3.6-.7 1.2-.5 2.2-1.2 3.1-2.3l-2.7-2.3c-.6.6-1.2 1-1.9 1.3-.7.3-1.4.5-2.1.5-1.3 0-2.4-.4-3.2-1.1-.8-.8-1.2-1.9-1.2-3.4h11.5v-3.1c0-1.2-.2-2.3-.6-3.2-.4-1.1-1-1.9-1.7-2.6zm-9.2 5.7c0-1.4.4-2.5 1.2-3.2.7-.7 1.6-1.1 2.7-1.1s2 .4 2.7 1.1c.7.7 1.1 1.8 1.2 3.2h-7.8zM417.6 195.5c-.6-.5-1.2-.9-2-1.2-.7-.3-1.5-.4-2.2-.4-1 0-1.9.2-2.7.5-.8.4-1.5.9-2.1 1.6h-.1v-2h-3.7v18.5h3.7v-11c0-1.3.3-2.2 1-2.9s1.6-1 2.6-1 1.9.3 2.6 1c.7.7 1 1.7 1 2.9v11h3.7v-12.3c0-1-.2-2-.6-2.8-.1-.7-.6-1.3-1.2-1.9zM429.5 188.5h-3.7v5.6h-1.9v2.9h1.9v11.1c0 1.5.4 2.6 1.3 3.4.8.8 1.9 1.2 3.2 1.2h1.9v-3.5h-1.4c-.5 0-.8-.1-1-.3-.2-.2-.3-.6-.3-1.1V197h2.7v-2.9h-2.7v-5.6zM462.2 200.4c-.6-.7-1.3-1.3-2.2-1.7-.9-.5-1.9-.8-3.2-.9-.6-.1-1.2-.1-1.7-.2s-.9-.1-1.2-.2c-1.3-.2-2.3-.6-2.8-1.3-.6-.6-.9-1.3-.9-2.1 0-1.2.4-2.2 1.3-2.8.8-.6 1.9-.9 3.1-.9 1.2 0 2.3.2 3.4.5 1.1.4 2.1.9 3 1.5l2.2-3.3c-1.2-.8-2.5-1.4-3.9-1.9s-2.9-.8-4.5-.8c-1.3 0-2.5.2-3.6.6-1.1.4-1.9.9-2.7 1.6-.7.7-1.3 1.5-1.7 2.4-.4.9-.6 1.9-.6 3.1 0 1.9.6 3.5 1.8 4.8 1.2 1.3 2.9 2.1 5.2 2.5.7.1 1.3.2 1.8.3.5.1 1.1.1 1.6.2 1.2.1 2 .5 2.6 1.2.5.6.8 1.4.8 2.3 0 1.1-.5 2-1.4 2.6-.9.7-2.2 1-3.8 1-1.4 0-2.7-.2-4-.7-1.3-.5-2.4-1.1-3.4-1.9l-2.6 3c1.4 1.2 2.9 2.1 4.6 2.7 1.7.6 3.5.9 5.4.9 2.8 0 5-.7 6.7-2 1.6-1.3 2.5-3.2 2.5-5.6 0-.9-.1-1.7-.4-2.6-.3-.8-.8-1.6-1.4-2.3zM482.9 198.9c-.2-.5-.4-1-.6-1.4-.2-.4-.5-.8-.9-1.2l-.9-.9c-.3-.3-.7-.5-1.2-.7-.5-.2-1-.4-1.6-.6-.6-.1-1.2-.2-2-.2-.7 0-1.4.1-2 .2-.6.1-1.1.3-1.6.6-.5.2-.9.5-1.2.7-.4.3-.7.6-.9.9-.4.4-.7.8-.9 1.2-.2.4-.5.9-.6 1.4-.2.5-.3 1.2-.4 1.9-.1.7-.1 1.6-.1 2.6s0 1.9.1 2.6c.1.7.2 1.4.4 1.9s.4 1 .6 1.4c.2.4.5.8.9 1.2.2.3.5.6.9.9.3.3.8.5 1.2.7.5.2 1 .4 1.6.5.6.1 1.2.2 2 .2.7 0 1.4-.1 2-.2.6-.1 1.1-.3 1.6-.5s.9-.5 1.2-.7l.9-.9c.4-.4.7-.8.9-1.2.2-.4.5-.9.6-1.4.2-.5.3-1.2.4-1.9.1-.7.1-1.6.1-2.6s0-1.9-.1-2.6c-.1-.8-.2-1.4-.4-1.9zm-3.3 6.1c0 .4-.1.8-.1 1.2-.1.3-.2.6-.3.8-.1.2-.3.5-.4.7-.3.4-.7.7-1.2 1-.5.3-1.1.4-1.8.4-.6 0-1.2-.1-1.8-.4-.5-.3-1-.6-1.2-1-.2-.2-.3-.5-.4-.7-.1-.2-.2-.5-.3-.8-.1-.3-.1-.7-.1-1.2v-1.7-1.7c0-.5.1-.8.1-1.2.1-.3.2-.6.3-.8.1-.2.3-.5.4-.7.3-.4.7-.7 1.2-1 .5-.3 1.1-.4 1.8-.4.6 0 1.2.1 1.8.4.5.3 1 .6 1.2 1 .2.2.3.5.4.7.1.2.2.5.3.8.1.3.1.7.1 1.2v3.4zM492.2 207.8v-21.2h-3.7v21.5c0 .8.1 1.5.4 2.1.2.6.6 1 1 1.4.4.4.9.6 1.5.8.6.2 1.2.2 1.9.2h1.6v-3.5h-1.3c-1 0-1.4-.4-1.4-1.3zM510.1 205.1c0 1.3-.3 2.2-1 2.9-.7.7-1.6 1-2.6 1-1.1 0-2-.3-2.6-1-.7-.7-1-1.7-1-2.9v-11h-3.7v12.3c0 1.1.2 2 .6 2.8.4.8.9 1.5 1.4 2 .6.5 1.2.9 2 1.2.7.3 1.5.4 2.2.4 1 0 1.9-.2 2.7-.5.8-.4 1.5-.9 2.1-1.6h.1v2h3.7v-18.5h-3.7v10.9zM523.8 188.5h-3.7v5.6h-1.9v2.9h1.9v11.1c0 1.5.4 2.6 1.3 3.4.8.8 1.9 1.2 3.2 1.2h1.9v-3.5h-1.4c-.5 0-.8-.1-1-.3-.2-.2-.3-.6-.3-1.1V197h2.7v-2.9h-2.7v-5.6zM531.3 186.6h3.7v3.7h-3.7zM531.3 194.1h3.7v18.5h-3.7zM555 198.9c-.2-.5-.4-1-.6-1.4-.2-.4-.5-.8-.9-1.2l-.9-.9c-.3-.3-.7-.5-1.2-.7-.5-.2-1-.4-1.6-.6-.6-.1-1.2-.2-2-.2-.7 0-1.4.1-2 .2-.6.1-1.1.3-1.6.6-.5.2-.9.5-1.2.7-.4.3-.7.6-.9.9-.4.4-.7.8-.9 1.2-.2.4-.5.9-.6 1.4-.2.5-.3 1.2-.4 1.9-.1.7-.1 1.6-.1 2.6s0 1.9.1 2.6c.1.7.2 1.4.4 1.9s.4 1 .6 1.4c.2.4.5.8.9 1.2.2.3.5.6.9.9s.8.5 1.2.7c.5.2 1 .4 1.6.5.6.1 1.2.2 2 .2.7 0 1.4-.1 2-.2.6-.1 1.1-.3 1.6-.5s.9-.5 1.2-.7.6-.6.9-.9c.4-.4.7-.8.9-1.2.2-.4.5-.9.6-1.4.2-.5.3-1.2.4-1.9.1-.7.1-1.6.1-2.6s0-1.9-.1-2.6c-.1-.8-.2-1.4-.4-1.9zm-3.2 6.1c0 .4-.1.8-.1 1.2-.1.3-.2.6-.3.8-.1.2-.3.5-.4.7-.3.4-.7.7-1.2 1-.5.3-1.1.4-1.8.4-.6 0-1.2-.1-1.8-.4-.5-.3-1-.6-1.2-1-.2-.2-.3-.5-.4-.7-.1-.2-.2-.5-.3-.8-.1-.3-.1-.7-.2-1.2v-1.7-1.7c0-.5.1-.8.2-1.2.1-.3.2-.6.3-.8.1-.2.3-.5.4-.7.3-.4.7-.7 1.2-1 .6-.3 1.1-.4 1.8-.4.6 0 1.2.1 1.8.4.5.3 1 .6 1.2 1 .2.2.3.5.4.7.1.2.2.5.3.8.1.3.1.7.1 1.2v3.4zM573.4 195.5c-.6-.5-1.2-.9-2-1.2-.7-.3-1.5-.4-2.2-.4-1 0-1.9.2-2.7.5-.8.4-1.5.9-2.1 1.6h-.1v-2h-3.7v18.5h3.7v-11c0-1.3.3-2.2 1-2.9s1.6-1 2.6-1 1.9.3 2.6 1 1 1.7 1 2.9v11h3.7v-12.3c0-1-.2-2-.6-2.8-.1-.7-.6-1.3-1.2-1.9zM593.9 203.4c-.4-.5-1-.9-1.7-1.2-.7-.3-1.5-.5-2.5-.6l-3.1-.2c-.9-.1-1.6-.3-1.9-.6-.4-.3-.5-.7-.5-1.1 0-.6.2-1.2.7-1.6.5-.4 1.3-.6 2.5-.6 1 0 1.9.2 2.7.5.8.3 1.5.7 2.3 1.2l2.3-2.7c-.9-.8-2-1.4-3.1-1.8-1.1-.5-2.5-.7-4.2-.7-1 0-1.9.1-2.7.4-.8.2-1.6.6-2.2 1.1-.6.5-1.1 1.1-1.5 1.8-.4.7-.5 1.5-.5 2.5 0 1.6.5 2.9 1.5 3.7 1 .9 2.3 1.4 3.8 1.5l3.3.3c.6 0 1.2.2 1.6.5.4.3.7.7.7 1.4 0 .8-.3 1.4-1 1.8-.7.4-1.6.6-2.6.6-1.2 0-2.3-.2-3.3-.6-.9-.4-1.8-1-2.6-1.8l-2.6 2.6c1.2 1.1 2.5 2 3.8 2.5 1.4.5 2.8.8 4.3.8 1.1 0 2.1-.1 3-.4.9-.3 1.8-.6 2.4-1.1.7-.5 1.2-1.1 1.6-1.8.4-.7.6-1.5.6-2.4 0-.7-.1-1.4-.3-2.1 0-.9-.3-1.4-.8-1.9z"/><g class="st1"><path class="st2" d="M259.9 416.8c-.3 0-.7-.1-1.1-.2-.8-.2-9.7-3-15.3-6.9-4.9-3.4-10-9.8-11.5-11.7-1-1.3-.8-2.1-.4-2.6l3.3-4.7.3.6c5.1 10.5 13.3 18.6 25.1 24.8l1.1.6-1.2.1h-.3z"/><path class="st3 st0" d="M234.8 391.4c3.3 6.8 9.7 16.8 25.2 24.9h-.2c-.3 0-.6-.1-1-.1-.9-.2-9.8-3.1-15.2-6.8-5.4-3.8-11-11.1-11.4-11.7-.5-.6-.8-1.4-.4-2l3-4.3m.2-1.4l-.7 1-2.9 4.2c-.3.5-.7 1.5.4 2.9l.1.1c1.9 2.4 6.7 8.4 11.5 11.8 5.6 3.9 14.6 6.8 15.4 7 .4.1.8.2 1.2.2h.3l2.5-.3-2.2-1.1c-11.7-6.1-19.8-14.1-24.9-24.6l-.7-1.2z"/></g><g class="st1"><path class="st4" d="M259.9 417.2c-.6 0-1.2-.3-1.7-.6-.8-.4-10.2-6.3-15.4-12.2-4.6-5.3-8.6-14.1-9.7-16.6-.7-1.7-.3-2.5.2-3l4.6-4c.4-.3.9-.5 1.4-.5h.7l.1.2c1 4.5 2.6 10.8 4.9 15.7 4.2 8.7 13.6 18.7 14.4 19.3.4.4.8.7 1.1.8l.8.5-.9.2c-.3.2-.4.2-.5.2z"/><path class="st3 st0" d="M239.2 380.7h.3c1 4.8 2.6 11 5 15.8 4.2 8.6 13.5 18.6 14.5 19.5.4.4.8.7 1.2.9h-.3c-.5 0-1-.2-1.5-.5-.9-.5-10.2-6.3-15.3-12.2-5.1-5.9-9.3-15.8-9.7-16.6-.4-.8-.6-1.8.2-2.4l4.6-4c.2-.4.6-.5 1-.5m0-.8c-.6 0-1.2.2-1.6.6l-4.6 4c-.5.4-1.2 1.4-.4 3.3v.1c1.1 2.6 5.1 11.4 9.8 16.7 5.2 6 14.7 11.9 15.5 12.3.6.3 1.2.6 1.9.6.2 0 .3 0 .5-.1l1.9-.4-1.7-.9c-.3-.2-.6-.4-1-.8-.7-.7-10.1-10.6-14.3-19.2-2.4-4.8-4-11.1-4.9-15.6l-.1-.5-.5-.1h-.5z"/></g><g class="st1"><path class="st5" d="M263 419.2c-.8 0-1.6-.5-2.3-1.1-.9-.7-10.6-9.9-15.4-18.2-4.2-7.5-6.8-18.8-7.5-22.1-.4-2.1.3-3 1-3.3l6.5-3.7c.4-.2.8-.3 1.2-.3.3 0 .6.1.9.2l.2.1v.3c0 5.6.4 13.5 2.1 19.8 2.9 11.3 11.7 25.5 12.4 26.5.3.4.7.9 1.1 1.3l.7.6-.9-.1z"/><path class="st3 st0" d="M246.5 370.9c.3 0 .5 0 .8.1 0 5.9.5 13.7 2.1 19.9 2.9 11.3 11.6 25.3 12.5 26.6.4.5.8 1 1.2 1.3-.7 0-1.3-.5-2-1-1-.8-10.6-9.9-15.3-18.1-4.6-8.2-7.3-21-7.5-22.1-.2-1.1-.2-2.3.8-2.9l6.5-3.7c.2-.1.5-.1.9-.1m0-.8c-.5 0-1 .1-1.4.4l-6.5 3.7c-.8.4-1.6 1.4-1.2 3.7v.1c.7 3.3 3.3 14.7 7.5 22.2 4.8 8.4 14.5 17.6 15.4 18.3.7.6 1.6 1.2 2.5 1.2h.1l1.9-.1-1.5-1.3c-.4-.3-.8-.8-1.1-1.2-.7-1-9.4-15.1-12.4-26.3-1.6-6.3-2-14.2-2.1-19.8v-.5l-.5-.2c0-.1-.4-.2-.7-.2z"/></g><path class="st6" d="M54.3 168.7c12.6 8.8 29.8 16.3 42.8 21.4-14-9.5-34.5-24.9-48.1-40.5-13-14.9-24.6-36.4-32.2-51.8l-10.5 15c-1.9 2.7-.4 5.9 1.5 8.3 2 2.5 24.6 32.3 46.5 47.6z"/><path class="st7" d="M58.7 131.5C45.2 107.6 35.8 74.3 31 54.3L12.7 70.1c-2.9 2.5-2.2 6.6-.7 9.9 1.5 3.3 18.6 43.8 39.3 67.6 17.3 19.9 46.4 39.6 57.8 46.7-14.3-14.4-37.1-39.4-50.4-62.8z"/><g><path class="st8" d="M127.9 201.7c-3.8-5.1-38.8-62.2-50.7-108-6.6-25.4-8.4-56.9-8.6-81-2.3-.9-4.9-.8-7.2.5L35 28.2c-4.1 2.3-4.1 7.3-3.2 11.6.9 4.3 11.6 56.4 30.4 89.7 18.8 33.2 58 70.4 62 73.6 2.9 2.3 7.2 3.9 8.4 4.1-1.6-1.4-3.2-3.3-4.7-5.5z"/></g></symbol><symbol id="shape-custodian-newport" viewBox="0 0 215 48.8"><style>.st0{fill:#fff}</style><path class="st0" d="M61.7 26.7V.1l18.2 19V1.8h3.8v26.4l-18.2-19v17.4h-3.8zM100.7 5.3h-10v6h9.7v3.5h-9.7v8.3h10v3.5H87V1.8h13.8v3.5zM106.9 1.8l6.5 16.7L120.2.6l6.5 17.9 6.9-16.7h4.1l-11.1 26.5-6.4-17.7-6.7 17.7-10.7-26.5h4.1zM143.8 16.6v10.1H140V1.8h4.3c2.1 0 3.7.1 4.7.4 1.1.3 2 .8 2.8 1.6 1.4 1.4 2.1 3.2 2.1 5.3 0 2.3-.8 4.1-2.3 5.4-1.5 1.3-3.6 2-6.2 2h-1.6zm0-3.5h1.4c3.5 0 5.2-1.3 5.2-4 0-2.6-1.8-3.9-5.3-3.9h-1.2v7.9zM155.7 14.1c0-3.5 1.3-6.5 3.9-9 2.6-2.5 5.6-3.8 9.2-3.8 3.6 0 6.6 1.3 9.1 3.8 2.6 2.5 3.8 5.6 3.8 9.2 0 3.6-1.3 6.6-3.8 9.1-2.6 2.5-5.7 3.8-9.3 3.8-3.2 0-6.1-1.1-8.7-3.3-2.8-2.6-4.2-5.8-4.2-9.8zm3.8.1c0 2.8.9 5 2.8 6.8 1.8 1.8 4 2.7 6.4 2.7 2.6 0 4.8-.9 6.6-2.7 1.8-1.8 2.7-4.1 2.7-6.7 0-2.7-.9-4.9-2.7-6.7-1.8-1.8-3.9-2.7-6.6-2.7-2.6 0-4.8.9-6.6 2.7-1.7 1.7-2.6 3.9-2.6 6.6zM192.6 16.1l7.7 10.6h-4.6l-7.1-10.2h-.7v10.2h-3.8V1.8h4.4c3.3 0 5.7.6 7.1 1.9 1.6 1.4 2.4 3.2 2.4 5.5 0 1.8-.5 3.3-1.5 4.6-.9 1.1-2.2 1.9-3.9 2.3zm-4.7-2.9h1.2c3.6 0 5.3-1.4 5.3-4.1 0-2.6-1.7-3.8-5.2-3.8h-1.3v7.9zM209.3 5.3v21.4h-3.8V5.3h-5.7V1.8H215v3.5h-5.7z"/><g><path class="st0" d="M71.1 39.8H78v.5c0 1.3-.1 2.4-.4 3.3-.3.9-.8 1.7-1.5 2.5-1.5 1.7-3.5 2.6-5.9 2.6-2.3 0-4.3-.8-6-2.5-1.7-1.7-2.5-3.7-2.5-6.1 0-2.4.8-4.5 2.5-6.1 1.7-1.7 3.7-2.5 6.2-2.5 1.3 0 2.5.3 3.6.8s2.1 1.4 3.2 2.6l-1.8 1.7c-1.4-1.8-3-2.7-5-2.7-1.8 0-3.2.6-4.4 1.8-1.2 1.2-1.8 2.7-1.8 4.5 0 1.9.7 3.4 2 4.6 1.2 1.1 2.6 1.7 4 1.7 1.2 0 2.3-.4 3.3-1.2 1-.8 1.5-1.8 1.6-3H71v-2.5zM85.9 41.4l5.2 7.1H88l-4.8-6.8h-.5v6.8h-2.5V31.9h2.9c2.2 0 3.8.4 4.8 1.2 1.1.9 1.6 2.1 1.6 3.6 0 1.2-.3 2.2-1 3-.6.9-1.5 1.5-2.6 1.7zm-3.1-1.9h.8c2.4 0 3.6-.9 3.6-2.7 0-1.7-1.2-2.6-3.5-2.6h-.9v5.3zM91.2 40.1c0-2.3.9-4.4 2.6-6 1.7-1.7 3.8-2.5 6.2-2.5 2.4 0 4.4.8 6.1 2.5 1.7 1.7 2.6 3.7 2.6 6.1 0 2.4-.9 4.4-2.6 6.1-1.7 1.7-3.8 2.5-6.2 2.5-2.1 0-4.1-.7-5.8-2.2-1.9-1.7-2.9-3.8-2.9-6.5zm2.5 0c0 1.8.6 3.3 1.9 4.5 1.2 1.2 2.6 1.8 4.3 1.8 1.7 0 3.2-.6 4.4-1.8 1.2-1.2 1.8-2.7 1.8-4.5 0-1.8-.6-3.3-1.8-4.5-1.2-1.2-2.6-1.8-4.4-1.8-1.7 0-3.2.6-4.4 1.8-1.2 1.3-1.8 2.8-1.8 4.5zM113.2 31.9v10c0 1.4.2 2.5.7 3.1.7 1 1.7 1.4 2.9 1.4 1.3 0 2.3-.5 3-1.4.5-.6.7-1.7.7-3.1v-10h2.5v10.7c0 1.8-.5 3.2-1.6 4.3-1.2 1.3-2.7 1.9-4.5 1.9-1.8 0-3.3-.6-4.5-1.9-1.1-1.1-1.6-2.6-1.6-4.3V31.9h2.4zM127.8 41.8v6.8h-2.5V31.9h2.8c1.4 0 2.4.1 3.2.3.7.2 1.4.6 1.9 1.1 1 .9 1.4 2.1 1.4 3.5 0 1.5-.5 2.7-1.5 3.6-1 .9-2.4 1.3-4.1 1.3h-1.2zm0-2.4h.9c2.3 0 3.5-.9 3.5-2.7 0-1.7-1.2-2.6-3.6-2.6h-.8v5.3zM137.1 32.9v2.9h-.5v-2.9h-.8v-.5h2.1v.5h-.8zM138.2 35.8l.7-3.6 1.2 2.6 1.2-2.6.6 3.6h-.5l-.3-2-1 2.2-1-2.2-.4 2.1h-.5z"/></g><g><path class="st0" d="M30.7 48.8h18.1L0 0v48.8h12V30.2zM48.3 43V.2H36.5v16.4L22 .2H5.5z"/></g></symbol><symbol id="shape-custodian-the_standard" viewBox="0 0 126 87.9"><style>.st0{fill:none}.st1{fill:#f7bc60}.st2{fill:#fff}.st3{fill:#005daa}</style><pattern x="-344.2" y="-287" width="69" height="69" patternUnits="userSpaceOnUse" id="Unnamed_Pattern" viewBox="2.1 -70.9 69 69" overflow="visible"><path class="st0" d="M2.1-70.9h69v69h-69z"/><path class="st1" d="M2.1-70.9h69v69h-69z"/><path class="st2" d="M61.8-71.7v.2c-.1.1-.1.1-.2.1-.1.1-.1.3-.1.4-.2.1 0 .2 0 .3v.2c0 .1 0 .3.1.4.1.2.3.4.4.5.2.1.4.6.6.6.2 0 .4-.1.5-.1.2 0 .4 0 .6-.1.2-.1.1-.3.3-.5.1-.1.3 0 .4-.1.2-.1.3-.3.4-.5v-.2c0-.1.1-.2.1-.3 0-.1-.1-.1-.1-.2v-.3c0-.2 0-.4-.1-.5-.4-.7-1.2-.9-2-.8-.2 0-.3.1-.4.2-.2.1-.1.2-.3.2-.1 0-.2.1-.2.2v.3c0 .1 0 .1 0 0M54.1-71.7v.2c-.1.1-.1.1-.2.1-.1.1-.1.3-.1.4-.2.1 0 .2 0 .3v.2c0 .1 0 .3.1.4.1.2.3.4.4.5.2.1.4.6.6.6.2 0 .4-.1.5-.1.2 0 .4 0 .6-.1.2-.1.1-.3.3-.5.1-.1.3 0 .4-.1.2-.1.3-.3.4-.5v-.2c0-.1.1-.2.1-.3 0-.1-.1-.1-.1-.2v-.3c0-.2 0-.4-.1-.5-.4-.7-1.2-.9-2-.8-.2 0-.3.1-.4.2-.2.1-.1.2-.3.2-.1 0-.2.1-.2.2v.3c0 .1 0 .1 0 0M46.4-71.7v.2c-.1.1-.1.1-.2.1-.1.1-.1.3-.1.4-.2.1 0 .2 0 .3v.2c0 .1 0 .3.1.4.1.2.3.4.4.5.2.1.4.6.6.6.2 0 .4-.1.5-.1.2 0 .4 0 .6-.1.2-.1.1-.3.3-.5.1-.1.3 0 .4-.1.2-.1.3-.3.4-.5v-.2c0-.1.1-.2.1-.3 0-.1-.1-.1-.1-.2v-.3c0-.2 0-.4-.1-.5-.4-.7-1.2-.9-2-.8-.2 0-.3.1-.4.2-.2.1-.1.2-.3.2-.1 0-.2.1-.2.2v.3c0 .1 0 .1 0 0M38.8-71.7v.2c-.1.1-.1.1-.2.1-.1.1-.1.3-.1.4-.2.1 0 .2 0 .3v.2c0 .1 0 .3.1.4.1.2.3.4.4.5.2.1.4.6.6.6.2 0 .4-.1.5-.1.2 0 .4 0 .6-.1.2-.1.1-.3.3-.5.1-.1.3 0 .4-.1.2-.1.3-.3.4-.5v-.2c0-.1.1-.2.1-.3 0-.1-.1-.1-.1-.2v-.3c0-.2 0-.4-.1-.5-.4-.7-1.2-.9-2-.8-.2 0-.3.1-.4.2-.2.1-.1.2-.3.2-.1 0-.2.1-.2.2v.3c0 .1 0 .1 0 0M31.1-71.7v.2c-.1.1-.1.1-.2.1-.1.1-.1.3-.1.4-.2.1 0 .2 0 .3v.2c0 .1 0 .3.1.4.1.2.3.4.4.5.2.1.4.6.6.6.2 0 .4-.1.5-.1.2 0 .4 0 .6-.1.2-.1.1-.3.3-.5.1-.1.3 0 .4-.1.2-.1.3-.3.4-.5v-.2c0-.1.1-.2.1-.3 0-.1-.1-.1-.1-.2v-.3c0-.2 0-.4-.1-.5-.4-.7-1.2-.9-2-.8-.2 0-.3.1-.4.2-.2.1-.1.2-.3.2-.1 0-.2.1-.2.2v.3c0 .1 0 .1 0 0M23.4-71.7v.2c-.1.1-.1.1-.2.1-.1.1-.1.3-.1.4-.2.1 0 .2 0 .3v.2c0 .1 0 .3.1.4.1.2.3.4.4.5.2.1.4.6.6.6.2 0 .4-.1.5-.1.2 0 .4 0 .6-.1.2-.1.1-.3.3-.5.1-.1.3 0 .4-.1.2-.1.3-.3.4-.5v-.2c0-.1.1-.2.1-.3 0-.1-.1-.1-.1-.2v-.3c0-.2 0-.4-.1-.5-.4-.7-1.2-.9-2-.8-.2 0-.3.1-.4.2-.2.1-.1.2-.3.2-.1 0-.2.1-.2.2v.3c0 .1 0 .1 0 0M15.8-71.7v.2c-.1.1-.1.1-.2.1-.1.1-.1.3-.1.4-.2.1 0 .2 0 .3v.2c0 .1 0 .3.1.4.1.2.3.4.4.5.2.1.4.6.6.6.2 0 .4-.1.5-.1.2 0 .4 0 .6-.1.2-.1.1-.3.3-.5.1-.1.3 0 .4-.1.2-.1.3-.3.4-.5v-.2c0-.1.1-.2.1-.3 0-.1-.1-.1-.1-.2v-.3c0-.2 0-.4-.1-.5-.4-.7-1.2-.9-2-.8-.2 0-.3.1-.4.2-.2.1-.1.2-.3.2-.1 0-.2.1-.2.2v.3c0 .1 0 .1 0 0M8.1-71.7v.2l-.2.2c-.1.1-.1.3-.1.4-.2.1 0 .2 0 .3v.2c0 .1 0 .3.1.4.1.2.3.4.4.5.2.1.4.6.6.6.2 0 .4-.1.5-.1.2 0 .4 0 .6-.1.2-.1.1-.3.3-.5.1-.1.3 0 .4-.1.2-.1.3-.3.4-.5v-.2c0-.1.1-.2.1-.3 0-.1-.1-.1-.1-.2v-.3c0-.2 0-.4-.1-.5-.4-.7-1.2-.9-2-.8-.2 0-.3.1-.4.2-.2.1-.1.2-.3.2-.1 0-.2.1-.2.2v.2c0 .1 0 .1 0 0M.4-71.7v.2c-.1.1-.1.1-.2.1-.1.1-.1.3-.1.4-.2.1 0 .2 0 .3v.2c0 .1 0 .3.1.4.1.2.3.4.4.5.2.2.4.6.6.7.2 0 .4-.1.5-.1.2 0 .4 0 .6-.1.2-.1.1-.3.3-.5.1-.1.3 0 .4-.1.2-.1.3-.3.4-.5v-.2c0-.1.1-.2.1-.3 0-.1-.1-.1-.1-.2v-.3c0-.2 0-.4-.1-.5-.4-.7-1.2-.9-2-.8-.2 0-.3.1-.4.2-.2.1-.1.2-.3.2-.1 0-.2.1-.2.2v.2c0 .1 0 .1 0 0"/><g><path class="st2" d="M69.4-71.7v.2c-.1.1-.1.1-.2.1-.1.1-.1.3-.1.4-.2.1 0 .2 0 .3v.2c0 .1 0 .3.1.4.1.2.3.4.4.5.2.1.4.6.6.6.2 0 .4-.1.5-.1.2 0 .4 0 .6-.1.2-.1.1-.3.3-.5.1-.1.3 0 .4-.1.2-.1.3-.3.4-.5v-.2c0-.1.1-.2.1-.3 0-.1-.1-.1-.1-.2v-.3c0-.2 0-.4-.1-.5-.4-.7-1.2-.9-2-.8-.2 0-.3.1-.4.2-.2.1-.1.2-.3.2-.1 0-.2.1-.2.2v.3c0 .1 0 .1 0 0"/></g><path class="st2" d="M.5-71.7v.2c-.1.1-.1.1-.2.1-.1.1-.1.3-.1.4-.2.1 0 .2 0 .3v.2c0 .1 0 .3.1.4.1.2.3.4.4.5.2.2.3.6.6.7.2 0 .4-.1.5-.1.2 0 .4 0 .6-.1.2-.1.1-.3.3-.5.1-.1.3 0 .4-.1.2-.1.3-.3.4-.5v-.2c0-.1.1-.2.1-.3 0-.1-.1-.1-.1-.2v-.3c0-.2 0-.4-.1-.5-.4-.7-1.2-.9-2-.8-.2 0-.3.1-.4.2-.2.1-.1.2-.3.2-.1 0-.2.1-.2.2v.2c0 .1 0 .1 0 0"/><g><path class="st2" d="M69.4-64v.2c-.1.1-.1.1-.2.1-.1.1-.1.3-.1.4-.2.1 0 .2 0 .3v.2c0 .1 0 .3.1.4.1.2.3.4.4.5.2.1.4.6.6.6.2 0 .4-.1.5-.1.2 0 .4 0 .6-.1.2-.1.1-.3.3-.5.1-.1.3 0 .4-.1.2-.1.3-.3.4-.5v-.2c0-.1.1-.2.1-.3 0-.1-.1-.1-.1-.2v-.3c0-.2 0-.4-.1-.5-.4-.7-1.2-.9-2-.8-.2 0-.3.1-.4.2-.2.1-.1.2-.3.2-.1 0-.2.1-.2.2v.3M61.8-64v.2c-.1.1-.1.1-.2.1-.1.1-.1.3-.1.4-.2.1 0 .2 0 .3v.2c0 .1 0 .3.1.4.1.2.3.4.4.5.2.1.4.6.6.6.2 0 .4-.1.5-.1.2 0 .4 0 .6-.1.2-.1.1-.3.3-.5.1-.1.3 0 .4-.1.2-.1.3-.3.4-.5v-.2c0-.1.1-.2.1-.3 0-.1-.1-.1-.1-.2v-.3c0-.2 0-.4-.1-.5-.4-.7-1.2-.9-2-.8-.2 0-.3.1-.4.2-.2.1-.1.2-.3.2-.1 0-.2.1-.2.2v.3M54.1-64v.2c-.1.1-.1.1-.2.1-.1.1-.1.3-.1.4-.2.1 0 .2 0 .3v.2c0 .1 0 .3.1.4.1.2.3.4.4.5.2.1.4.6.6.6.2 0 .4-.1.5-.1.2 0 .4 0 .6-.1.2-.1.1-.3.3-.5.1-.1.3 0 .4-.1.2-.1.3-.3.4-.5v-.2c0-.1.1-.2.1-.3 0-.1-.1-.1-.1-.2v-.3c0-.2 0-.4-.1-.5-.4-.7-1.2-.9-2-.8-.2 0-.3.1-.4.2-.2.1-.1.2-.3.2-.1 0-.2.1-.2.2v.3M46.5-64v.2c-.1.1-.1.1-.2.1-.1.1-.1.3-.1.4-.2.1 0 .2 0 .3v.2c0 .1 0 .3.1.4.1.2.3.4.4.5.2.1.4.6.6.6.2 0 .4-.1.5-.1.2 0 .4 0 .6-.1.2-.1.1-.3.3-.5.1-.1.3 0 .4-.1.2-.1.3-.3.4-.5v-.2c0-.1.1-.2.1-.3 0-.1-.1-.1-.1-.2v-.3c0-.2 0-.4-.1-.5-.4-.7-1.2-.9-2-.8-.2 0-.3.1-.4.2-.2.1-.1.2-.3.2-.1 0-.2.1-.2.2v.3M38.8-64v.2c-.1.1-.1.1-.2.1-.1.1-.1.3-.1.4-.2.1 0 .2 0 .3v.2c0 .1 0 .3.1.4.1.2.3.4.4.5.2.1.4.6.6.6.2 0 .4-.1.5-.1.2 0 .4 0 .6-.1.2-.1.1-.3.3-.5.1-.1.3 0 .4-.1.2-.1.3-.3.4-.5v-.2c0-.1.1-.2.1-.3 0-.1-.1-.1-.1-.2v-.3c0-.2 0-.4-.1-.5-.4-.7-1.2-.9-2-.8-.2 0-.3.1-.4.2-.2.1-.1.2-.3.2-.1 0-.2.1-.2.2v.3M31.1-64v.2c-.1.1-.1.1-.2.1-.1.1-.1.3-.1.4-.2.1 0 .2 0 .3v.2c0 .1 0 .3.1.4.1.2.3.4.4.5.2.1.4.6.6.6.2 0 .4-.1.5-.1.2 0 .4 0 .6-.1.2-.1.1-.3.3-.5.1-.1.3 0 .4-.1.2-.1.3-.3.4-.5v-.2c0-.1.1-.2.1-.3 0-.1-.1-.1-.1-.2v-.3c0-.2 0-.4-.1-.5-.4-.7-1.2-.9-2-.8-.2 0-.3.1-.4.2-.2.1-.1.2-.3.2-.1 0-.2.1-.2.2v.3M23.5-64v.2c-.1.1-.1.1-.2.1-.1.1-.1.3-.1.4-.2.1 0 .2 0 .3v.2c0 .1 0 .3.1.4.1.2.3.4.4.5.2.1.4.6.6.6.2 0 .4-.1.5-.1.2 0 .4 0 .6-.1.2-.1.1-.3.3-.5.1-.1.3 0 .4-.1.2-.1.3-.3.4-.5v-.2c0-.1.1-.2.1-.3 0-.1-.1-.1-.1-.2v-.3c0-.2 0-.4-.1-.5-.4-.7-1.2-.9-2-.8-.2 0-.3.1-.4.2-.2.1-.1.2-.3.2-.1 0-.2.1-.2.2v.3M15.8-64v.2c-.1.1-.1.1-.2.1-.1.1-.1.3-.1.4-.2.1 0 .2 0 .3v.2c0 .1 0 .3.1.4.1.2.3.4.4.5.2.1.4.6.6.6.2 0 .4-.1.5-.1.2 0 .4 0 .6-.1.2-.1.1-.3.3-.5.1-.1.3 0 .4-.1.2-.1.3-.3.4-.5v-.2c0-.1.1-.2.1-.3 0-.1-.1-.1-.1-.2v-.3c0-.2 0-.4-.1-.5-.4-.7-1.2-.9-2-.8-.2 0-.3.1-.4.2-.2.1-.1.2-.3.2-.1 0-.2.1-.2.2v.3M8.2-64v.2c-.1.1-.2.1-.2.1-.1.1-.1.3-.1.4-.2.1 0 .2 0 .3v.2c0 .1 0 .3.1.4 0 .2.2.4.3.5.2.1.4.6.6.6.2 0 .4-.1.5-.1.2 0 .4 0 .6-.1.2-.1.1-.3.3-.5.1-.1.3 0 .4-.1.2-.1.3-.3.4-.5v-.2c0-.1.1-.2.1-.3 0-.1-.1-.1-.1-.2v-.3c0-.2 0-.4-.1-.5-.4-.7-1.2-.9-2-.8-.2 0-.3.1-.4.2-.2.1-.1.2-.3.2-.1 0-.2.1-.2.2.1.3.1.2.1.3-.1 0-.1 0 0 0M.5-64v.2c-.1.1-.1.1-.2.1-.1.1-.1.3-.1.4-.2.1 0 .2 0 .3v.2c0 .1 0 .3.1.4.1.2.3.4.4.5.2.1.4.6.6.6.2 0 .4-.1.5-.1.2 0 .4 0 .6-.1.2-.1.1-.3.3-.5.1 0 .3.1.4 0 .2-.1.3-.3.4-.5v-.2c0-.1.1-.2.1-.3 0-.1-.1-.1-.1-.2v-.3c0-.2 0-.4-.1-.5-.4-.7-1.2-.9-2-.8-.2 0-.3.1-.4.2-.2.1-.1.2-.3.2-.1 0-.2.1-.2.2v.2"/><g><path class="st2" d="M69.4-56.3v.2c-.1.1-.1.1-.2.1-.1.1-.1.3-.1.4-.2.1 0 .2 0 .3v.2c0 .1 0 .3.1.4.1.2.3.4.4.5.2.1.4.6.6.6.2 0 .4-.1.5-.1.2 0 .4 0 .6-.1.2-.1.1-.3.3-.5.1-.1.3 0 .4-.1.2-.1.3-.3.4-.5v-.2c0-.1.1-.2.1-.3 0-.1-.1-.1-.1-.2v-.3c0-.2 0-.4-.1-.5-.4-.7-1.2-.9-2-.8-.2 0-.3.1-.4.2-.2.1-.1.2-.3.2-.1 0-.2.1-.2.2v.3M61.8-56.3v.2c-.1.1-.1.1-.2.1-.1.1-.1.3-.1.4-.2.1 0 .2 0 .3v.2c0 .1 0 .3.1.4.1.2.3.4.4.5.2.1.4.6.6.6.2 0 .4-.1.5-.1.2 0 .4 0 .6-.1.2-.1.1-.3.3-.5.1-.1.3 0 .4-.1.2-.1.3-.3.4-.5v-.2c0-.1.1-.2.1-.3 0-.1-.1-.1-.1-.2v-.3c0-.2 0-.4-.1-.5-.4-.7-1.2-.9-2-.8-.2 0-.3.1-.4.2-.2.1-.1.2-.3.2-.1 0-.2.1-.2.2v.3M54.1-56.3v.2c-.1 0-.1 0-.2.1s-.1.3-.1.4c-.2.1 0 .2 0 .3v.2c0 .1 0 .3.1.4.1.2.3.4.4.5.2.1.4.6.6.6.2 0 .4-.1.5-.1.2 0 .4 0 .6-.1.2-.1.1-.3.3-.5.1-.1.3 0 .4-.1.2-.1.3-.3.4-.5v-.2c0-.1.1-.2.1-.3 0-.1-.1-.1-.1-.2v-.3c0-.2 0-.4-.1-.5-.4-.7-1.2-.9-2-.8-.2 0-.3.1-.4.2-.2.1-.1.2-.3.2-.1 0-.2.1-.2.2v.3M46.5-56.3v.2c-.1.1-.1.1-.2.1-.1.1-.1.3-.1.4-.2.1 0 .2 0 .3v.2c0 .1 0 .3.1.4.1.2.3.4.4.5.2.1.4.6.6.6.2 0 .4-.1.5-.1.2 0 .4 0 .6-.1.2-.1.1-.3.3-.5.1-.1.3 0 .4-.1.2-.1.3-.3.4-.5v-.2c0-.1.1-.2.1-.3 0-.1-.1-.1-.1-.2v-.3c0-.2 0-.4-.1-.5-.4-.7-1.2-.9-2-.8-.2 0-.3.1-.4.2-.2.1-.1.2-.3.2-.1 0-.2.1-.2.2v.3M38.8-56.3v.2c-.1.1-.1.1-.2.1-.1.1-.1.3-.1.4-.2.1 0 .2 0 .3v.2c0 .1 0 .3.1.4.1.2.3.4.4.5.2.1.4.6.6.6.2 0 .4-.1.5-.1.2 0 .4 0 .6-.1.2-.1.1-.3.3-.5.1-.1.3 0 .4-.1.2-.1.3-.3.4-.5v-.2c0-.1.1-.2.1-.3 0-.1-.1-.1-.1-.2v-.3c0-.2 0-.4-.1-.5-.4-.7-1.2-.9-2-.8-.2 0-.3.1-.4.2-.2.1-.1.2-.3.2-.1 0-.2.1-.2.2v.3M31.1-56.3v.2c-.1.1-.1.1-.2.1-.1.1-.1.3-.1.4-.2.1 0 .2 0 .3v.2c0 .1 0 .3.1.4.1.2.3.4.4.5.2.1.4.6.6.6.2 0 .4-.1.5-.1.2 0 .4 0 .6-.1.2-.1.1-.3.3-.5.1-.1.3 0 .4-.1.2-.1.3-.3.4-.5v-.2c0-.1.1-.2.1-.3 0-.1-.1-.1-.1-.2v-.3c0-.2 0-.4-.1-.5-.4-.7-1.2-.9-2-.8-.2 0-.3.1-.4.2-.2.1-.1.2-.3.2-.1 0-.2.1-.2.2v.3M23.5-56.3v.2c-.1.1-.1.1-.2.1-.1.1-.1.3-.1.4-.2.1 0 .2 0 .3v.2c0 .1 0 .3.1.4.1.2.3.4.4.5.2.1.4.6.6.6.2 0 .4-.1.5-.1.2 0 .4 0 .6-.1.2-.1.1-.3.3-.5.1-.1.3 0 .4-.1.2-.1.3-.3.4-.5v-.2c0-.1.1-.2.1-.3 0-.1-.1-.1-.1-.2v-.3c0-.2 0-.4-.1-.5-.4-.7-1.2-.9-2-.8-.2 0-.3.1-.4.2-.2.1-.1.2-.3.2-.1 0-.2.1-.2.2v.3M15.8-56.3v.2c-.1.1-.1.1-.2.1-.1.1-.1.3-.1.4-.2.1 0 .2 0 .3v.2c0 .1 0 .3.1.4.1.2.3.4.4.5.2.1.4.6.6.6.2 0 .4-.1.5-.1.2 0 .4 0 .6-.1.2-.1.1-.3.3-.5.1-.1.3 0 .4-.1.2-.1.3-.3.4-.5v-.2c0-.1.1-.2.1-.3 0-.1-.1-.1-.1-.2v-.3c0-.2 0-.4-.1-.5-.4-.7-1.2-.9-2-.8-.2 0-.3.1-.4.2-.2.1-.1.2-.3.2-.1 0-.2.1-.2.2v.3M8.2-56.3v.2c-.1 0-.2 0-.2.1-.1.1-.1.3-.1.4-.2.1 0 .2 0 .3v.2c0 .1 0 .3.1.4.1.2.3.4.4.5.2.1.4.6.6.6.2 0 .4-.1.5-.1.2 0 .4 0 .6-.1.2-.1.1-.3.3-.5.1-.1.3 0 .4-.1.2-.1.3-.3.4-.5v-.2c0-.1.1-.2.1-.3 0-.1-.1-.1-.1-.2v-.3c0-.2 0-.4-.1-.5-.4-.7-1.2-.9-2-.8-.2 0-.3.1-.4.2-.2.1-.1.2-.3.2-.1 0-.2.1-.2.2v.3c-.1 0-.1 0 0 0M.5-56.3v.2c-.1.1-.1.1-.2.1-.1.1-.1.3-.1.4-.2.1 0 .2 0 .3v.2c0 .1 0 .3.1.4.1.2.3.4.4.5.2.1.4.6.6.6.2 0 .4-.1.5-.1.2 0 .4 0 .6-.1.2-.1.1-.3.3-.5.1-.1.3 0 .4-.1.2-.1.3-.3.4-.5v-.2c0-.1.1-.2.1-.3 0-.1-.1-.1-.1-.2v-.3c0-.2 0-.4-.1-.5-.4-.7-1.2-.9-2-.8-.2 0-.3.1-.4.2-.2.1-.1.2-.3.2-.1 0-.2.1-.2.2v.3"/></g><g><path class="st2" d="M69.4-48.7v.2c-.1.1-.1.1-.2.1-.1.1-.1.3-.1.4-.2.1 0 .2 0 .3v.2c0 .1 0 .3.1.4.1.2.3.4.4.5.2.1.4.6.6.6.2 0 .4-.1.5-.1.2 0 .4 0 .6-.1.2-.1.1-.3.3-.5.1-.1.3 0 .4-.1.2-.1.3-.3.4-.5v-.2c0-.1.1-.2.1-.3 0-.1-.1-.1-.1-.2v-.3c0-.2 0-.4-.1-.5-.4-.7-1.2-.9-2-.8-.2 0-.3.1-.4.2-.2.1-.1.2-.3.2-.1 0-.2.1-.2.2v.3M61.8-48.7v.2c-.1.1-.1.1-.2.1-.1.1-.1.3-.1.4-.2.1 0 .2 0 .3v.2c0 .1 0 .3.1.4.1.2.3.4.4.5.2.1.4.6.6.6.2 0 .4-.1.5-.1.2 0 .4 0 .6-.1.2-.1.1-.3.3-.5.1-.1.3 0 .4-.1.2-.1.3-.3.4-.5v-.2c0-.1.1-.2.1-.3 0-.1-.1-.1-.1-.2v-.3c0-.2 0-.4-.1-.5-.4-.7-1.2-.9-2-.8-.2 0-.3.1-.4.2-.2.1-.1.2-.3.2-.1 0-.2.1-.2.2v.3M54.1-48.7v.2c-.1.1-.1.1-.2.1-.1.1-.1.3-.1.4-.2.1 0 .2 0 .3v.2c0 .1 0 .3.1.4.1.2.3.4.4.5.2.1.4.6.6.6.2 0 .4-.1.5-.1.2 0 .4 0 .6-.1.2-.1.1-.3.3-.5.1-.1.3 0 .4-.1.2-.1.3-.3.4-.5v-.2c0-.1.1-.2.1-.3 0-.1-.1-.1-.1-.2v-.3c0-.2 0-.4-.1-.5-.4-.7-1.2-.9-2-.8-.2 0-.3.1-.4.2-.2.1-.1.2-.3.2-.1 0-.2.1-.2.2v.3M46.5-48.7v.2c-.1.1-.1.1-.2.1-.1.1-.1.3-.1.4-.2.1 0 .2 0 .3v.2c0 .1 0 .3.1.4.1.2.3.4.4.5.2.1.4.6.6.6.2 0 .4-.1.5-.1.2 0 .4 0 .6-.1.2-.1.1-.3.3-.5.1-.1.3 0 .4-.1.2-.1.3-.3.4-.5v-.2c0-.1.1-.2.1-.3 0-.1-.1-.1-.1-.2v-.3c0-.2 0-.4-.1-.5-.4-.7-1.2-.9-2-.8-.2 0-.3.1-.4.2-.2.1-.1.2-.3.2-.1 0-.2.1-.2.2v.3M38.8-48.7v.2c-.1.1-.1.1-.2.1-.1.1-.1.3-.1.4-.2.1 0 .2 0 .3v.2c0 .1 0 .3.1.4.1.2.3.4.4.5.2.1.4.6.6.6.2 0 .4-.1.5-.1.2 0 .4 0 .6-.1.2-.1.1-.3.3-.5.1-.1.3 0 .4-.1.2-.1.3-.3.4-.5v-.2c0-.1.1-.2.1-.3 0-.1-.1-.1-.1-.2v-.3c0-.2 0-.4-.1-.5-.4-.7-1.2-.9-2-.8-.2 0-.3.1-.4.2-.2.1-.1.2-.3.2-.1 0-.2.1-.2.2v.3M31.1-48.7v.2c-.1.1-.1.1-.2.1-.1.1-.1.3-.1.4-.2.1 0 .2 0 .3v.2c0 .1 0 .3.1.4.1.2.3.4.4.5.2.1.4.6.6.6.2 0 .4-.1.5-.1.2 0 .4 0 .6-.1.2-.1.1-.3.3-.5.1-.1.3 0 .4-.1.2-.1.3-.3.4-.5v-.2c0-.1.1-.2.1-.3 0-.1-.1-.1-.1-.2v-.3c0-.2 0-.4-.1-.5-.4-.7-1.2-.9-2-.8-.2 0-.3.1-.4.2-.2.1-.1.2-.3.2-.1 0-.2.1-.2.2v.3M23.5-48.7v.2c-.1.1-.1.1-.2.1-.1.1-.1.3-.1.4-.2.1 0 .2 0 .3v.2c0 .1 0 .3.1.4.1.2.3.4.4.5.2.1.4.6.6.6.2 0 .4-.1.5-.1.2 0 .4 0 .6-.1.2-.1.1-.3.3-.5.1-.1.3 0 .4-.1.2-.1.3-.3.4-.5v-.2c0-.1.1-.2.1-.3 0-.1-.1-.1-.1-.2v-.3c0-.2 0-.4-.1-.5-.4-.7-1.2-.9-2-.8-.2 0-.3.1-.4.2-.2.1-.1.2-.3.2-.1 0-.2.1-.2.2v.3M15.8-48.7v.2c-.1.1-.1.1-.2.1-.1.1-.1.3-.1.4-.2.1 0 .2 0 .3v.2c0 .1 0 .3.1.4.1.2.3.4.4.5.2.1.4.6.6.6.2 0 .4-.1.5-.1.2 0 .4 0 .6-.1.2-.1.1-.3.3-.5.1-.1.3 0 .4-.1.2-.1.3-.3.4-.5v-.2c0-.1.1-.2.1-.3 0-.1-.1-.1-.1-.2v-.3c0-.2 0-.4-.1-.5-.4-.7-1.2-.9-2-.8-.2 0-.3.1-.4.2-.2.1-.1.2-.3.2-.1 0-.2.1-.2.2v.3M8.2-48.7v.2c-.1.1-.2.1-.2.1-.1.1-.1.3-.1.4-.2.1 0 .2 0 .3v.2c0 .1 0 .3.1.4.1.2.3.4.4.5.1.2.3.6.5.6s.4-.1.5-.1c.2 0 .4 0 .6-.1.2-.1.1-.3.3-.5.1-.1.3 0 .4-.1.2-.1.3-.3.4-.5v-.2c0-.1.1-.2.1-.3 0-.1-.1-.1-.1-.2v-.3c0-.2 0-.4-.1-.5-.4-.7-1.2-.9-2-.8-.2 0-.3.1-.4.2-.2.1-.1.2-.3.2-.1 0-.2.1-.2.2.1.3.1.2.1.3-.1 0-.1 0 0 0M.5-48.7v.2c-.1.1-.1.1-.2.1-.1.1-.1.3-.1.4-.2.1 0 .2 0 .3v.2c0 .1 0 .3.1.4.1.2.3.4.4.5.2.2.3.6.6.6.2 0 .4-.1.5-.1.2 0 .4 0 .6-.1.2-.1.1-.3.3-.5.1-.1.3 0 .4-.1.2-.1.3-.3.4-.5v-.2c0-.1.1-.2.1-.3 0-.1-.1-.1-.1-.2v-.3c0-.2 0-.4-.1-.5-.4-.7-1.2-.9-2-.8-.2 0-.3.1-.4.2-.2.1-.1.2-.3.2-.1 0-.2.1-.2.2v.3"/></g><g><path class="st2" d="M69.4-41v.2c-.1.1-.1.1-.2.1-.1.1-.1.3-.1.4-.2.1 0 .2 0 .3v.2c0 .1 0 .3.1.4.1.2.3.4.4.5.2.1.4.6.6.6.2 0 .4-.1.5-.1.2 0 .4 0 .6-.1.2-.1.1-.3.3-.5.1-.1.3 0 .4-.1.2-.1.3-.3.4-.5v-.2c0-.1.1-.2.1-.3 0-.1-.1-.1-.1-.2v-.3c0-.2 0-.4-.1-.5-.4-.7-1.2-.9-2-.8-.2 0-.3.1-.4.2-.2.1-.1.2-.3.2-.1 0-.2.1-.2.2v.3M61.8-41v.2c-.1.1-.1.1-.2.1-.1.1-.1.3-.1.4-.2.1 0 .2 0 .3v.2c0 .1 0 .3.1.4.1.2.3.4.4.5.2.1.4.6.6.6.2 0 .4-.1.5-.1.2 0 .4 0 .6-.1.2-.1.1-.3.3-.5.1-.1.3 0 .4-.1.2-.1.3-.3.4-.5v-.2c0-.1.1-.2.1-.3 0-.1-.1-.1-.1-.2v-.3c0-.2 0-.4-.1-.5-.4-.7-1.2-.9-2-.8-.2 0-.3.1-.4.2-.2.1-.1.2-.3.2-.1 0-.2.1-.2.2v.3M54.1-41v.2c-.1.1-.1.1-.2.1-.1.1-.1.3-.1.4-.2.1 0 .2 0 .3v.2c0 .1 0 .3.1.4.1.2.3.4.4.5.2.1.4.6.6.6.2 0 .4-.1.5-.1.2 0 .4 0 .6-.1.2-.1.1-.3.3-.5.1-.1.3 0 .4-.1.2-.1.3-.3.4-.5v-.2c0-.1.1-.2.1-.3 0-.1-.1-.1-.1-.2v-.3c0-.2 0-.4-.1-.5-.4-.7-1.2-.9-2-.8-.2 0-.3.1-.4.2-.2.1-.1.2-.3.2-.1 0-.2.1-.2.2v.3M46.5-41v.2c-.1.1-.1.1-.2.1-.1.1-.1.3-.1.4-.2.1 0 .2 0 .3v.2c0 .1 0 .3.1.4.1.2.3.4.4.5.2.1.4.6.6.6.2 0 .4-.1.5-.1.2 0 .4 0 .6-.1.2-.1.1-.3.3-.5.1-.1.3 0 .4-.1.2-.1.3-.3.4-.5v-.2c0-.1.1-.2.1-.3 0-.1-.1-.1-.1-.2v-.3c0-.2 0-.4-.1-.5-.4-.7-1.2-.9-2-.8-.2 0-.3.1-.4.2-.2.1-.1.2-.3.2-.1 0-.2.1-.2.2v.3M38.8-41v.2c-.1.1-.1.1-.2.1-.1.1-.1.3-.1.4-.2.1 0 .2 0 .3v.2c0 .1 0 .3.1.4.1.2.3.4.4.5.2.1.4.6.6.6.2 0 .4-.1.5-.1.2 0 .4 0 .6-.1.2-.1.1-.3.3-.5.1-.1.3 0 .4-.1.2-.1.3-.3.4-.5v-.2c0-.1.1-.2.1-.3 0-.1-.1-.1-.1-.2v-.3c0-.2 0-.4-.1-.5-.4-.7-1.2-.9-2-.8-.2 0-.3.1-.4.2-.2.1-.1.2-.3.2-.1 0-.2.1-.2.2v.3M31.1-41v.2c-.1.1-.1.1-.2.1-.1.1-.1.3-.1.4-.2.1 0 .2 0 .3v.2c0 .1 0 .3.1.4.1.2.3.4.4.5.2.1.4.6.6.6.2 0 .4-.1.5-.1.2 0 .4 0 .6-.1.2-.1.1-.3.3-.5.1-.1.3 0 .4-.1.2-.1.3-.3.4-.5v-.2c0-.1.1-.2.1-.3 0-.1-.1-.1-.1-.2v-.3c0-.2 0-.4-.1-.5-.4-.7-1.2-.9-2-.8-.2 0-.3.1-.4.2-.2.1-.1.2-.3.2-.1 0-.2.1-.2.2v.3M23.5-41v.2c-.1.1-.1.1-.2.1-.1.1-.1.3-.1.4-.2.1 0 .2 0 .3v.2c0 .1 0 .3.1.4.1.2.3.4.4.5.2.1.4.6.6.6.2 0 .4-.1.5-.1.2 0 .4 0 .6-.1.2-.1.1-.3.3-.5.1-.1.3 0 .4-.1.2-.1.3-.3.4-.5v-.2c0-.1.1-.2.1-.3 0-.1-.1-.1-.1-.2v-.3c0-.2 0-.4-.1-.5-.4-.7-1.2-.9-2-.8-.2 0-.3.1-.4.2-.2.1-.1.2-.3.2-.1 0-.2.1-.2.2v.3M15.8-41v.2c-.1.1-.1.1-.2.1-.1.1-.1.3-.1.4-.2.1 0 .2 0 .3v.2c0 .1 0 .3.1.4.1.2.3.4.4.5.2.1.4.6.6.6.2 0 .4-.1.5-.1.2 0 .4 0 .6-.1.2-.1.1-.3.3-.5.1-.1.3 0 .4-.1.2-.1.3-.3.4-.5v-.2c0-.1.1-.2.1-.3 0-.1-.1-.1-.1-.2v-.3c0-.2 0-.4-.1-.5-.4-.7-1.2-.9-2-.8-.2 0-.3.1-.4.2-.2.1-.1.2-.3.2-.1 0-.2.1-.2.2v.3M8.2-41v.2c-.1 0-.2 0-.2.1-.1.1-.1.3-.1.4-.2.1 0 .2 0 .3v.2c0 .1 0 .3.1.4.1.2.3.4.4.5.2.1.4.6.6.6.2 0 .4-.1.5-.1.2 0 .4 0 .6-.1.2-.1.1-.3.3-.5.1-.1.3 0 .4-.1.2-.1.3-.3.4-.5v-.2c0-.1.1-.2.1-.3 0-.1-.1-.1-.1-.2v-.3c0-.2 0-.4-.1-.5-.4-.7-1.2-.9-2-.8-.2 0-.3.1-.4.2-.2.1-.1.2-.3.2-.1 0-.2.1-.2.2v.3c-.1 0-.1 0 0 0M.5-41v.2c-.1.1-.1.1-.2.1-.1.1-.1.3-.1.4-.2.1 0 .2 0 .3v.2c0 .1 0 .3.1.4.1.2.3.4.4.5.2.1.4.6.6.6.2 0 .4-.1.5-.1.2 0 .4 0 .6-.1.2-.1.1-.3.3-.5h.4c.2-.1.3-.3.4-.5v-.2c0-.1.1-.2.1-.3 0-.1-.1-.1-.1-.2v-.3c0-.2 0-.4-.1-.5-.4-.7-1.2-.9-2-.8-.2 0-.3.1-.4.2-.2.1-.1.2-.3.2-.1 0-.2.1-.2.2v.2"/></g><g><path class="st2" d="M69.4-33.4v.2c-.1.1-.1.1-.2.1-.1.1-.1.3-.1.4-.2.1 0 .2 0 .3v.2c0 .1 0 .3.1.4.1.2.3.4.4.5.2.1.4.6.6.6.2 0 .4-.1.5-.1.2 0 .4 0 .6-.1.2-.1.1-.3.3-.5.1-.1.3 0 .4-.1.2-.1.3-.3.4-.5v-.2c0-.1.1-.2.1-.3 0-.1-.1-.1-.1-.2v-.3c0-.2 0-.4-.1-.5-.4-.7-1.2-.9-2-.8-.2 0-.3.1-.4.2-.2.1-.1.2-.3.2-.1 0-.2.1-.2.2v.3M61.8-33.4v.2c-.1.1-.1.1-.2.1-.1.1-.1.3-.1.4-.2.1 0 .2 0 .3v.2c0 .1 0 .3.1.4.1.2.3.4.4.5.2.1.4.6.6.6.2 0 .4-.1.5-.1.2 0 .4 0 .6-.1.2-.1.1-.3.3-.5.1-.1.3 0 .4-.1.2-.1.3-.3.4-.5v-.2c0-.1.1-.2.1-.3 0-.1-.1-.1-.1-.2v-.3c0-.2 0-.4-.1-.5-.4-.7-1.2-.9-2-.8-.2 0-.3.1-.4.2-.2.1-.1.2-.3.2-.1 0-.2.1-.2.2v.3M54.1-33.4v.2c-.1.1-.1.1-.2.1-.1.1-.1.3-.1.4-.2.1 0 .2 0 .3v.2c0 .1 0 .3.1.4.1.2.3.4.4.5.2.1.4.6.6.6.2 0 .4-.1.5-.1.2 0 .4 0 .6-.1.2-.1.1-.3.3-.5.1-.1.3 0 .4-.1.2-.1.3-.3.4-.5v-.2c0-.1.1-.2.1-.3 0-.1-.1-.1-.1-.2v-.3c0-.2 0-.4-.1-.5-.4-.7-1.2-.9-2-.8-.2 0-.3.1-.4.2-.2.1-.1.2-.3.2-.1 0-.2.1-.2.2v.3M46.5-33.4v.2c-.1.1-.1.1-.2.1-.1.1-.1.3-.1.4-.2.1 0 .2 0 .3v.2c0 .1 0 .3.1.4.1.2.3.4.4.5.2.1.4.6.6.6.2 0 .4-.1.5-.1.2 0 .4 0 .6-.1.2-.1.1-.3.3-.5.1-.1.3 0 .4-.1.2-.1.3-.3.4-.5v-.2c0-.1.1-.2.1-.3 0-.1-.1-.1-.1-.2v-.3c0-.2 0-.4-.1-.5-.4-.7-1.2-.9-2-.8-.2 0-.3.1-.4.2-.2.1-.1.2-.3.2-.1 0-.2.1-.2.2v.3M38.8-33.4v.2c-.1.1-.1.1-.2.1-.1.1-.1.3-.1.4-.2.1 0 .2 0 .3v.2c0 .1 0 .3.1.4.1.2.3.4.4.5.2.1.4.6.6.6.2 0 .4-.1.5-.1.2 0 .4 0 .6-.1.2-.1.1-.3.3-.5.1-.1.3 0 .4-.1.2-.1.3-.3.4-.5v-.2c0-.1.1-.2.1-.3 0-.1-.1-.1-.1-.2v-.3c0-.2 0-.4-.1-.5-.4-.7-1.2-.9-2-.8-.2 0-.3.1-.4.2-.2.1-.1.2-.3.2-.1 0-.2.1-.2.2v.3M31.1-33.4v.2c-.1.1-.1.1-.2.1-.1.1-.1.3-.1.4-.2.1 0 .2 0 .3v.2c0 .1 0 .3.1.4.1.2.3.4.4.5.2.1.4.6.6.6.2 0 .4-.1.5-.1.2 0 .4 0 .6-.1.2-.1.1-.3.3-.5.1-.1.3 0 .4-.1.2-.1.3-.3.4-.5v-.2c0-.1.1-.2.1-.3 0-.1-.1-.1-.1-.2v-.3c0-.2 0-.4-.1-.5-.4-.7-1.2-.9-2-.8-.2 0-.3.1-.4.2-.2.1-.1.2-.3.2-.1 0-.2.1-.2.2v.3M23.5-33.4v.2c-.1.1-.1.1-.2.1-.1.1-.1.3-.1.4-.2.1 0 .2 0 .3v.2c0 .1 0 .3.1.4.1.2.3.4.4.5.2.1.4.6.6.6.2 0 .4-.1.5-.1.2 0 .4 0 .6-.1.2-.1.1-.3.3-.5.1-.1.3 0 .4-.1.2-.1.3-.3.4-.5v-.2c0-.1.1-.2.1-.3 0-.1-.1-.1-.1-.2v-.3c0-.2 0-.4-.1-.5-.4-.7-1.2-.9-2-.8-.2 0-.3.1-.4.2-.2.1-.1.2-.3.2-.1 0-.2.1-.2.2v.3M15.8-33.4v.2c-.1.1-.1.1-.2.1-.1.1-.1.3-.1.4-.2.1 0 .2 0 .3v.2c0 .1 0 .3.1.4.1.2.3.4.4.5.2.1.4.6.6.6.2 0 .4-.1.5-.1.2 0 .4 0 .6-.1.2-.1.1-.3.3-.5.1-.1.3 0 .4-.1.2-.1.3-.3.4-.5v-.2c0-.1.1-.2.1-.3 0-.1-.1-.1-.1-.2v-.3c0-.2 0-.4-.1-.5-.4-.7-1.2-.9-2-.8-.2 0-.3.1-.4.2-.2.1-.1.2-.3.2-.1 0-.2.1-.2.2v.3M8.2-33.4v.2c-.1.1-.2.1-.2.1-.1.1-.1.3-.1.4-.2.1 0 .2 0 .3v.2c0 .1 0 .3.1.4.1.2.3.4.4.5.2.1.4.6.6.6.2 0 .4-.1.5-.1.2 0 .4 0 .6-.1.2-.1.1-.3.3-.5.1-.1.3 0 .4-.1.2-.1.3-.3.4-.5v-.2c0-.1.1-.2.1-.3 0-.1-.1-.1-.1-.2v-.3c0-.2 0-.4-.1-.5-.4-.7-1.2-.9-2-.8-.2 0-.3.1-.4.2-.2.1-.1.2-.3.2-.1 0-.2.1-.2.2v.3c-.1 0-.1 0 0 0M.5-33.4v.2c-.1.1-.1.1-.2.1-.1.1-.1.3-.1.4-.2.1 0 .2 0 .3v.2c0 .1 0 .3.1.4.1.2.3.4.4.5.2.1.4.6.6.6.2 0 .4-.1.5-.1.2 0 .4 0 .6-.1.2-.1.1-.3.3-.5.1-.1.3 0 .4-.1.2-.1.3-.3.4-.5v-.2c0-.1.1-.2.1-.3 0-.1-.1-.1-.1-.2v-.3c0-.2 0-.4-.1-.5-.4-.7-1.2-.9-2-.8-.2 0-.3.1-.4.2-.2.1-.1.2-.3.2-.1 0-.2.1-.2.2v.3"/></g><g><path class="st2" d="M69.4-25.7v.2c-.1.1-.1.1-.2.1-.1.1-.1.3-.1.4-.2.1 0 .2 0 .3v.2c0 .1 0 .3.1.4.1.2.3.4.4.5.2.1.4.6.6.6.2 0 .4-.1.5-.1.2 0 .4 0 .6-.1.2-.1.1-.3.3-.5.1-.1.3 0 .4-.1.2-.1.3-.3.4-.5v-.2c0-.1.1-.2.1-.3 0-.1-.1-.1-.1-.2v-.3c0-.2 0-.4-.1-.5-.4-.7-1.2-.9-2-.8-.2 0-.3.1-.4.2-.2.1-.1.2-.3.2-.1 0-.2.1-.2.2v.3M61.8-25.7v.2c-.1.1-.1.1-.2.1-.1.1-.1.3-.1.4-.2.1 0 .2 0 .3v.2c0 .1 0 .3.1.4.1.2.3.4.4.5.2.1.4.6.6.6.2 0 .4-.1.5-.1.2 0 .4 0 .6-.1.2-.1.1-.3.3-.5.1-.1.3 0 .4-.1.2-.1.3-.3.4-.5v-.2c0-.1.1-.2.1-.3 0-.1-.1-.1-.1-.2v-.3c0-.2 0-.4-.1-.5-.4-.7-1.2-.9-2-.8-.2 0-.3.1-.4.2-.2.1-.1.2-.3.2-.1 0-.2.1-.2.2v.3M54.1-25.7v.2c-.1.1-.1.1-.2.1-.1.1-.1.3-.1.4-.2.1 0 .2 0 .3v.2c0 .1 0 .3.1.4.1.2.3.4.4.5.2.1.4.6.6.6.2 0 .4-.1.5-.1.2 0 .4 0 .6-.1.2-.1.1-.3.3-.5.1-.1.3 0 .4-.1.2-.1.3-.3.4-.5v-.2c0-.1.1-.2.1-.3 0-.1-.1-.1-.1-.2v-.3c0-.2 0-.4-.1-.5-.4-.7-1.2-.9-2-.8-.2 0-.3.1-.4.2-.2.1-.1.2-.3.2-.1 0-.2.1-.2.2v.3M46.5-25.7v.2c-.1.1-.1.1-.2.1-.1.1-.1.3-.1.4-.2.1 0 .2 0 .3v.2c0 .1 0 .3.1.4.1.2.3.4.4.5.2.1.4.6.6.6.2 0 .4-.1.5-.1.2 0 .4 0 .6-.1.2-.1.1-.3.3-.5.1-.1.3 0 .4-.1.2-.1.3-.3.4-.5v-.2c0-.1.1-.2.1-.3 0-.1-.1-.1-.1-.2v-.3c0-.2 0-.4-.1-.5-.4-.7-1.2-.9-2-.8-.2 0-.3.1-.4.2-.2.1-.1.2-.3.2-.1 0-.2.1-.2.2v.3M38.8-25.7v.2c-.1.1-.1.1-.2.1-.1.1-.1.3-.1.4-.2.1 0 .2 0 .3v.2c0 .1 0 .3.1.4.1.2.3.4.4.5.2.1.4.6.6.6.2 0 .4-.1.5-.1.2 0 .4 0 .6-.1.2-.1.1-.3.3-.5.1-.1.3 0 .4-.1.2-.1.3-.3.4-.5v-.2c0-.1.1-.2.1-.3 0-.1-.1-.1-.1-.2v-.3c0-.2 0-.4-.1-.5-.4-.7-1.2-.9-2-.8-.2 0-.3.1-.4.2-.2.1-.1.2-.3.2-.1 0-.2.1-.2.2v.3M31.1-25.7v.2c-.1.1-.1.1-.2.1-.1.1-.1.3-.1.4-.2.1 0 .2 0 .3v.2c0 .1 0 .3.1.4.1.2.3.4.4.5.2.1.4.6.6.6.2 0 .4-.1.5-.1.2 0 .4 0 .6-.1.2-.1.1-.3.3-.5.1-.1.3 0 .4-.1.2-.1.3-.3.4-.5v-.2c0-.1.1-.2.1-.3 0-.1-.1-.1-.1-.2v-.3c0-.2 0-.4-.1-.5-.4-.7-1.2-.9-2-.8-.2 0-.3.1-.4.2-.2.1-.1.2-.3.2-.1 0-.2.1-.2.2v.3M23.5-25.7v.2c-.1.1-.1.1-.2.1-.1.1-.1.3-.1.4-.2.1 0 .2 0 .3v.2c0 .1 0 .3.1.4.1.2.3.4.4.5.2.1.4.6.6.6.2 0 .4-.1.5-.1.2 0 .4 0 .6-.1.2-.1.1-.3.3-.5.1-.1.3 0 .4-.1.2-.1.3-.3.4-.5v-.2c0-.1.1-.2.1-.3 0-.1-.1-.1-.1-.2v-.3c0-.2 0-.4-.1-.5-.4-.7-1.2-.9-2-.8-.2 0-.3.1-.4.2-.2.1-.1.2-.3.2-.1 0-.2.1-.2.2v.3M15.8-25.7v.2c-.1.1-.1.1-.2.1-.1.1-.1.3-.1.4-.2.1 0 .2 0 .3v.2c0 .1 0 .3.1.4.1.2.3.4.4.5.2.1.4.6.6.6.2 0 .4-.1.5-.1.2 0 .4 0 .6-.1.2-.1.1-.3.3-.5.1-.1.3 0 .4-.1.2-.1.3-.3.4-.5v-.2c0-.1.1-.2.1-.3 0-.1-.1-.1-.1-.2v-.3c0-.2 0-.4-.1-.5-.4-.7-1.2-.9-2-.8-.2 0-.3.1-.4.2-.2.1-.1.2-.3.2-.1 0-.2.1-.2.2v.3M8.2-25.7v.2c-.1.1-.2 0-.2.1-.1.1-.1.3-.1.4-.2.1 0 .2 0 .3v.2c0 .1 0 .3.1.4 0 .1.2.3.3.5.2.1.4.6.6.6.2 0 .4-.1.5-.1.2 0 .4 0 .6-.1.2-.1.1-.3.3-.5.1-.1.3 0 .4-.1.2-.1.3-.3.4-.5v-.2c0-.1.1-.2.1-.3 0-.1-.1-.1-.1-.2v-.3c0-.2 0-.4-.1-.5-.4-.7-1.2-.9-2-.8-.2 0-.3.1-.4.2-.2.1-.1.2-.3.2-.1 0-.2.1-.2.2.1.2.1.2.1.3-.1 0-.1 0 0 0M.5-25.7v.2c-.1.1-.1.1-.2.1-.1.1-.1.3-.1.4-.2.1 0 .2 0 .3v.2c0 .1 0 .3.1.4.1.2.3.4.4.5.2.1.3.5.6.6.2 0 .4-.1.5-.1.2 0 .4 0 .6-.1.2-.1.1-.3.3-.5.1-.1.3 0 .4-.1.2-.1.3-.3.4-.5v-.2c0-.1.1-.2.1-.3 0-.1-.1-.1-.1-.2v-.3c0-.2 0-.4-.1-.5-.4-.7-1.2-.9-2-.8-.2 0-.3.1-.4.2-.2.1-.1.2-.3.2-.1 0-.2.1-.2.2v.3"/></g><g><path class="st2" d="M69.4-18.1v.2c-.1.1-.1.1-.2.1-.1.1-.1.3-.1.4-.2.1 0 .2 0 .3v.2c0 .1 0 .3.1.4.1.2.3.4.4.5.2.1.4.6.6.6.2 0 .4-.1.5-.1.2 0 .4 0 .6-.1.2-.1.1-.3.3-.5.1-.1.3 0 .4-.1.2-.1.3-.3.4-.5v-.2c0-.1.1-.2.1-.3 0-.1-.1-.1-.1-.2v-.3c0-.2 0-.4-.1-.5-.4-.7-1.2-.9-2-.8-.2 0-.3.1-.4.2-.2.1-.1.2-.3.2-.1 0-.2.1-.2.2v.3c0 .1 0 0 0 0M61.8-18.1v.2c-.1.1-.1.1-.2.1-.1.1-.1.3-.1.4-.2.1 0 .2 0 .3v.2c0 .1 0 .3.1.4.1.2.3.4.4.5.2.1.4.6.6.6.2 0 .4-.1.5-.1.2 0 .4 0 .6-.1.2-.1.1-.3.3-.5.1-.1.3 0 .4-.1.2-.1.3-.3.4-.5v-.2c0-.1.1-.2.1-.3 0-.1-.1-.1-.1-.2v-.3c0-.2 0-.4-.1-.5-.4-.7-1.2-.9-2-.8-.2 0-.3.1-.4.2-.2.1-.1.2-.3.2-.1 0-.2.1-.2.2v.3c0 .1 0 0 0 0M54.1-18.1v.2c-.1.1-.1.1-.2.1-.1.1-.1.3-.1.4-.2.1 0 .2 0 .3v.2c0 .1 0 .3.1.4.1.2.3.4.4.5.2.1.4.6.6.6.2 0 .4-.1.5-.1.2 0 .4 0 .6-.1.2-.1.1-.3.3-.5.1-.1.3 0 .4-.1.2-.1.3-.3.4-.5v-.2c0-.1.1-.2.1-.3 0-.1-.1-.1-.1-.2v-.3c0-.2 0-.4-.1-.5-.4-.7-1.2-.9-2-.8-.2 0-.3.1-.4.2-.2.1-.1.2-.3.2-.1 0-.2.1-.2.2v.3c0 .1 0 0 0 0M46.5-18.1v.2c-.1.1-.1.1-.2.1-.1.1-.1.3-.1.4-.2.1 0 .2 0 .3v.2c0 .1 0 .3.1.4.1.2.3.4.4.5.2.1.4.6.6.6.2 0 .4-.1.5-.1.2 0 .4 0 .6-.1.2-.1.1-.3.3-.5.1-.1.3 0 .4-.1.2-.1.3-.3.4-.5v-.2c0-.1.1-.2.1-.3 0-.1-.1-.1-.1-.2v-.3c0-.2 0-.4-.1-.5-.4-.7-1.2-.9-2-.8-.2 0-.3.1-.4.2-.2.1-.1.2-.3.2-.1 0-.2.1-.2.2v.3c0 .1 0 0 0 0M38.8-18.1v.2c-.1.1-.1.1-.2.1-.1.1-.1.3-.1.4-.2.1 0 .2 0 .3v.2c0 .1 0 .3.1.4.1.2.3.4.4.5.2.1.4.6.6.6.2 0 .4-.1.5-.1.2 0 .4 0 .6-.1.2-.1.1-.3.3-.5.1-.1.3 0 .4-.1.2-.1.3-.3.4-.5v-.2c0-.1.1-.2.1-.3 0-.1-.1-.1-.1-.2v-.3c0-.2 0-.4-.1-.5-.4-.7-1.2-.9-2-.8-.2 0-.3.1-.4.2-.2.1-.1.2-.3.2-.1 0-.2.1-.2.2v.3c0 .1 0 0 0 0M31.1-18.1v.2c-.1.1-.1.1-.2.1-.1.1-.1.3-.1.4-.2.1 0 .2 0 .3v.2c0 .1 0 .3.1.4.1.2.3.4.4.5.2.1.4.6.6.6.2 0 .4-.1.5-.1.2 0 .4 0 .6-.1.2-.1.1-.3.3-.5.1-.1.3 0 .4-.1.2-.1.3-.3.4-.5v-.2c0-.1.1-.2.1-.3 0-.1-.1-.1-.1-.2v-.3c0-.2 0-.4-.1-.5-.4-.7-1.2-.9-2-.8-.2 0-.3.1-.4.2-.2.1-.1.2-.3.2-.1 0-.2.1-.2.2v.3c0 .1 0 0 0 0M23.5-18.1v.2c-.1.1-.1.1-.2.1-.1.1-.1.3-.1.4-.2.1 0 .2 0 .3v.2c0 .1 0 .3.1.4.1.2.3.4.4.5.2.1.4.6.6.6.2 0 .4-.1.5-.1.2 0 .4 0 .6-.1.2-.1.1-.3.3-.5.1-.1.3 0 .4-.1.2-.1.3-.3.4-.5v-.2c0-.1.1-.2.1-.3 0-.1-.1-.1-.1-.2v-.3c0-.2 0-.4-.1-.5-.4-.7-1.2-.9-2-.8-.2 0-.3.1-.4.2-.2.1-.1.2-.3.2-.1 0-.2.1-.2.2v.3c0 .1 0 0 0 0M15.8-18.1v.2c-.1.1-.1.1-.2.1-.1.1-.1.3-.1.4-.2.1 0 .2 0 .3v.2c0 .1 0 .3.1.4.1.2.3.4.4.5.2.1.4.6.6.6.2 0 .4-.1.5-.1.2 0 .4 0 .6-.1.2-.1.1-.3.3-.5.1-.1.3 0 .4-.1.2-.1.3-.3.4-.5v-.2c0-.1.1-.2.1-.3 0-.1-.1-.1-.1-.2v-.3c0-.2 0-.4-.1-.5-.4-.7-1.2-.9-2-.8-.2 0-.3.1-.4.2-.2.1-.1.2-.3.2-.1 0-.2.1-.2.2v.3c0 .1 0 0 0 0M8.2-18.1v.2c-.1.1-.2.1-.2.1-.1.1-.1.3-.1.4-.2.1 0 .2 0 .3v.2c0 .1 0 .3.1.4 0 .2.2.4.3.5.2.1.4.6.6.6.2 0 .4-.1.5-.1.2 0 .4 0 .6-.1.2-.1.1-.3.3-.5.1-.1.3 0 .4-.1.2-.1.3-.3.4-.5v-.2c0-.1.1-.2.1-.3 0-.1-.1-.1-.1-.2v-.3c0-.2 0-.4-.1-.5-.4-.7-1.2-.9-2-.8-.2 0-.3.1-.4.2-.2.1-.1.2-.3.2-.1 0-.2.1-.2.2.1.3.1.2.1.3-.1.1-.1 0 0 0M.5-18.1v.2c-.1.1-.1.1-.2.1-.1.1-.1.3-.1.4-.2.1 0 .2 0 .3v.2c0 .1 0 .3.1.4.1.2.3.4.4.5.2.1.4.6.6.6.2 0 .4-.1.5-.1.2 0 .4 0 .6-.1.2-.1.1-.3.3-.5.1 0 .3.1.4.1.2-.1.3-.3.4-.5v-.2c0-.1.1-.2.1-.3 0-.1-.1-.1-.1-.2v-.3c0-.2 0-.4-.1-.5-.4-.7-1.2-.9-2-.8-.2 0-.3.1-.4.2-.2.1-.1.2-.3.2-.1 0-.2.1-.2.2v.1c0 .1 0 0 0 0"/></g><g><path class="st2" d="M69.4-10.4v.2c-.1.1-.1.1-.2.1-.1.1-.1.3-.1.4-.2.1 0 .2 0 .3v.2c0 .1 0 .3.1.4.1.2.3.4.4.5.2.1.4.6.6.6.2 0 .4-.1.5-.1.2 0 .4 0 .6-.1.2-.1.1-.3.3-.5.1-.1.3 0 .4-.1.2-.1.3-.3.4-.5v-.2c0-.1.1-.2.1-.3 0-.1-.1-.1-.1-.2v-.3c0-.2 0-.4-.1-.5-.4-.7-1.2-.9-2-.8-.2 0-.3.1-.4.2-.2.1-.1.2-.3.2-.1 0-.2.1-.2.2v.3M61.8-10.4v.2c-.1.1-.1.1-.2.1-.1.1-.1.3-.1.4-.2.1 0 .2 0 .3v.2c0 .1 0 .3.1.4.1.2.3.4.4.5.2.1.4.6.6.6.2 0 .4-.1.5-.1.2 0 .4 0 .6-.1.2-.1.1-.3.3-.4.1-.1.3 0 .4-.1.2-.1.3-.3.4-.5v-.2c0-.1.1-.2.1-.3 0-.1-.1-.1-.1-.2v-.3c0-.2 0-.4-.1-.5-.4-.7-1.2-.9-2-.8-.2 0-.3.1-.4.2-.2.1-.1.2-.3.2-.1 0-.2.1-.2.2v.2M54.1-10.4v.2c-.1.1-.1.1-.2.1-.1.1-.1.3-.1.4-.2.1 0 .2 0 .3v.2c0 .1 0 .3.1.4.1.2.3.4.4.5.2.1.4.6.6.6.2 0 .4-.1.5-.1.2 0 .4 0 .6-.1.2-.1.1-.3.3-.5.1-.1.3 0 .4-.1.2-.1.3-.3.4-.5v-.2c0-.1.1-.2.1-.3 0-.1-.1-.1-.1-.2v-.3c0-.2 0-.4-.1-.5-.4-.7-1.2-.9-2-.8-.2 0-.3.1-.4.2-.2.1-.1.2-.3.2-.1 0-.2.1-.2.2v.3M46.5-10.4v.2c-.1.1-.1.1-.2.1-.1.1-.1.3-.1.4-.2.1 0 .2 0 .3v.2c0 .1 0 .3.1.4.1.2.3.4.4.5.2.1.4.6.6.6.2 0 .4-.1.5-.1.2 0 .4 0 .6-.1.2-.1.1-.3.3-.5.1-.1.3 0 .4-.1.2-.1.3-.3.4-.5v-.2c0-.1.1-.2.1-.3 0-.1-.1-.1-.1-.2v-.3c0-.2 0-.4-.1-.5-.4-.7-1.2-.9-2-.8-.2 0-.3.1-.4.2-.2.1-.1.2-.3.2-.1 0-.2.1-.2.2v.3M38.8-10.4v.2c-.1.1-.1.1-.2.1-.1.1-.1.3-.1.4-.2.1 0 .2 0 .3v.2c0 .1 0 .3.1.4.1.2.3.4.4.5.2.1.4.6.6.6.2 0 .4-.1.5-.1.2 0 .4 0 .6-.1.2-.1.1-.3.3-.4.1-.1.3 0 .4-.1.2-.1.3-.3.4-.5v-.2c0-.1.1-.2.1-.3 0-.1-.1-.1-.1-.2v-.3c0-.2 0-.4-.1-.5-.4-.7-1.2-.9-2-.8-.2 0-.3.1-.4.2-.2.1-.1.2-.3.2-.1 0-.2.1-.2.2v.2M31.1-10.4v.2c-.1.1-.1.1-.2.1-.1.1-.1.3-.1.4-.2.1 0 .2 0 .3v.2c0 .1 0 .3.1.4.1.2.3.4.4.5.2.1.4.6.6.6.2 0 .4-.1.5-.1.2 0 .4 0 .6-.1.2-.1.1-.3.3-.5.1-.1.3 0 .4-.1.2-.1.3-.3.4-.5v-.2c0-.1.1-.2.1-.3 0-.1-.1-.1-.1-.2v-.3c0-.2 0-.4-.1-.5-.4-.7-1.2-.9-2-.8-.2 0-.3.1-.4.2-.2.1-.1.2-.3.2-.1 0-.2.1-.2.2v.3M23.5-10.4v.2c-.1.1-.1.1-.2.1-.1.1-.1.3-.1.4-.2.1 0 .2 0 .3v.2c0 .1 0 .3.1.4.1.2.3.4.4.5.2.1.4.6.6.6.2 0 .4-.1.5-.1.2 0 .4 0 .6-.1.2-.1.1-.3.3-.5.1-.1.3 0 .4-.1.2-.1.3-.3.4-.5v-.2c0-.1.1-.2.1-.3 0-.1-.1-.1-.1-.2v-.3c0-.2 0-.4-.1-.5-.4-.7-1.2-.9-2-.8-.2 0-.3.1-.4.2-.2.1-.1.2-.3.2-.1 0-.2.1-.2.2v.3M15.8-10.4v.2c-.1.1-.1.1-.2.1-.1.1-.1.3-.1.4-.2.1 0 .2 0 .3v.2c0 .1 0 .3.1.4.1.2.3.4.4.5.2.1.4.6.6.6.2 0 .4-.1.5-.1.2 0 .4 0 .6-.1.2-.1.1-.3.3-.4.1-.1.3 0 .4-.1.2-.1.3-.3.4-.5v-.2c0-.1.1-.2.1-.3 0-.1-.1-.1-.1-.2v-.3c0-.2 0-.4-.1-.5-.4-.7-1.2-.9-2-.8-.2 0-.3.1-.4.2-.2.1-.1.2-.3.2-.1 0-.2.1-.2.2v.2M8.2-10.4v.2c-.1.1-.2 0-.2.1-.1.1-.1.3-.1.3-.2.1 0 .2 0 .3v.2c0 .1 0 .3.1.4 0 .2.2.4.3.6.2.1.4.6.6.6.2 0 .4-.1.5-.1.2 0 .4 0 .6-.1.2-.1.1-.3.3-.5.1-.1.3 0 .4-.1.2-.1.3-.3.4-.5v-.2c0-.1.1-.2.1-.3 0-.1-.1-.1-.1-.2v-.3c0-.2 0-.4-.1-.5-.4-.7-1.2-.9-2-.8-.2 0-.3.1-.4.2-.2.1-.1.2-.3.2-.1 0-.2.1-.2.2.1.2.1.2.1.3-.1 0-.1 0 0 0M.5-10.4v.2c-.1.1-.1.1-.2.1 0 .1-.1.3-.1.3-.2.1 0 .2 0 .3v.2c0 .1 0 .3.1.4.1.2.3.4.4.5.2.2.3.6.6.7.2 0 .4-.1.5-.1.2 0 .4 0 .6-.1.2-.1.1-.3.3-.4.1-.1.3 0 .4-.1.2-.1.3-.3.4-.5v-.2c0-.1.1-.2.1-.3 0-.1-.1-.1-.1-.2v-.3c0-.2 0-.4-.1-.5-.4-.7-1.2-.9-2-.8-.2 0-.3.1-.4.2-.2.1-.1.2-.3.2-.1 0-.2.1-.2.2v.2"/></g></g><g><path class="st2" d="M69.4-2.8v.2c-.1.1-.1.1-.2.1-.1.1-.1.3-.1.4-.2.1 0 .2 0 .3v.2c0 .1 0 .3.1.4.1.2.3.4.4.5.2.2.4.6.6.7.2 0 .4-.1.5-.1.2 0 .4 0 .6-.1.2-.1.1-.3.3-.5.1-.1.3 0 .4-.1.2-.1.3-.3.4-.5v-.2c0-.1.1-.2.1-.3 0-.1-.1-.1-.1-.2v-.3c0-.2 0-.4-.1-.5-.4-.7-1.2-.9-2-.8-.2 0-.3.1-.4.2-.2.1-.1.2-.3.2-.1 0-.2.1-.2.2v.2c0 .1 0 0 0 0M61.8-2.8v.2c-.1.1-.1.1-.2.1-.1.1-.1.3-.1.4-.2.1 0 .2 0 .3v.2c0 .1 0 .3.1.4 0 .2.2.4.4.5.2.1.4.6.6.6.2 0 .4-.1.5-.1.2 0 .4 0 .6-.1.2-.1.1-.3.3-.5.1-.1.3 0 .4-.1.2-.1.3-.3.4-.5v-.2c0-.1.1-.2.1-.3 0-.1-.1-.1-.1-.2v-.3c0-.2 0-.4-.1-.5-.4-.7-1.2-.9-2-.8-.2 0-.3.1-.4.2-.2.1-.1.2-.3.2-.1 0-.2.1-.2.2v.3c0 .1 0 0 0 0M54.1-2.8v.2c-.1.1-.1.1-.2.1-.1.1-.1.3-.1.4-.2.1 0 .2 0 .3v.2c0 .1 0 .3.1.4.1.2.2.4.4.5.2.1.4.6.6.6.2 0 .4-.1.5-.1.2 0 .4 0 .6-.1.2-.1.1-.3.3-.5.1-.1.3 0 .4-.1.2.1.3-.1.4-.3v-.2c0-.1.1-.2.1-.3 0-.1-.1-.1-.1-.2v-.3c0-.2 0-.4-.1-.5-.4-.7-1.2-.9-2-.8-.2 0-.3.1-.4.2-.2.1-.1.2-.3.2-.1 0-.2.1-.2.2v.1c0 .1 0 0 0 0M46.5-2.8v.2c-.1.1-.1.1-.2.1-.1.1-.1.3-.1.4-.2.1 0 .2 0 .3v.2c0 .1 0 .3.1.4.1.2.3.4.4.5.1.2.3.6.5.7.2 0 .4-.1.5-.1.2 0 .4 0 .6-.1.2-.1.1-.3.3-.5.1-.1.3 0 .4-.1.2-.1.3-.3.4-.5v-.2c0-.1.1-.2.1-.3 0-.1-.1-.1-.1-.2v-.3c0-.2 0-.4-.1-.5-.4-.7-1.2-.9-2-.8-.2 0-.3.1-.4.2-.2.1-.1.2-.3.2-.1 0-.2.1-.2.2.1.2.1.1.1.2M38.8-2.8v.2c-.1.1-.1.1-.2.1-.1.1-.1.3-.1.4-.2.1 0 .2 0 .3v.2c0 .1 0 .3.1.4 0 .2.2.4.4.5.2.1.4.6.6.6.2 0 .4-.1.5-.1.2 0 .4 0 .6-.1.2-.1.1-.3.3-.5.1-.1.3 0 .4-.1.2-.1.3-.3.4-.5v-.2c0-.1.1-.2.1-.3 0-.1-.1-.1-.1-.2v-.3c0-.2 0-.4-.1-.5-.4-.7-1.2-.9-2-.8-.2 0-.3.1-.4.2-.2.1-.1.2-.3.2-.1 0-.2.1-.2.2v.3c0 .1 0 0 0 0M31.1-2.8v.2c-.1.1-.1.1-.2.1-.1.1-.1.3-.1.4-.2.1 0 .2 0 .3v.2c0 .1 0 .3.1.4.1.2.2.4.4.5.2.1.4.6.6.6.2 0 .4-.1.5-.1.2 0 .4 0 .6-.1.2-.1.1-.3.3-.5.1-.1.3 0 .4-.1.2-.1.3-.3.4-.5v-.2c0-.1.1-.2.1-.3 0-.1-.1-.1-.1-.2v-.3c0-.2 0-.4-.1-.5-.4-.7-1.2-.9-2-.8-.2 0-.3.1-.4.2-.2.1-.1.2-.3.2-.1 0-.2.1-.2.2v.3c0 .1 0 0 0 0M23.5-2.8v.2c-.1.1-.1.1-.2.1-.1.1-.1.3-.1.4-.2.1 0 .2 0 .3v.2c0 .1 0 .3.1.4.1.2.3.4.4.5.1.2.3.6.6.7.2 0 .4-.1.5-.1.2 0 .4 0 .6-.1.2-.1.1-.3.3-.5.1-.1.3 0 .4-.1.2-.1.3-.3.4-.5v-.2c0-.1.1-.2.1-.3 0-.1-.1-.1-.1-.2v-.3c0-.2 0-.4-.1-.5-.4-.7-1.2-.9-2-.8-.2 0-.3.1-.4.2-.2.1-.1.2-.3.2-.1 0-.2.1-.2.2v.2c0 .1 0 0 0 0M15.8-2.8v.2c-.1.1-.1.1-.2.1-.1.1-.1.3-.1.4-.2.1 0 .2 0 .3v.2c0 .1 0 .3.1.4.1.2.2.4.4.5.2.1.4.6.6.6.2 0 .4-.1.5-.1.2 0 .4 0 .6-.1.2-.1.1-.3.3-.5.1-.1.3 0 .4-.1.2-.1.3-.3.4-.5v-.2c0-.1.1-.2.1-.3 0-.1-.1-.1-.1-.2v-.3c0-.2 0-.4-.1-.5-.4-.7-1.2-.9-2-.8-.2 0-.3.1-.4.2-.2.1-.1.2-.3.2-.1 0-.2.1-.2.2v.3c0 .1 0 0 0 0M8.2-2.8v.2c-.1.1-.2.1-.2.1-.1.1-.1.3-.1.4-.2.1 0 .2 0 .3v.2c0 .1 0 .3.1.4 0 .2.2.4.3.5.2.2.4.6.6.7.2 0 .4-.1.5-.1.2 0 .4 0 .6-.1.2-.1.1-.3.3-.5.1-.1.3 0 .4-.1.2-.1.3-.3.4-.5v-.2c0-.1.1-.2.1-.3 0-.1-.1-.1-.1-.2v-.3c0-.2 0-.4-.1-.5-.4-.7-1.2-.9-2-.8 0 .1-.2.2-.3.2-.2.1-.1.2-.3.3-.1 0-.2.1-.2.2v.1c-.1.1-.1 0 0 0M.5-2.8v.2c-.1.1-.1.1-.2.1 0 .1-.1.3-.1.4-.2.1 0 .2 0 .3v.2c0 .1 0 .3.1.4 0 .2.2.4.4.5.2.2.3.6.6.7.2 0 .4-.1.5-.1.2 0 .4 0 .6-.1.2-.1.1-.3.3-.5.1-.1.3 0 .4-.1.2 0 .3-.2.4-.4v-.2c0-.1.1-.2.1-.3 0-.1-.1-.1-.1-.2v-.3c0-.2 0-.4-.1-.5-.4-.7-1.2-.9-2-.8-.1 0-.2.1-.4.1-.1.1-.1.2-.3.3-.1 0-.2.1-.2.2v.1c0 .1 0 0 0 0"/></g></pattern><path class="st0" d="M0 0h126v87.9H0z"/><path class="st3" d="M108.1 52.6c-3.5-14-4.7-21.5-8.7-26.4-2.1-2.6-8.9-11.5-37.3-7.3-18.3 2.7-5-11.2-24.7-9.9C24.4 9.9 9 14.8 9 14.8s5.6 2.8 9.4 24.6c4.2 23.5.8 33.7.8 33.7 4.6-1.7 12.9-4 23.7-4.5 19.7-.7-.4 14.2 17.4 9.2 42.7-11.7 56.2-.3 56.7-.8.4-.6-3.4-2.6-8.9-24.4z"/><path class="st2" d="M60.2 41.2c-1.9 0-3.5.7-3.6 2.8H58c.1-1.2.9-1.6 2.1-1.6.9 0 1.9.2 1.9 1.4 0 1-1.3.9-2.9 1.2-1.4.3-2.9.7-2.9 2.6 0 1.6 1.3 2.3 2.8 2.3 1.3 0 2.1-.3 2.9-1.2v1h1.4v-6.2c.1-1.9-1.6-2.3-3.1-2.3z"/><path class="st3" d="M62 46.8c0 .8-.8 1.9-2.6 1.9-.9 0-1.6-.4-1.6-1.2 0-1 .8-1.4 1.7-1.5.9-.2 2-.2 2.5-.6v1.4z"/><path class="st2" d="M53.9 38.8h-1.4v2.5H51v1.2h1.5V48c0 1.6 1.1 1.9 2 1.9.9 0 1.1-.1 1.1-.1v-1.2H55c-.9 0-1.1-.2-1.1-.9v-5.1h1.7v-1.2h-1.7v-2.6zM22.6 41.4h2.8v8.3h.9v-8.3h2.9v-.8h-6.6zM38.3 43c-2.1 0-3 1.7-3 3.5 0 1.9.9 3.5 3 3.5 1.7 0 2.5-.9 2.9-2.4h-.8c-.3 1-.9 1.7-2.1 1.7-1.5 0-2.2-1.4-2.2-2.6h5.1c.1-1.9-.8-3.7-2.9-3.7z"/><path class="st3" d="M38.3 43.6c1.3 0 2.1 1.1 2.1 2.3h-4.3c.2-1.1.9-2.3 2.2-2.3z"/><path class="st2" d="M47.3 43.2c-1.9-.4-3.7-.6-3.7-2.1s1.3-2 2.6-2c1.5 0 2.6.7 2.9 2.2h1.5c-.2-2.5-2-3.5-4.3-3.5-2.1 0-4.2 1-4.2 3.4 0 2.1 1.9 2.7 3.7 3.1 1.9.4 3.7.7 3.7 2.3 0 1.7-1.6 2.1-3 2.1-1.8 0-3.1-.8-3.3-2.2h-1.5c.3 2.3 2.2 3.5 4.8 3.5 2.1 0 4.6-1 4.6-3.5 0-2.2-1.9-2.9-3.8-3.3zM32.5 43c-.9 0-1.8.5-2.1 1.3v-3.7h-.8v9.1h.8v-3.8c0-1.3.8-2.3 2.1-2.3s1.7.9 1.7 2v4.1h.8v-4.2c-.1-1.6-.7-2.5-2.5-2.5zM93.6 41.2c-1.4-.1-2.4.4-3.1 1.7v-1.6h-1.3v8.5h1.4v-3.9c0-2.1.8-3.4 3.1-3.4v-1.3zM100 42.5c-.7-1-1.9-1.3-2.8-1.3-2.6 0-3.9 2-3.9 4.4 0 2.4 1.3 4.4 3.9 4.4 1.2 0 2.2-.4 2.7-1.3v1.1h1.4V38.1H100v4.4z"/><path class="st3" d="M97.5 48.7c-1.8 0-2.7-1.5-2.7-3.1 0-1.7.6-3.3 2.5-3.3s2.7 1.5 2.7 3.2c.1 1.7-.6 3.2-2.5 3.2z"/><path class="st2" d="M68.5 41.2c-1.2 0-2.2.5-2.8 1.5v-1.3h-1.3v8.4h1.4V45c0-1.5.8-2.7 2.5-2.7 1.1 0 1.7.7 1.7 1.7v5.7h1.4v-5.6c0-1.7-.7-2.9-2.9-2.9z"/><g><path class="st2" d="M78.8 42.5c-.7-1-1.9-1.3-2.8-1.3-2.6 0-3.9 2-3.9 4.4 0 2.4 1.3 4.4 3.9 4.4 1.2 0 2.2-.4 2.7-1.3v1.1h1.4V38.1h-1.4v4.4z"/><path class="st3" d="M76.3 48.7c-1.8 0-2.7-1.5-2.7-3.1 0-1.7.6-3.3 2.5-3.3s2.7 1.5 2.7 3.2c0 1.7-.6 3.2-2.5 3.2z"/></g><g><path class="st2" d="M84.9 41.2c-1.9 0-3.5.7-3.6 2.8h1.4c.1-1.2.9-1.6 2.1-1.6.9 0 1.9.2 1.9 1.4 0 1-1.3.9-2.8 1.2-1.4.3-2.9.7-2.9 2.6 0 1.6 1.3 2.3 2.8 2.3 1.3 0 2.1-.3 2.9-1.2v1h1.4v-6.2c0-1.9-1.7-2.3-3.2-2.3z"/><path class="st3" d="M86.7 46.8c0 .8-.8 1.9-2.6 1.9-.9 0-1.6-.4-1.6-1.2 0-1 .8-1.4 1.7-1.5.9-.2 2-.2 2.5-.6v1.4z"/></g><path class="st3" d="M111 40.4c0 1.4-1 2.3-2.2 2.3-1.3 0-2.2-1-2.2-2.3 0-1.4 1-2.2 2.2-2.2 1.2-.1 2.2.8 2.2 2.2zm-.5 0c0-1.1-.8-1.9-1.7-1.9-1 0-1.7.8-1.7 1.9 0 1 .7 1.9 1.7 1.9.9-.1 1.7-.8 1.7-1.9z"/><path class="st3" d="M109.1 40.6l.7 1.1h-.5l-.6-1.1h-.4v1.1h-.4v-2.5h1c.6 0 .9.2.9.7 0 .4-.3.6-.7.7zm-.3-.4c.3 0 .6 0 .6-.4 0-.3-.3-.3-.5-.3h-.5v.7h.4z"/></symbol><symbol id="shape-custodian-transamerica" viewBox="0 0 304.7 120.9"><style>.st0,.st1{fill-rule:evenodd;clip-rule:evenodd;fill:#004990}.st1{fill:#e51d26}.st2{fill:#004990}</style><g id="Layer_2"><path class="st0" d="M61.9 74.1h-1.2c-.1-2.5 0-4.1-3.7-4.1h-6.9v25.6c0 3.2 1.7 3.2 4.2 3.3v1.2c-2.2 0-4.2-.1-6.2-.1-2.2 0-4.3 0-6.6.1v-1.2c2.4 0 4.2-.1 4.2-3.3V70h-6c-4.1 0-4.3 1.1-5.1 4.1h-1.2l.5-7.3h.9c.5 1.2 1.7 1.3 2.9 1.3h20.8c1.6 0 2.8-.4 3-1.3h1l-.6 7.3z"/><path class="st0" d="M64.6 88.7v8c0 2.4 1.3 2.4 3.1 2.5v.9c-1.6 0-3.1-.1-4.6-.1-1.6 0-3.3 0-5 .1v-.9c1.7.1 3.1-.3 3.1-2.3V79.5c0-2.4-1.3-2.4-3.1-2.5v-.9c1.9 0 3.5.1 5.2.1 1.2 0 2.4-.1 4.6-.1 6.5 0 7.9 3.6 7.9 6.1 0 2.9-2.2 5.1-4.9 5.9 3.1 4.6 4.8 7.3 6.2 8.9 1.1 1.2 2.1 2.2 3.9 2.2v.9c-.9 0-1.7-.1-2.6-.1-1 0-2 0-2.9.1-3.1-3.4-5.4-7.4-7.9-11.3h-3v-.1zm2-11.5c-.9 0-1.4.1-2.1.2v10c.5.1 1.2.2 1.8.2 4.2 0 5.9-2.8 5.9-5.2 0-3-1.5-5.2-5.6-5.2z"/><path class="st0" d="M96.8 93.2c.5 1.3 1.4 4.2 2 5 .5.7 1.5.9 2.6.9v.9c-1.3 0-2.6-.1-3.9-.1-1.7 0-3.3 0-5 .1v-.9h.6c.9 0 1.9-.2 1.9-1.1 0-.4-.3-1.3-.5-2l-1.7-5h-8.1l-.8 2.4c-.4 1.4-.9 3-.9 4.1 0 1.6 1.1 1.5 2.3 1.6h.8v.9c-1.3 0-2.7-.1-4-.1-1.4 0-2.8 0-4.1.1v-.9c2.1-.2 2.5-.5 3.3-2.4.5-1.2 1-2.6 1.4-3.8L87 80.7c.3-.8.7-2.1.7-3.1 0-.3 0-.6-.1-.9.7-.3 1.5-.7 2-1.5h.6l6.6 18zm-11.6-3.5h7.1l-3.7-10.1h-.1l-3.3 10.1z"/><path class="st0" d="M125.1 100.4h-.8l-17.9-19.7v12.8c0 4.7.4 5.7 4.1 5.7v.9c-1.5 0-3-.1-4.6-.1-1.5 0-3 0-4.6.1v-.9c2.1 0 3.7 0 3.7-4.3V81c0-2.9-1.3-4-4.2-4v-.9c1.1 0 2.1.1 3.2.1.9 0 1.9-.1 2.8-.1 1.4 2.1 4.6 5.2 8.5 9.5 2.9 3.2 6.1 6.6 8.5 9.2V81.2c0-3.2-.7-4.1-4.1-4.2v-.9c1.6 0 3.2.1 4.8.1 1.3 0 2.6-.1 4-.1v.9c-2.1 0-3.2.2-3.2 3.5v19.9h-.2zM129.8 94.4h.8c.6 2.6 2.5 5.1 5.3 5.1 2.6 0 4.7-1.9 4.7-4.6 0-6.4-10.1-4.5-10.1-12.6 0-4.4 3.2-6.7 7.3-6.7 1.4 0 2.8.3 4.2.5l.5 4.4h-.8c-.4-2.4-2-3.8-4.4-3.8-2.6 0-4.1 1.9-4.1 4.4 0 6.4 10.6 4.6 10.6 12.5 0 4.5-4 7-8.1 7-1.8 0-3.6-.4-5.2-1.2l-.7-5zM163.1 93.2c.5 1.3 1.4 4.2 2 5 .5.7 1.5.9 2.6.9v.9c-1.3 0-2.6-.1-3.9-.1-1.7 0-3.3 0-5 .1v-.9h.6c.9 0 1.9-.2 1.9-1.1 0-.4-.3-1.3-.5-2l-1.7-5H151l-.8 2.4c-.4 1.4-.9 3-.9 4.1 0 1.6 1.1 1.5 2.3 1.6h.8v.9c-1.3 0-2.7-.1-4-.1-1.4 0-2.8 0-4.2.1v-.9c2.1-.2 2.5-.5 3.3-2.4.6-1.2 1-2.6 1.4-3.8l4.4-12.2c.3-.8.7-2.1.7-3.1 0-.3 0-.6-.1-.9.7-.3 1.5-.7 2-1.5h.6l6.6 18zm-11.7-3.5h7.1l-3.7-10.1h-.1l-3.3 10.1z"/><path class="st0" d="M183.9 95.4c3.1-6.4 6.4-12.7 9.3-19.2.9 0 1.9.1 2.8.1 1 0 2-.1 3-.1v.8c-1.2 0-2 .1-2.4.4-.4.3-.6.9-.6 2.1 0 5.4.3 11.2.4 16.3.1 2.6.3 3.3 3.7 3.3v.9c-1.9 0-3.8-.1-5.7-.1-1.7 0-3.3 0-5 .1v-.9c1.2 0 2.1 0 2.6-.3.6-.3.9-1 .9-2.3l-.2-16.4h-.1L184.5 97c-.4.8-1.1 2.5-1.3 3.4h-.7c-2.9-6.6-6.2-13-9.5-19.4l-.3 12.4v2.2c0 1.7.2 2.6.7 3.1.5.5 1.4.6 2.8.6v.9c-1.4 0-2.8-.1-4.2-.1-1.5 0-3 0-4.6.1v-.9c2.4 0 3.9-.6 4.1-5.2.1-4.7.4-9.4.4-14.1 0-1.2-.2-2-.7-2.4-.5-.4-1.2-.6-2.4-.6v-.9c1.2 0 2.4.1 3.6.1.7 0 1.5-.1 2.2-.1l9.3 19.3zM208.6 87h4.5c2.8 0 2.8-2.2 2.9-2.9h.7c-.1.8-.1 2.6-.1 3.8 0 1.1.2 2.7.1 3.8h-.7c0-3.3-1.1-3.3-3.7-3.3h-3.7v5.8c0 3.8.1 4.8 3.5 4.8h2.1c3.4-.2 4.9-.6 6.2-4.3l.8.1c-.5 1.7-1.1 3.5-1.4 5.2-3.4 0-6.8-.1-10.3-.1-2.5 0-5.1 0-7.6.1v-.9c3 0 3.3-.6 3.3-3.9V80.1c0-2.8-.6-2.9-3.3-3v-.9c2.3.1 4.6.1 6.9.1 3.3 0 6.6 0 9.9-.1v5.1l-.7.2c-.5-3.2-2.1-4.2-5.5-4.2h-4V87h.1zM229.3 88.7v8c0 2.4 1.3 2.4 3.1 2.5v.9c-1.6 0-3.1-.1-4.6-.1-1.6 0-3.3 0-5 .1v-.9c1.7.1 3.1-.3 3.1-2.3V79.5c0-2.4-1.3-2.4-3.1-2.5v-.9c1.9 0 3.5.1 5.2.1 1.2 0 2.4-.1 4.6-.1 6.5 0 7.9 3.6 7.9 6.1 0 2.9-2.2 5.1-4.9 5.9 3.1 4.6 4.8 7.3 6.2 8.9 1.1 1.2 2.1 2.2 3.9 2.2v.9c-.9 0-1.7-.1-2.6-.1-1 0-2 0-2.9.1-3.1-3.4-5.4-7.4-7.9-11.3h-3v-.1zm2.1-11.5c-.9 0-1.4.1-2.1.2v10c.5.1 1.2.2 1.8.2 4.2 0 5.9-2.8 5.9-5.2 0-3-1.6-5.2-5.6-5.2zM248.8 79.5c0-2.4-1.3-2.4-3.1-2.5v-.9c1.6 0 3.2.1 4.7.1 1.6 0 3.2 0 4.9-.1v.9c-1.8 0-3.1.1-3.1 2.5v17.2c0 2.4 1.3 2.4 3.1 2.5v.9c-1.6 0-3.1-.1-4.6-.1-1.6 0-3.3 0-5 .1v-.9c1.8 0 3.1-.1 3.1-2.5V79.5zM279 82.3h-.9c-.7-4-3.5-5.6-7.3-5.6-3.9 0-9.7 2.6-9.7 10.9 0 6.9 4.9 11.9 10.2 11.9 3.4 0 6.2-2.3 6.9-5.9l.8.2-.8 5c-1.4.9-5.3 1.8-7.6 1.8-8 0-13.1-5.2-13.1-12.9 0-7 6.3-12.1 13-12.1 2.8 0 5.4.9 8.1 1.8l.4 4.9zM298.1 93.2c.5 1.3 1.4 4.2 2 5 .5.7 1.5.9 2.6.9v.9c-1.3 0-2.6-.1-3.9-.1-1.7 0-3.3 0-5 .1v-.9h.6c.9 0 1.9-.2 1.9-1.1 0-.4-.3-1.3-.5-2l-1.7-5H286l-.8 2.4c-.4 1.4-.9 3-.9 4.1 0 1.6 1.1 1.5 2.3 1.6h.8v.9c-1.3 0-2.7-.1-4-.1-1.4 0-2.8 0-4.2.1v-.9c2.1-.2 2.5-.5 3.3-2.4.5-1.2 1-2.6 1.4-3.8l4.4-12.2c.3-.8.7-2.1.7-3.1 0-.3 0-.6-.1-.9.7-.3 1.5-.7 2-1.5h.6l6.6 18zm-11.6-3.5h7.1l-3.7-10.1h-.1l-3.3 10.1z"/><g><path class="st1" d="M28.3 98.1H14.6v-2.6h13.3l-.3-2h-13v-2.6h12.7l-.3-2H14.6v-2.6h12l-.3-2H14.6v-2.6H26l-.3-2H14.6v-2.6h10.8l-.3-2H14.6v-2.6h10.1l-.3-2h-9.8V68H24l-.3-2h-9.1v-2.6h8.8l-.3-2h-8.5v-2.6h8.1l-.3-2h-4.7l1.4-25.7h-3.4l.1 2.6h-1.3V0L10 31.1H7l.9 15.4L0 100.1h28.6l-.3-2zM14.6 35.7H16l.1 2.6h-1.6v-2.6zm0 4.6h1.7l.1 2.5h-1.8v-2.5zm0 4.6h1.9l.2 2.7h-2.1v-2.7zm0 4.7h2.2l.1 2.6h-2.3v-2.6zm0 4.6H17l.1 2.6h-2.6v-2.6z"/><path class="st1" d="M21.7 52h-1.8l-.1 2H22zM21.2 47.4h-1l-.1 2h1.3z"/></g><g><path class="st2" d="M297.3 78.9c0 2.1 1.7 3.7 3.7 3.7 2.1 0 3.7-1.7 3.7-3.7s-1.7-3.7-3.7-3.7c-2.1 0-3.7 1.7-3.7 3.7m.6 0c0-1.7 1.4-3.1 3.1-3.1 1.7 0 3.1 1.4 3.1 3.1 0 1.7-1.4 3.1-3.1 3.1-1.7.1-3.1-1.3-3.1-3.1"/><path class="st2" d="M300.1 77.5h1.2c.2 0 .3 0 .4.1.2.1.3.3.3.5s-.1.4-.2.5c-.1.1-.3.1-.5.1h-1.1v-1.2zm0 3.2v-1.5h1.1c.2 0 .3 0 .4.1.2.1.2.2.3.5V80.8h.6v-.1c-.1 0-.1-.1-.2-.2v-.8c0-.2-.1-.4-.1-.5-.1-.1-.2-.2-.3-.2.2-.1.3-.2.4-.3.1-.1.1-.3.1-.5 0-.4-.2-.7-.5-.8-.2-.1-.4-.1-.7-.1h-1.7v3.6h.6z"/></g><g><path class="st2" d="M41.5 109.1h7.1c2.3 0 3.1 1.6 3.1 3s-.7 2.4-1.9 2.8c1 .1 1.6 1.1 1.7 2.4.1 2.1.2 2.7.5 3.1h-1.8c-.3-.3-.3-.8-.4-2.2-.1-2-.8-2.7-2.2-2.7h-4.4v4.8h-1.7v-11.2zm6.5 5.1c1.7 0 2.1-1 2.1-1.8 0-1.1-.7-1.8-2-1.8h-4.8v3.6H48zM54.9 116.9c.1 1.7 1.7 2.7 3.1 2.7.9 0 2.2-.3 2.7-1.5h1.7c-.8 2-2.7 2.8-4.3 2.8-3.3 0-4.9-2.1-4.9-4.5s1.6-4.5 4.9-4.5c2.2 0 4.5 1.3 4.5 4.8v.2h-7.7zm6-1.3c-.2-1.5-1.4-2.4-2.9-2.4s-2.8.9-3 2.4h5.9zM64.8 109.6h1.6v2.6h2.4v1.2h-2.4v5.2c0 .7.5.9 1.3.9.4 0 .7 0 1.1-.1v1.3c-.5.1-1.1.1-1.8.1-1.6 0-2.2-.8-2.2-2v-5.4H63v-1.2h1.7v-2.6zM70.8 109h1.6v1.8h-1.6V109zm0 3.2h1.6v8.4h-1.6v-8.4zM74.8 112.2h1.6v1.5c.8-1.3 1.8-1.8 2.9-1.8.4 0 .6 0 .9.1v1.7c-.4-.1-.7-.2-1.1-.2-1.6 0-2.7.9-2.7 2.8v4.3h-1.6v-8.4zM82.5 116.9c.1 1.7 1.7 2.7 3.1 2.7.9 0 2.2-.3 2.7-1.5H90c-.8 2-2.7 2.8-4.3 2.8-3.3 0-4.9-2.1-4.9-4.5s1.6-4.5 4.9-4.5c2.2 0 4.5 1.3 4.5 4.8v.2h-7.7zm6.1-1.3c-.2-1.5-1.4-2.4-2.9-2.4s-2.8.9-3 2.4h5.9zM104.5 115.2c0-1.5-1-2-2-2-1.5 0-2.8.7-2.8 2.3v5.1h-1.6v-5.3c0-1.5-1-2-2-2-1.5 0-2.8.8-2.8 2.5v4.8h-1.6v-8.4h1.6v1.3c.8-1.2 2.1-1.6 3.3-1.6 1.1 0 2.2.4 2.8 1.6.8-1 1.8-1.6 3.4-1.6.8 0 3.2.4 3.2 3v5.7h-1.6v-5.4zM109.5 116.9c.1 1.7 1.7 2.7 3.1 2.7.9 0 2.2-.3 2.7-1.5h1.7c-.8 2-2.7 2.8-4.3 2.8-3.3 0-4.9-2.1-4.9-4.5s1.6-4.5 4.9-4.5c2.2 0 4.5 1.3 4.5 4.8v.2h-7.7zm6-1.3c-.2-1.5-1.4-2.4-2.9-2.4s-2.8.9-3 2.4h5.9zM119 112.2h1.6v1.3c.8-1.2 2.1-1.6 3.3-1.6 2 0 3.5.9 3.5 3v5.7h-1.6v-5.4c0-1.2-.8-1.9-2.5-1.9-1.5 0-2.8.8-2.8 2.5v4.8H119v-8.4zM130.3 109.6h1.6v2.6h2.4v1.2h-2.4v5.2c0 .7.5.9 1.3.9.4 0 .7 0 1.1-.1v1.3c-.5.1-1.1.1-1.8.1-1.6 0-2.2-.8-2.2-2v-5.4h-1.7v-1.2h1.7v-2.6zM142.2 116.8c0 2 2 2.6 3.7 2.6 1.8 0 3.1-.7 3.1-1.9 0-1-.8-1.5-2.1-1.7l-2.6-.4c-1.4-.2-3.4-.8-3.4-3 0-2.1 1.6-3.5 4.6-3.5 2.3 0 4.7.8 4.9 3.6h-1.7c-.1-.9-.7-2.1-3.4-2.1-1.2 0-2.7.5-2.7 1.9 0 .7.5 1.3 1.9 1.5l2.8.5c.9.2 3.4.6 3.4 2.9 0 2.9-2.6 3.7-4.9 3.7-2.6 0-5.3-.9-5.3-4h1.7zM156.6 111.9c3.3 0 4.9 2.1 4.9 4.5s-1.6 4.5-4.9 4.5c-3.3 0-4.9-2.1-4.9-4.5s1.6-4.5 4.9-4.5zm0 1.3c-2.3 0-3.2 1.6-3.2 3.1s.8 3.1 3.2 3.1c2.3 0 3.2-1.6 3.2-3.1-.1-1.4-.9-3.1-3.2-3.1zM163.2 109h1.6v11.5h-1.6V109zM175.4 120.6h-1.6v-1.3c-.8 1.2-2.1 1.6-3.3 1.6-2 0-3.5-.9-3.5-3v-5.7h1.6v5.4c0 1.2.8 1.9 2.5 1.9 1.5 0 2.8-.8 2.8-2.5v-4.8h1.6v8.4zM178.2 109.6h1.6v2.6h2.4v1.2h-2.4v5.2c0 .7.5.9 1.3.9.4 0 .7 0 1.1-.1v1.3c-.5.1-1.1.1-1.8.1-1.6 0-2.2-.8-2.2-2v-5.4h-1.7v-1.2h1.7v-2.6zM183.6 109h1.6v1.8h-1.6V109zm0 3.2h1.6v8.4h-1.6v-8.4zM191.8 111.9c3.3 0 4.9 2.1 4.9 4.5s-1.6 4.5-4.9 4.5c-3.3 0-4.9-2.1-4.9-4.5s1.6-4.5 4.9-4.5zm0 1.3c-2.3 0-3.2 1.6-3.2 3.1s.8 3.1 3.2 3.1c2.3 0 3.2-1.6 3.2-3.1 0-1.4-.9-3.1-3.2-3.1zM198.4 112.2h1.6v1.3c.8-1.2 2.1-1.6 3.3-1.6 2 0 3.5.9 3.5 3v5.7h-1.6v-5.4c0-1.2-.8-1.9-2.5-1.9-1.5 0-2.8.8-2.8 2.5v4.8h-1.6v-8.4zM210.1 117.9c0 .8.6 1.7 2.6 1.7 2.1 0 2.6-.7 2.6-1.3 0-.6-.3-.9-1.6-1.1l-2.6-.4c-1.2-.2-2.3-.9-2.3-2.2 0-1.7 1.5-2.7 3.8-2.7 2.8 0 4 1.2 4.1 2.8h-1.6c0-.8-.8-1.6-2.5-1.6-1 0-2.2.3-2.2 1.3 0 .6.3.9 1.4 1l2.3.3c2.1.3 2.9 1 2.9 2.2 0 2-1.6 2.9-4.2 2.9-1.9 0-4.1-.5-4.3-2.9h1.6z"/></g></g></symbol><symbol id="shape-custodian-unified_trust" viewBox="0 0 473 68.7"><style>.st0{fill:#00483a}</style><path class="st0" d="M125.1 36.7c0-3.7.1-4.9-4.4-8.1v-.9l10.6-3.9 1 .4-.7 6.5c5.1-3.7 10-6.9 15.7-6.9 10.7 0 11.2 8.8 11.2 14.1v15.9c0 7.3.4 8 7 9v1.3h-20.8v-1.3c6.6-1 6.9-2.1 7-9V43.4c0-6.2.3-15.1-10.6-15.1-3.7 0-6.2 1.2-9.1 3.8v21.5c0 7.3.4 8 7 9v1.3h-14s0-3.4.1-10.4V36.7z"/><path class="st0" d="M161.8 64.1v-1.3c6.6-1 6.9-2.1 7-9v-17c0-3.7.1-4.9-5.4-8.1v-.9l11.3-3.9 1 .4v29.6c0 7.3.4 8 7 9v1.3h-20.9zm14.5-57.2c0 2.5-2.1 4.5-4.5 4.5-2.5 0-4.6-2.1-4.6-4.5 0-2.5 2.1-4.5 4.6-4.5 2.5-.1 4.5 2 4.5 4.5z"/><path class="st0" d="M181.8 28.4l7.2-4.2c.1-5.3.7-10.1 3.6-14.6 3.4-5.4 9-9.6 15.5-9.6 3.5 0 10.3 1.4 10.3 6.1 0 2.9-2.5 3.8-4.9 3.7-2.1-3-5.9-7-9.8-7-7.2 0-7.8 12.3-7.8 17.4v5.4h11.6v3.7h-11.6v24.4c0 7.3.4 8 8.6 9V64h-22.6v-1.3c6.8-1 7-2.1 7.1-9V29.3h-7.2v-.9z"/><path class="st0" d="M204.9 64.1v-1.3c6.6-1 6.9-2.1 7-9v-17c0-3.7.4-5.4-4.6-7.4h-1.7v-3.7h13.1v28.2c0 7.3.4 8 7 9v1.3h-20.8zM231.8 35.2c1-4.5 4-9.5 9.1-9.5 4.7 0 7.2 4.6 8 8.7l-17.1.8zm-.2 1.6h25.9c-.4-8-5.7-13.1-13.7-13.1-12 0-20.1 9.9-20.1 21.4 0 10.7 7.7 19.8 18.7 19.8 7 0 13-4.5 16.4-10.3l-1.3-1c-2.7 3.6-5.9 5.6-10.5 5.6-10.1 0-16.4-8.7-15.7-17.9l.3-4.5zM291.2 54.3c-1.9 3-6.1 6.2-9.6 6.2-6.6 0-14.3-5.5-14.3-18.4 0-7.1 3.6-15.6 11.9-15.6 4.2 0 12 2.2 12 12.6v15.2zm14.7 8.1l-.4-1.5c-7.5 1.1-7.5 0-7.5-8.2V.4l-1-.4-10.3 3.9v.9c4.5 3.2 4.4 4.4 4.4 8.1v11.7c-2.4-.6-4.9-.9-7.4-.9-13.1 0-24.1 9.1-24.1 22.7 0 9.1 7.1 18.6 16.8 18.6 6 0 10.7-3.8 14.7-7.8v8.5l14.8-3.3zM325.7 48.4c0 7.9.1 12.9 9.8 12.9 1.8 0 3.6-.2 5.3-.6l.4 1.4c-4.5 1.7-9.2 2.9-14.1 2.9-8.7 0-8.2-4.5-8.2-11.4V29.3h-6l-.4-.6L325 16.3h.8v9.3h14.1v3.7h-14.1v19.1z"/><path class="st0" d="M353.4 53.7c0 7.3.4 8 8.9 9V64H340v-1.3c6.2-1 6.4-2.1 6.5-9v-17c0-3.7.1-4.9-4.4-8.1v-.9l10.6-3.9 1 .4-.4 10.5h.2c2-4.7 7-10.9 12.6-10.9 2.5 0 4.5 1.6 4.5 4.1 0 2.4-2.6 4.6-4.6 5.6-1.5-1.2-3.7-3.1-5.7-2.9-7.6.7-7 12.8-7 14.2v8.9z"/><path class="st0" d="M407.5 54.2c-.1 3.2-.8 6.6 3.6 6.6l4.1-.4.4 1.3-15.2 3.7.3-7c-4.8 3.5-10.1 6.5-16.1 6.5-10.1 0-9.9-9.2-9.9-12.9V36.4c0-6.2.8-9.4-6.6-9.3v-1.3l13.5-1.2v22c0 3.7-1.1 13.8 9.4 13.8 3.7 0 7.1-1.5 9.8-3.9V37.4c0-7.8-.2-10.3-8.2-10.3v-1.3l15.6-1.2-.7 29.6zM440.6 34.6l-2 .4c-1.2-4.1-3.2-9.1-8.3-9.1-3.7 0-5.9 2.7-5.9 6.2 0 9.2 18.5 8.9 18.5 20.4 0 7.9-7.6 12.4-14.8 12.4-3.9 0-7.8-1.1-10.9-3.3l-.7-9.9 2.1-.4c1.2 5.4 4.3 11.2 10.6 11.2 4.1 0 6.9-3 6.9-7 0-10.2-18.5-8.1-18.5-20.9 0-7 6.5-11 12.8-11 3.5 0 7 1 9.9 2.9l.3 8.1zM457.6 48.4c0 7.9.1 12.9 9.8 12.9 1.8 0 3.6-.2 5.3-.6l.4 1.4c-4.5 1.7-9.2 2.9-14.1 2.9-8.7 0-8.2-4.5-8.2-11.4V29.3h-6l-.4-.6 12.5-12.4h.8v9.3h14.1v3.7h-14.1v19.1zM111.9 60.9c-10.4 0-9.4-10.2-9.4-13.8V25L89 26.1v1.3c7.4-.1 6.6 3 6.6 9.3v15.6c0 3.7-.2 12.9 9.9 12.9 5.8 0 10.7-1.2 19.3-7.5v-3.4c-2.5 2.3-9.5 6.6-12.9 6.6z"/><g><path class="st0" d="M49.1 45.4c4.5.1 5.9-2.8 5.9-6.9l.3-18.1c-3.4-2.3-7.4-3.9-11.7-4.4l-.3 22.3c-.1 3.8.6 7.1 5.8 7.1zM34.4 49.7c-2.5-2.8-3.7-7-3.6-12.9l.2-19.2c-9.8 3.7-16.9 13.2-17 24.3 0 3.5.6 6.8 1.7 9.8 3.9-.3 10.6-.5 18.7-2zM48.9 54.8c-4-.1-7.4-.6-10.1-1.8-7.6 1.8-16.5 2-21.9 1.5 4.3 8.4 13 14.2 23.1 14.3 14.2.2 26-10.9 26.8-24.9-1.9 7.6-7.7 11-17.9 10.9z"/><path class="st0" d="M35.4 50.8c-17.6 5-33.9 3-35.3-3-.9-3.7 3.5-8.9 11.1-14.1v.1c-6 4.1-9.2 9-8.5 12 1.1 4.8 14.6 3.6 28.9-.3 0 0 1 2.4 1.5 3.2.6.5 2.3 2.1 2.3 2.1zM50.6 44.9c.1.2-.7.5.4.3 15-3.4 29.3-14.5 29-21.4-.1-3.8-3.9-5.8-12.8-6.1 7.2.3 9.8 2.5 9.7 5.6-.2 6.2-12.7 11.9-25.5 15.8 0 0 .2 2.1.1 3.1-.1.9-.9 2.7-.9 2.7z"/></g></symbol><symbol id="shape-custodian-voya" viewBox="0 0 564 246.6"><style>.st0{fill:none}.st1{fill:#f7941d}</style><path class="st0" d="M0 0h564v246.6H0z"/><path class="st1" d="M351.1 194.2v-19.9h13.6v3.1h-10.1v5.1h9.9v3.1h-9.9v8.6h-3.5zm19 0v-19.9h3.5v19.9h-3.5zm23.7 0L383.4 180v14.2h-3.5v-19.9h3.6l10.2 13.8v-13.8h3.5v19.9h-3.4zm23.1 0l-1.5-3.8h-9.1l-1.5 3.8h-4l7.8-19.9h4.4l7.8 19.9h-3.9zm-6-16.4l-3.6 9.5h7.2l-3.6-9.5zm27.6 16.4L428.2 180v14.2h-3.5v-19.9h3.6l10.2 13.8v-13.8h3.5v19.9h-3.5zm7.8-9.9c0-6.1 4.6-10.3 10.4-10.3 4 0 6.5 2.1 8 4.4l-3 1.5c-1-1.7-2.9-2.9-5-2.9-3.9 0-6.9 3-6.9 7.2 0 4.1 2.9 7.2 6.9 7.2 2.1 0 4.1-1.3 5-2.9l3 1.5c-1.5 2.4-4 4.5-8 4.5-5.8.1-10.4-4.1-10.4-10.2zm23.2 9.9v-19.9h3.5v19.9h-3.5zm23.2 0l-1.5-3.8h-9.1l-1.5 3.8h-4l7.8-19.9h4.4l7.8 19.9h-3.9zm-6-16.4l-3.6 9.5h7.2l-3.6-9.5zm13.8 16.4v-19.9h3.5v16.8h8.8v3.1h-12.3zM219.4 51.3c-28.9 0-52.3 23.4-52.3 52.3s23.4 52.3 52.3 52.3 52.3-23.4 52.3-52.3-23.4-52.3-52.3-52.3zm0 86.9c-19.1 0-33.8-15.5-33.8-34.6S200.2 69 219.4 69c19.1 0 33.8 15.5 33.8 34.6s-14.7 34.6-33.8 34.6zm-52.9-84.6c-4.8-2.3-19.1-3.2-23.7 7.1-3.5 7.9-24.5 55-34 76.2C99.5 116 78.7 69.2 75 60.8c-4.5-10.2-18.8-9.4-23.7-7.1L92.6 146c2.6 5.6 7.9 9 16.2 9H121l45.5-101.4zM364 60.8c-2.4 5.5-19 42.4-34.1 76-9.4-21-30-67.4-33.8-76.1-4.7-10.5-18.8-9.4-23.7-7.1l41.3 92.4c1.7 3.6 4.6 6.3 8.6 7.8-10.1 22.4-18 40.1-18 40.1 4.9 2.2 18.9 3.2 23.6-7.1l59.7-133.1c-4.9-2.3-19-3.2-23.6 7.1zm76.4-8.4h-12.3c-8 0-13.5 3.2-16.2 9l-41.5 92.1c4.8 2.2 19 3.3 23.7-7.1 4.6-10.4 8.5-19 8.5-19h32.9c6.4 0 8.5 1.5 8.5 1.5l-3.8-8.2c-2.9-6.5-7.4-8.1-13.2-8.1h-17.8s12-26.8 18.9-42.3c9.5 21.4 31.3 70.3 34 76.3 4.6 10.3 18.8 9.4 23.7 7.1L440.4 52.4z"/><g><path class="st0" d="M0 0h564v246.6H0z"/><path class="st1" d="M501.4 154.9c-4.2 0-7.6-3.4-7.6-7.6 0-4.2 3.4-7.6 7.6-7.6 4.2 0 7.6 3.4 7.6 7.6 0 4.2-3.4 7.6-7.6 7.6zm0-14.3c-3.7 0-6.6 2.9-6.6 6.6 0 3.6 3 6.6 6.6 6.6 3.7 0 6.6-3 6.6-6.6 0-3.6-3-6.6-6.6-6.6zm2.1 11.1l-2.3-3.4h-1.6v3.4h-1.1V143h3.6c1.5 0 2.7 1 2.7 2.7 0 1.9-1.7 2.6-2.2 2.6l2.3 3.5h-1.4zm-1.4-7.7h-2.5v3.2h2.5c.8 0 1.6-.7 1.6-1.6-.1-1-.9-1.6-1.6-1.6z"/></g></symbol><symbol id="shape-grg-logo" viewBox="0 0 1317.1 398.1"><title>Artboard 1</title><path d="M101.1 209.1v-26.2h94v110h-25.9v-25.1a109.58 109.58 0 0 1-8.3 8.1 64.85 64.85 0 0 1-13.4 9 97.89 97.89 0 0 1-20.2 7.3q-12 3-28.5 3c-16 0-30.1-2.9-42.4-8.7a92.62 92.62 0 0 1-31-23.1 97.76 97.76 0 0 1-18.9-32.6A109.78 109.78 0 0 1 0 193.2a120.44 120.44 0 0 1 6.7-40.3 105.05 105.05 0 0 1 19.2-33.8 93.15 93.15 0 0 1 30.9-23.2c12.3-5.8 26.2-8.7 42-8.7 14.8 0 27.1 1.8 36.7 5.3s17.1 7.5 22.2 11.8V88H184v62.4h-26.2v-13.1c-4.9-6.8-12.2-12.4-21.6-16.7s-21.4-6.4-35.6-6.4c-11.4 0-21.5 1.9-30.3 5.8a65.54 65.54 0 0 0-22.5 16.2 69.49 69.49 0 0 0-14.1 24.6 96.41 96.41 0 0 0-4.8 31 89.71 89.71 0 0 0 4.6 28.9 68.57 68.57 0 0 0 36.7 41.6c9.1 4.3 19.8 6.4 31.9 6.4 11.2 0 20.8-1.7 28.9-5.1a55.58 55.58 0 0 0 19.9-13.7 58 58 0 0 0 11.8-19.2 72 72 0 0 0 4.6-21.8h-66.2zM253.4 167.8a42.37 42.37 0 0 0-16.4 10l-13.7-17.4c6.1-5.9 13.9-10.4 23.5-13.7a93.47 93.47 0 0 1 29.8-4.8 89.25 89.25 0 0 1 24.1 3.3 62.5 62.5 0 0 1 20.9 10.1 53.21 53.21 0 0 1 14.8 17.4c3.8 7 5.7 15.4 5.7 25.1v77.8h20.8V293h-48.7v-11c-1.7 1.5-3.7 3.1-5.8 4.7a37.31 37.31 0 0 1-8 4.4 60.48 60.48 0 0 1-11.4 3.3 85 85 0 0 1-16.4 1.3c-10.1 0-18.9-1.4-26.3-4.1a53.91 53.91 0 0 1-18.8-11.3 47.49 47.49 0 0 1-15.2-35.6 48 48 0 0 1 4.1-19.5 51.18 51.18 0 0 1 11.8-16.4 56.93 56.93 0 0 1 18.9-11.3c7.5-2.8 16-4.1 25.5-4.1a67.72 67.72 0 0 1 15.7 1.6 52.48 52.48 0 0 1 11.8 4 46.63 46.63 0 0 1 8.4 5.1 42.75 42.75 0 0 1 5.7 5.3V196a26.65 26.65 0 0 0-3.4-13.8 30 30 0 0 0-9.3-9.8 41.81 41.81 0 0 0-13.2-6 58.76 58.76 0 0 0-34.9 1.4zm-7.9 96.6c5.9 5.3 15.1 8 27.6 8 13.1 0 22.9-2.8 29.5-8.3s9.8-12 9.8-19.4-3.3-13.9-9.8-19.5-16.4-8.4-29.5-8.4q-18.75 0-27.6 8.1a26.56 26.56 0 0 0 0 39.5zM441 292.9h-62.4v-17.4H396v-112h-17.4v-17.4h45v18.5a71.43 71.43 0 0 1 7.5-8.5 40.52 40.52 0 0 1 11.1-7.4 72.72 72.72 0 0 1 16.1-5.1 110.73 110.73 0 0 1 22.2-2v26.5a113.26 113.26 0 0 0-22.9 2.7 64.83 64.83 0 0 0-17.9 6.7 35.17 35.17 0 0 0-11.8 10.3 22.57 22.57 0 0 0-4.3 13.7v74.1H441zM498.2 275.5h17.4v-112h-17.4v-17.4h45v14a66.5 66.5 0 0 1 6.4-6.7 38.48 38.48 0 0 1 8.5-5.8 48.5 48.5 0 0 1 11.7-4.1 74.15 74.15 0 0 1 16.1-1.6c16.9 0 30.2 4.7 40 14.1s14.7 22.1 14.7 38v81.5H658v17.4h-62.4v-17.4H613v-80c0-8.9-2.7-16-8.1-21.4s-12.8-8-22.1-8a40.84 40.84 0 0 0-15.5 2.8 50.68 50.68 0 0 0-11.7 6.8 41.66 41.66 0 0 0-8 8.4 50.51 50.51 0 0 0-4.4 7.5v83.7h17.4v17.4h-62.4v-17.2zM687 242.9a50.74 50.74 0 0 0 25.9 24.5c6.5 2.9 14.1 4.4 23.1 4.4 9.3 0 16.9-1.5 22.8-4.6a75.83 75.83 0 0 0 14.5-9.4l17.1 17.1c-3.2 2.8-6.5 5.6-10 8.3a59.76 59.76 0 0 1-11.5 7 65.75 65.75 0 0 1-14.4 4.7 91.82 91.82 0 0 1-18.5 1.7c-13.3 0-24.9-2.2-34.9-6.6a72.81 72.81 0 0 1-24.8-17.4 71.92 71.92 0 0 1-14.8-24.6 83.56 83.56 0 0 1-5-28.3 81.3 81.3 0 0 1 5.1-28.3 73.29 73.29 0 0 1 39.4-42q14.55-6.6 33.3-6.6c13.1 0 24.3 2.5 33.5 7.5a69.33 69.33 0 0 1 22.6 19.1 74.69 74.69 0 0 1 12.8 25.5 95.74 95.74 0 0 1 4 26.8v4.3a25.06 25.06 0 0 1-.3 3.7H683a41.5 41.5 0 0 0 4 13.2zm89-48a45.31 45.31 0 0 0-8.5-13.1 42.38 42.38 0 0 0-14-9.8c-5.6-2.6-12.4-3.8-20.4-3.8-8.4 0-15.6 1.3-21.6 4a48 48 0 0 0-15.2 10.1 46.49 46.49 0 0 0-9.4 13.2 35.47 35.47 0 0 0-3.6 13.1h96.6a53.66 53.66 0 0 0-3.9-13.7zM880.9 272.2a52.81 52.81 0 0 0 8.4-4.1v23.4a60.16 60.16 0 0 1-23.6 5.1 43.25 43.25 0 0 1-14.5-2.4 31.31 31.31 0 0 1-12-7.7 37.39 37.39 0 0 1-8.1-13.5 57.89 57.89 0 0 1-3-19.7v-87.2h-16v-18.8h16v-37.6l27.6-14v51.6h32.8v18.8h-32.8v87.2c0 6.3 1.3 11.2 4 14.8s6.9 5.4 12.8 5.4a23.92 23.92 0 0 0 8.4-1.3zM973.2 272.2a52.81 52.81 0 0 0 8.4-4.1v23.4a60.16 60.16 0 0 1-23.6 5.1 43.25 43.25 0 0 1-14.5-2.4 31.31 31.31 0 0 1-12-7.7 37.39 37.39 0 0 1-8.1-13.5 57.89 57.89 0 0 1-3-19.7v-87.2h-15.9v-18.8h15.9v-37.6l27.6-14v51.6h32.8v18.8H948v87.2c0 6.3 1.3 11.2 4 14.8s6.9 5.4 12.8 5.4a23.92 23.92 0 0 0 8.4-1.3zM354.8 332.7v5.1l-.7.2a21.11 21.11 0 0 0-3.2-.3c-4.5 0-8.4 3.5-12.7 12.3v8.7l.3 20h-5.3l.3-19.7-.2-25.9 5-.6v10.3h.5c4.2-7.4 8.8-10.2 13.4-10.2a10.88 10.88 0 0 1 2.6.1zM395.6 348.8c0 .9-.1 2.8-.2 3.8l-1.2 1-29.5.5v1.6c0 11.7 5.3 19.1 15.1 19.1a21.49 21.49 0 0 0 13-4.6l.8.3-.6 4.6a25.49 25.49 0 0 1-13.6 4c-12.4 0-19.6-9-19.6-23.2 0-14.9 8-24.1 20.3-24.1 9.7.2 15.5 6.5 15.5 17zm-4.8-.6c0-8.1-4.5-12.4-11.1-12.4-7.8 0-13.1 5.4-14.6 14.4l25.5-.7zM428.8 372.2l.6.5-.5 3.6a21.73 21.73 0 0 1-9.1 2.7c-7-.8-10.3-4.9-10.3-12.6l.2-9.1-.1-21.1h-6.3l-.4-.5.4-3.2h6.3v-9.2l4.5-1.8.6.5-.1 10.5h14.7l.4.5-.4 3.2h-14.7l-.3 29.7c0 5.9 2.3 8.5 7 8.5a12.67 12.67 0 0 0 7.5-2.2zM446 316.4a3.18 3.18 0 0 1-3.4 3.5 3 3 0 0 1-3.3-3.3 3.23 3.23 0 0 1 3.4-3.5 3 3 0 0 1 3.3 3.3zm-.9 62.2h-5.2l.3-19.7-.3-25.9 5.3-.6-.4 26.2zM484.9 332.7v5.1l-.7.2a21.11 21.11 0 0 0-3.2-.3c-4.5 0-8.4 3.5-12.7 12.3v8.7l.3 20h-5.3l.3-19.7-.2-25.9 5-.6v10.3h.5c4.2-7.4 8.8-10.2 13.4-10.2a10.88 10.88 0 0 1 2.6.1zM525.7 348.8c0 .9-.1 2.8-.2 3.8l-1.2 1-29.5.5v1.6c0 11.7 5.3 19.1 15.1 19.1a21.49 21.49 0 0 0 13-4.6l.8.3-.6 4.6a25.49 25.49 0 0 1-13.6 4c-12.4 0-19.6-9-19.6-23.2 0-14.9 8-24.1 20.3-24.1 9.7.2 15.5 6.5 15.5 17zm-4.8-.6c0-8.1-4.5-12.4-11.1-12.4-7.8 0-13.1 5.4-14.6 14.4l25.5-.7zM601.9 378.6h-5.3l.4-31.9c.1-6.4-3.3-10.2-9.4-10.2-4.9 0-10 2.9-14.7 8v1.2l-.1 13 .1 19.9h-5.3l.4-31.9c0-6.4-3.3-10.2-9.4-10.2-5 0-10.1 3-14.9 8.4v13.7l.2 20h-5.3l.3-19.7-.2-25.9 5-.6v7.4h.6c4.6-4.5 9.6-7.3 14.2-7.8 7.2 0 11.7 2.9 13.6 8.2h.5c4.8-4.7 10.2-7.6 14.9-8.2 9.4 0 14.4 5.1 14.4 13.8l-.1 13zM650.8 348.8c0 .9-.1 2.8-.2 3.8l-1.2 1-29.5.5v1.6c0 11.7 5.3 19.1 15.1 19.1a21.49 21.49 0 0 0 13-4.6l.8.3-.6 4.6a25.49 25.49 0 0 1-13.6 4c-12.4 0-19.6-9-19.6-23.2 0-14.9 8-24.1 20.3-24.1 9.8.2 15.5 6.5 15.5 17zm-4.7-.6c0-8.1-4.5-12.4-11.1-12.4-7.8 0-13.1 5.4-14.6 14.4l25.5-.7zM693.3 346.7c.1-6.4-3.2-10.2-9.4-10.2-4.9 0-10.2 3-14.9 8.4l-.1 13.7.3 20h-5.3l.3-19.7-.2-25.9 5-.6v7.4h.5c4.6-4.5 9.7-7.3 14.3-7.8 9.4 0 14.5 5.1 14.4 13.8l-.1 13 .2 19.9H693zM735.6 372.2l.6.5-.5 3.6a21.73 21.73 0 0 1-9.1 2.7c-7-.8-10.3-4.9-10.3-12.6l.2-9.1-.1-21.1h-6.3l-.4-.5.4-3.2h6.3v-9.2l4.5-1.8.6.5-.1 10.5H736l.4.5-.4 3.2h-14.7l-.3 29.7c0 5.9 2.3 8.5 7 8.5a12.76 12.76 0 0 0 7.6-2.2zM802.8 335.3c-3.4.9-6.8 1.6-10.1 2.2l-.1.3a16 16 0 0 1 2.9 9.7c0 9.7-6.5 15.9-17.1 15.9a22.5 22.5 0 0 1-7.1-1.1c-3 2.3-3.9 3.4-3.9 4.9 0 7.8 31.1 1.8 31.1 16.3 0 8-9.5 14.6-21.1 14.6-10.4 0-16.5-5.3-16.5-12.5 1.4-4.3 4.6-7.2 9.6-10.1v-.5c-4.7-1.2-8.2-3.2-8.2-7.6.9-2 3.1-4.2 6.1-6.1v-.3c-4.3-2.6-6.5-7.1-6.5-13 0-10 6.6-16 17.1-16a19.08 19.08 0 0 1 9.3 2.1c4.7-.9 9.8-2 13.9-3.1l.6.4zm-27.5 40.6c-5.7 3.1-9.6 6.4-9.6 10.4 0 4.2 4.3 7.9 12.3 7.9 8.8 0 15.8-4.7 15.8-10-.1-6.4-9.8-6.9-18.5-8.3zm15.5-28.4c0-7.4-4.3-11.6-11.8-11.6-7.7 0-12.3 4.4-12.3 11.9 0 7.3 4.4 11.7 11.9 11.7s12.2-4.4 12.2-12zM834.3 332.7v5.1l-.7.2a21.11 21.11 0 0 0-3.2-.3c-4.5 0-8.4 3.5-12.7 12.3v8.7l.3 20h-5.3l.3-19.7-.2-25.9 5-.6v10.3h.5c4.2-7.4 8.8-10.2 13.4-10.2a10.88 10.88 0 0 1 2.6.1zM878.8 355c0 15.2-7.5 24.2-20.2 24.2-12.1 0-19.2-8.6-19.2-23.1 0-15.3 7.5-24.3 20.1-24.3 12.1.1 19.3 8.7 19.3 23.2zm-34.6.1c0 13.1 5.4 20.1 14.5 20.1 9.6 0 15.1-6.9 15.1-19.2 0-13-5.4-20.2-14.6-20.2-9.5 0-15 7.1-15 19.3zM924.9 369.6c0 3.5 1 5 3.3 5a8.57 8.57 0 0 0 3.7-1l.7.5-.6 3.3a11.34 11.34 0 0 1-5.2 1.6c-3.8-.1-6-2.6-6.3-7.6h-.6c-4.6 4.6-9.4 7.2-14.3 7.7-8.9 0-13.8-5-13.7-13.8l.1-11V333l5.3-.6-.3 32c-.1 6.5 3 10.2 8.9 10.2 4.7 0 9.6-2.6 14.3-7.6v-34l5.1-.6zM981.2 354.3c0 15.9-8.1 24.9-22.1 24.9a55 55 0 0 1-9.8-.9l.1 19h-5.2l.3-38.5-.3-25.9 5.1-.6v6.7h.5c4.3-4.1 8.6-6.4 13.8-7 11.5.1 17.6 8.3 17.6 22.3zm-4.9.4c-.1-11.6-4.8-18.2-13.1-18.2-4.8 0-9.5 2.5-13.9 7.7l-.1 14.4.1 14.4a28.41 28.41 0 0 0 10.3 2.3c10.4 0 16.8-7.1 16.7-20.6z"/><path class="cls-1" transform="rotate(-45 1209.488 196.223)" d="M1133.43 120.17h152.1v152.1h-152.1z"/><path class="cls-1" transform="rotate(-45 1109.725 96.267)" d="M1033.53 36.27h152.4v120h-152.4z"/><path class="cls-1" transform="rotate(-45 1109.674 296.258)" d="M1049.68 220.06h120v152.4h-120z"/></symbol><symbol id="shape-icon-arrow-left" viewBox="0 0 768 768"><style>.st0{fill:#16446c}</style><path class="st0" d="M320 128c8.8 0 16.4 3.1 22.6 9.4s9.4 13.8 9.4 22.6c0 9-3.2 16.6-9.5 22.8L173.2 352H672c8.8 0 16.4 3.1 22.6 9.4s9.4 13.8 9.4 22.6-3.1 16.4-9.4 22.6-13.8 9.4-22.6 9.4H173.2l169.2 169.2c6.3 6.2 9.5 13.8 9.5 22.8 0 8.8-3.1 16.4-9.4 22.6S328.8 640 320 640c-9 0-16.6-3.1-22.8-9.2l-224-224C67 400.3 64 392.7 64 384s3.1-16.2 9.2-22.8l224-224c6.4-6.1 14-9.2 22.8-9.2z"/></symbol><symbol id="shape-icon-arrow-right" viewBox="0 0 768 768"><style>.st0{fill:#16446c}</style><path class="st0" d="M448 128c9 0 16.6 3.1 22.8 9.2l224 224c6.2 6.2 9.2 13.8 9.2 22.8s-3.1 16.6-9.2 22.8l-224 224C464.6 637 457 640 448 640c-9.2 0-16.8-3-22.9-9.1S416 617.2 416 608c0-9 3.1-16.6 9.2-22.8L594.8 416H96c-8.8 0-16.4-3.1-22.6-9.4S64 392.8 64 384s3.1-16.4 9.4-22.6S87.2 352 96 352h498.8L425.2 182.8C419 176.6 416 169 416 160c0-9.2 3-16.8 9.1-22.9s13.7-9.1 22.9-9.1z"/></symbol><symbol id="shape-icon-cancel-circle" viewBox="0 0 512 512"><style>.st0{fill:#16446c}</style><path class="st0" d="M256 0C114.6 0 0 114.6 0 256s114.6 256 256 256 256-114.6 256-256S397.4 0 256 0zm0 464c-114.9 0-208-93.1-208-208S141.1 48 256 48s208 93.1 208 208-93.1 208-208 208z"/><path class="st0" d="M336 128l-80 80-80-80-48 48 80 80-80 80 48 48 80-80 80 80 48-48-80-80 80-80-48-48z"/></symbol><symbol id="shape-icon-chart" viewBox="0 0 1024 1024"><style>.st0{fill:#16446c}</style><path class="st0" d="M479.7 541.3S481 125 480 125C263.1 125 96 314.1 96 535s179.1 394 400 394 400-165.1 400-386c0-1.9-416.3-1.7-416.3-1.7zM928 509c0-220.9-197.1-414-418-414 3.1 0 0 414 0 414s418 1.2 418 0z"/></symbol><symbol id="shape-icon-copy" viewBox="0 0 512 512"><style>.st0{fill:#16446c}</style><path class="st0" d="M320 128V0H96L0 96v288h192v128h320V128H320zM96 45.3V96H45.3L96 45.3zM32 352V128h96V32h160v96l-96 96v128H32zm256-178.7V224h-50.7l50.7-50.7zM480 480H224V256h96v-96h160v320z"/></symbol><symbol id="shape-icon-feed" viewBox="0 0 512 512"><style>.st0{fill:#16446c}</style><path class="st0" d="M464 0H48C21.6 0 0 21.6 0 48v416c0 26.4 21.6 48 48 48h416c26.4 0 48-21.6 48-48V48c0-26.4-21.6-48-48-48zM139.5 415.6c-24 0-43.5-19.3-43.5-43.3 0-23.8 19.5-43.4 43.5-43.4 24.1 0 43.5 19.6 43.5 43.4 0 24-19.5 43.3-43.5 43.3zm109.2.4c0-40.9-15.9-79.4-44.7-108.2-28.9-28.9-67.2-44.8-108-44.8v-62.6c118.8 0 215.6 96.7 215.6 215.6h-62.9zm111.1 0c0-145.5-118.3-264-263.7-264V89.4c180 0 326.5 146.6 326.5 326.6h-62.8z"/></symbol><symbol id="shape-icon-file-pdf" viewBox="0 0 512 512"><style>.st0{fill:#16446c}</style><path class="st0" d="M421 294.7c-6.8-6.7-22-10.3-45-10.6-15.6-.2-34.4 1.2-54.1 4-8.8-5.1-17.9-10.6-25.1-17.3-19.2-18-35.3-42.9-45.3-70.3.7-2.6 1.2-4.8 1.7-7.1 0 0 10.8-61.5 8-82.3-.4-2.9-.6-3.7-1.4-5.9l-.9-2.4c-2.9-6.8-8.7-14-17.8-13.6l-5.5-.2c-10.1 0-18.3 5.2-20.5 12.9-6.6 24.2.2 60.4 12.5 107.4l-3.1 7.6c-8.8 21.4-19.8 43-29.5 62.1l-1.3 2.5c-10.2 20-19.5 37-27.9 51.4l-8.7 4.6c-.6.3-15.5 8.2-19 10.3-29.6 17.7-49.3 37.8-52.5 53.7-1 5.1-.3 11.6 5 14.6l8.4 4.2c3.6 1.8 7.5 2.8 11.4 2.8 21.1 0 45.6-26.3 79.3-85.2 39-12.7 83.3-23.2 122.2-29 29.6 16.7 66.1 28.3 89.1 28.3 4.1 0 7.6-.4 10.5-1.1 4.4-1.2 8.1-3.7 10.4-7.1 4.5-6.7 5.4-16 4.2-25.4-.4-3-2.7-6.5-5.1-8.9zM105.8 407c3.8-10.5 19.1-31.3 41.6-49.8 1.4-1.1 4.9-4.4 8.1-7.5-23.5 37.7-39.3 52.6-49.7 57.3zM239.2 99.8c6.8 0 10.6 17.1 11 33.1s-3.4 27.3-8.1 35.6c-3.9-12.3-5.7-31.8-5.7-44.5 0 .1-.3-24.2 2.8-24.2zm-39.8 218.9c4.7-8.5 9.6-17.4 14.7-26.8 12.2-23.2 20-41.3 25.7-56.2 11.5 20.8 25.7 38.6 42.5 52.8 2.1 1.8 4.3 3.6 6.6 5.3-34 6.8-63.5 15-89.5 24.9zm215.1-1.9c-2.1 1.3-8 2-11.9 2-12.4 0-27.6-5.6-49.1-14.8 8.2-.6 15.8-.9 22.6-.9 12.4 0 16.1-.1 28.2 3 12.1 3.1 12.2 9.4 10.2 10.7z"/><path class="st0" d="M458.9 114.5c-11.1-15.1-26.6-32.8-43.6-49.9S380.6 32.1 365.4 21C339.7 2.2 327.2 0 320 0H72C49.9 0 32 17.9 32 40v432c0 22.1 17.9 40 40 40h368c22.1 0 40-17.9 40-40V160c0-7.2-2.2-19.7-21.1-45.5zm-66.2-27.2c15.4 15.3 27.4 29.2 36.3 40.7h-77V51c11.5 8.9 25.3 21 40.7 36.3zM448 472c0 4.3-3.7 8-8 8H72c-4.3 0-8-3.7-8-8V40c0-4.3 3.7-8 8-8h248v112c0 8.8 7.2 16 16 16h112v312z"/></symbol><symbol id="shape-icon-file-word" viewBox="0 0 512 512"><style>.st0{fill:#16446c}</style><path class="st0" d="M319.9 237.9H342L316.5 351l-33.2-159H230l-38.6 159-28.9-159h-55.7l56.6 256h54.4L256 296.6 290.1 448h50.2l64.8-256h-85.2v45.9z"/><path class="st0" d="M458.9 114.5c-11.1-15.1-26.6-32.8-43.6-49.9S380.6 32.1 365.4 21C339.7 2.2 327.2 0 320 0H72C49.9 0 32 17.9 32 40v432c0 22.1 17.9 40 40 40h368c22.1 0 40-17.9 40-40V160c0-7.2-2.2-19.7-21.1-45.5zm-66.2-27.2c15.4 15.3 27.4 29.2 36.3 40.7h-77V51c11.5 8.9 25.3 21 40.7 36.3zM448 472c0 4.3-3.7 8-8 8H72c-4.3 0-8-3.7-8-8V40c0-4.3 3.7-8 8-8h248v112c0 8.8 7.2 16 16 16h112v312z"/></symbol><symbol id="shape-icon-info" viewBox="0 0 512 512"><style>.st0{fill:#16446c}</style><path class="st0" d="M224 152c0-13.2 10.8-24 24-24h16c13.2 0 24 10.8 24 24v16c0 13.2-10.8 24-24 24h-16c-13.2 0-24-10.8-24-24v-16zM320 384H192v-32h32v-96h-32v-32h96v128h32v32z"/><path class="st0" d="M256 0C114.6 0 0 114.6 0 256s114.6 256 256 256 256-114.6 256-256S397.4 0 256 0zm0 464c-114.9 0-208-93.1-208-208S141.1 48 256 48s208 93.1 208 208-93.1 208-208 208z"/></symbol><symbol id="shape-icon-menu" viewBox="0 0 1024 1024"><style>.st0{fill:#16446c}</style><path class="st0" d="M64 192h896v192H64V192zm0 256h896v192H64V448zm0 256h896v192H64V704z"/></symbol><symbol id="shape-icon-print" viewBox="0 0 416 448"><style>.st0{fill:#16446c}</style><path class="st0" d="M96 384h224v-64H96v64zm0-160h224v-96h-40c-6.7 0-12.3-2.3-17-7s-7-10.3-7-17V64H96v160zm288 16c0-4.3-1.6-8.1-4.8-11.2s-6.9-4.8-11.2-4.8-8.1 1.6-11.2 4.8-4.8 6.9-4.8 11.2 1.6 8.1 4.8 11.2 6.9 4.8 11.2 4.8 8.1-1.6 11.2-4.8 4.8-6.9 4.8-11.2zm32 0v104c0 2.2-.8 4-2.4 5.6s-3.5 2.4-5.6 2.4h-56v40c0 6.7-2.3 12.3-7 17s-10.3 7-17 7H88c-6.7 0-12.3-2.3-17-7s-7-10.3-7-17v-40H8c-2.2 0-4-.8-5.6-2.4S0 346.2 0 344V240c0-13.2 4.7-24.5 14.1-33.9S34.8 192 48 192h16V56c0-6.7 2.3-12.3 7-17s10.3-7 17-7h168c6.7 0 14 1.7 22 5s14.3 7.3 19 12l38 38c4.7 4.7 8.7 11 12 19s5 15.3 5 22v64h16c13.2 0 24.5 4.7 33.9 14.1S416 226.8 416 240z"/></symbol><symbol id="shape-icon-puzzle-piece" viewBox="0 0 416 448"><style>.st0{fill:#16446c}</style><path class="st0" d="M416 274.5c0 13.5-3.7 24.8-11.1 33.8s-17.7 13.5-30.9 13.5c-6.8 0-13.3-1.5-19.4-4.4s-11-6.1-14.8-9.5-8.5-6.6-14.1-9.5-11.5-4.4-17.7-4.4c-18.3 0-27.5 10.3-27.5 31 0 6.5 1.3 16.1 4 28.8s3.9 22.2 3.8 28.8v1.2c-3.7 0-6.4.1-8.2.2-5.7.5-13.8 1.5-24.4 2.9-10.6 1.4-20.2 2.5-28.9 3.4s-16.8 1.2-24.5 1.2c-10.2 0-18.8-2.2-25.8-6.6S166 373.5 166 364c0-6.2 1.5-12.1 4.4-17.8s6.1-10.4 9.5-14.1 6.6-8.7 9.5-14.8 4.4-12.5 4.4-19.4c0-13.2-4.5-23.5-13.5-30.9s-20.3-11-33.8-11c-14 0-25.9 3.8-35.8 11.4S96 285.6 96 299.2c0 7.2 1.2 14.1 3.8 20.8s5.3 12 8.4 16.1 5.9 8.5 8.4 13.2 3.8 9 3.8 12.6c0 7.5-3.8 14.9-11.5 22.2-6.2 5.8-15.9 8.8-29.2 8.8-15.8 0-36.2-2-61.2-6-1.5-.3-3.8-.7-6.9-1s-5.4-.7-6.9-1l-3.2-.5c-.2 0-.4-.1-.8-.2-.3 0-.5-.1-.5-.2V128c.3.2 1.8.5 4.4.9s5.4.8 8.5 1.2 4.9.7 5.4.9c25 4 45.4 6 61.2 6 13.3 0 23.1-2.9 29.2-8.8 7.7-7.3 11.5-14.8 11.5-22.2 0-3.7-1.2-7.9-3.8-12.6s-5.3-9.2-8.4-13.2-5.9-9.5-8.4-16.1S96 50.4 96 43.2c0-13.7 4.9-24.3 14.8-31.9S132.6 0 146.8 0c13.3 0 24.5 3.7 33.5 11.1s13.5 17.7 13.5 30.9c0 6.8-1.5 13.3-4.4 19.4s-6.1 11-9.5 14.8-6.6 8.5-9.5 14.1-4.4 11.5-4.4 17.7c0 9.5 3.5 16.5 10.5 20.9 7 4.4 15.6 6.6 25.8 6.6 10.7 0 25.7-1.2 45-3.8s32.9-3.9 40.8-4.2v.5c-.2.3-.5 1.8-.9 4.4s-.8 5.4-1.2 8.5-.7 4.9-.9 5.4c-4 25-6 45.4-6 61.2 0 13.3 2.9 23.1 8.8 29.2 7.3 7.7 14.8 11.5 22.2 11.5 3.7 0 7.9-1.2 12.6-3.8s9.2-5.3 13.2-8.4 9.5-5.9 16.1-8.4 13.6-3.8 20.8-3.8c13.7 0 24.3 4.9 31.9 14.8s11.3 21.9 11.3 35.9z"/></symbol><symbol id="shape-icon-radio-checked" viewBox="0 0 512 512"><style>.st0{fill:#16446c}</style><path class="st0" d="M256 0C114.6 0 0 114.6 0 256s114.6 256 256 256 256-114.6 256-256S397.4 0 256 0zm0 448c-106 0-192-86-192-192S150 64 256 64s192 86 192 192-86 192-192 192zm-96-192c0-53 43-96 96-96s96 43 96 96-43 96-96 96-96-43-96-96z"/></symbol><symbol id="shape-icon-radio-unchecked" viewBox="0 0 512 512"><style>.st0{fill:#16446c}</style><path class="st0" d="M256 0C114.6 0 0 114.6 0 256s114.6 256 256 256 256-114.6 256-256S397.4 0 256 0zm0 448c-106 0-192-86-192-192S150 64 256 64s192 86 192 192-86 192-192 192z"/></symbol><symbol id="shape-icon-shield" viewBox="0 0 512 512"><style>.st0{fill:#16446c}</style><path class="st0" d="M480 0L256 64 32 0s-2.2 25.8 0 64l224 70 224-70c2.2-38.2 0-64 0-64zM36.1 97.6C48.1 222.9 92.8 433.7 256 512c163.2-78.3 207.9-289.1 219.9-414.4L256 180.2 36.1 97.6z"/></symbol><symbol id="shape-social-facebook" viewBox="0 0 266.9 266.9"><path class="st0" d="M252.2 0H14.7C6.6 0 0 6.6 0 14.7v237.4c0 8.1 6.6 14.7 14.7 14.7h127.8V163.5h-34.8v-40.3h34.8V93.6c0-34.5 21.1-53.2 51.8-53.2 14.7 0 27.4 1.1 31.1 1.6v36h-21.3c-16.7 0-20 7.9-20 19.6v25.7H224l-5.2 40.3h-34.7V267h68c8.1 0 14.7-6.6 14.7-14.7V14.7c.1-8.1-6.5-14.7-14.6-14.7z"/></symbol><symbol id="shape-social-linkedin" viewBox="0 0 103.1 102.9"><style>.st0{fill:#16446c}</style><path class="st0" d="M23.1 102.9H1.7V34.2h21.4v68.7zM12.4 24.8C5.6 24.8 0 19.2 0 12.4S5.5 0 12.4 0c6.8 0 12.4 5.5 12.4 12.4 0 6.8-5.5 12.4-12.4 12.4zm90.7 78.1H81.8V69.5c0-8-.1-18.2-11.1-18.2-11.1 0-12.8 8.7-12.8 17.6v34H36.5V34.2H57v9.4h.3c2.8-5.4 9.8-11.1 20.2-11.1 21.6 0 25.6 14.2 25.6 32.7v37.7z"/></symbol><symbol id="shape-social-twitter" viewBox="0 0 273.4 222.2"><style>.st0{fill:#16446c}</style><path class="st0" d="M273.4 26.3c-10.1 4.5-20.9 7.5-32.2 8.8 11.6-6.9 20.5-17.9 24.7-31-10.9 6.4-22.9 11.1-35.7 13.6A55.919 55.919 0 0 0 189.3 0c-31 0-56.1 25.1-56.1 56.1 0 4.4.5 8.7 1.5 12.8C88 66.5 46.7 44.2 19 10.3c-4.8 8.3-7.6 17.9-7.6 28.2 0 19.5 9.9 36.6 25 46.7-9.2-.3-17.8-2.8-25.4-7v.7c0 27.2 19.3 49.8 45 55-4.7 1.3-9.7 2-14.8 2-3.6 0-7.1-.4-10.6-1 7.1 22.3 27.9 38.5 52.4 39-19.2 15-43.4 24-69.7 24-4.5 0-9-.3-13.4-.8 24.8 15.9 54.3 25.2 86 25.2 103.2 0 159.6-85.5 159.6-159.6 0-2.4-.1-4.9-.2-7.3 11.1-8 20.6-17.9 28.1-29.1z"/></symbol></svg>